<?xml version="1.0" encoding="UTF-8"?>
<svg width="116px" height="97px" viewBox="0 0 116 97" version="1.1" xmlns="http://www.w3.org/2000/svg" xmlns:xlink="http://www.w3.org/1999/xlink">
    <!-- Generator: Sketch 48.2 (47327) - http://www.bohemiancoding.com/sketch -->
    <title>manually</title>
    <desc>Created with Sketch.</desc>
    <defs></defs>
    <g id="10_Add_Your_Contacts" stroke="none" stroke-width="1" fill="none" fill-rule="evenodd" transform="translate(-495.000000, -277.000000)">
        <g id="card" transform="translate(383.000000, 250.000000)" fill-rule="nonzero">
            <g id="manually" transform="translate(112.000000, 27.000000)">
                <path d="M65.8330237,73.2779147 C65.6395071,72.2976872 64.9352607,71.5730995 64.0660853,71.1838673 C66.4465592,62.1699526 59.6872227,51.6287962 56.2517536,43.7897251 C53.9625403,38.565327 51.7167583,33.3189384 49.3830142,28.1143318 C47.8766635,24.7563791 46.4802654,20.0789953 43.8172133,17.200436 C43.8551469,16.9882275 43.838654,16.776019 43.785327,16.5709573 C44.6193175,16.2108626 45.144891,15.2806635 44.8749573,14.3449668 C44.3680758,12.5884739 43.309782,11.1601896 41.8160758,10.1205877 C40.3531564,9.10242654 38.7225592,11.3333649 39.9424834,12.548891 C40.303128,12.9078863 40.5890047,13.2844739 40.8116588,13.7457251 C40.9045687,13.9386919 40.9469005,14.0579905 41.0189194,14.3103318 C41.0579526,14.4461232 41.0914882,14.5830142 41.1195261,14.7215545 C41.1629573,14.9579526 41.170654,15.0008341 41.1442654,14.8501991 C41.1580095,14.9821422 41.1838483,15.1107867 41.2162844,15.2350332 C40.9425024,15.3713744 40.685763,15.6000758 40.4713555,15.9475261 C39.588436,17.3796588 38.3564171,18.4544455 36.8621611,19.2169668 C35.8445498,19.7364929 36.5966256,21.1334408 37.5938957,20.9525687 C38.9061801,20.7150711 40.1277536,20.2450237 41.252019,19.5886066 C41.7468057,22.6683791 43.363109,25.8141232 44.3928152,28.5321517 C46.2301232,33.3805118 48.1982749,38.1826919 50.1070521,43.003564 C53.749782,52.2027488 59.2452133,61.92091 58.0797156,72.0376493 C58.0428815,72.3565118 58.0654218,72.6357915 58.1138009,72.8952796 C56.8685877,73.576436 55.636019,74.2812322 54.5590332,75.1476588 C53.4710521,76.0228815 54.0197156,78.2268815 55.4265592,78.4330427 C55.7305782,78.4775735 56.039545,78.5039621 56.3501611,78.5210047 C55.4320569,79.0311848 54.8256682,79.8943128 54.6228057,80.8388057 C54.1983886,79.4891374 53.0609289,78.4440379 51.2032796,78.5792796 C49.4517346,78.7073744 47.6732512,78.8772512 45.8881706,79.0724171 C45.72709,77.9481517 44.9959052,76.8937062 43.5989573,76.4264076 C40.1931754,75.2883981 36.4613839,75.356019 32.9544455,74.5434692 C29.4887393,73.7408152 26.1467299,72.5549763 22.7134597,71.6511659 C21.596891,71.3575924 20.7282654,72.7792796 21.5743507,73.6077725 C24.496891,76.4681896 28.893346,79.3291564 33.4558294,81.1103886 C30.0379526,81.8949005 26.6909953,82.8762275 23.5106161,84.1104455 C22.5347867,84.4892322 22.724455,85.767981 23.7514123,85.8889289 C32.7103507,86.9433744 42.2069573,86.6228626 51.2027299,86.0873934 C53.3517536,85.9592986 54.5386919,84.3792796 54.7690427,82.7003033 C55.014237,83.3325308 55.4661422,83.9246256 56.1676398,84.3897251 C58.9323981,86.2237346 62.6773839,84.4523981 64.4778578,82.0917156 C66.4273175,79.5380664 66.4289668,76.2944645 65.8330237,73.2779147 Z" id="Shape" fill="#E0DFE6"></path>
                <path d="M36.6450047,8.56530806 C36.0243223,7.65050237 35.4564171,6.69776303 35.0221043,5.67850237 C34.5866919,4.65649289 34.3678863,3.56906161 33.9033365,2.56134597 C33.2441706,1.13196209 31.289763,1.719109 30.8746919,2.96981991 C30.846654,2.99620853 30.8483033,3.03249289 30.8439052,3.06822749 C30.4200379,3.63723223 30.4200379,4.43438863 30.8147678,4.93467299 C30.9895924,7.00727962 31.7768531,9.09692891 32.6020474,10.9281896 C33.8296682,13.6528152 38.3646635,11.1008152 36.6450047,8.56530806 Z" id="Shape" fill="#E0DFE6"></path>
                <path d="M70.9326256,59.886237 C68.2058009,53.8591848 65.6103697,47.76891 62.7818389,41.7885877 C62.1886445,40.5340284 61.596,39.2453839 60.9923602,37.9490427 C61.1336493,36.8176303 60.6762464,35.6065024 59.6190521,35.0539905 C57.8856493,31.4854787 55.9741232,27.9724929 53.5639621,24.9894787 C53.1367962,24.4606066 52.0905972,24.8811754 52.1692133,25.5672796 C52.7393175,30.5618768 54.6849289,35.4899526 56.3369668,40.2135166 C58.1704265,45.4566066 60.2160948,50.6238294 62.2447204,55.7938009 C64.1067678,60.5399052 66.0903128,65.2711659 67.7527962,70.0920379 C68.5356588,72.3614597 69.3575545,74.8232986 69.1134597,77.2527014 C68.9050995,79.3253081 67.7863318,81.0768531 67.0111659,82.9746351 C66.3778389,84.5244171 67.7088152,86.3771185 69.2794882,86.7789953 C69.1898768,87.2006635 69.0898199,87.6223318 69.0452891,88.0456493 C68.9496303,88.9549573 68.8814597,89.8389763 68.8682654,90.7532322 C68.8264834,93.5790142 73.4818768,93.0023128 72.6858199,90.236455 C72.4334787,89.3590332 72.1355071,88.5233934 71.8045498,87.6718104 C71.6451185,87.2611374 71.4274123,86.8653081 71.2229005,86.4661801 C81.6997346,81.559545 74.2015166,67.1117725 70.9326256,59.886237 Z" id="Shape" fill="#E0DFE6"></path>
                <path d="M115.500815,62.9126825 C113.938938,58.0824645 111.960341,52.6705972 109.467716,47.8502749 C109.876739,47.2592796 110.027374,46.4599242 109.656834,45.6061422 C108.92345,43.9161706 108.025137,42.309763 107.41655,40.5653649 C106.865137,38.985346 106.577611,37.3695924 105.789251,35.8813839 C105.25873,34.8802654 103.691355,35.138654 103.407678,36.1925498 C103.028341,37.6021422 103.051981,39.2393365 103.33346,40.8891754 C102.856265,40.7676777 102.312,40.9018199 102.087697,41.3850616 C99.3152417,47.3747299 98.6170427,54.8570047 97.0590142,61.2567962 C95.4410616,67.9034313 93.5548246,74.1020095 91.2793555,80.5314882 C90.3601517,83.1285687 93.9748436,84.9939147 95.7824645,83.1527583 C98.7330427,80.1488531 100.27128,75.9470142 101.268,71.6495166 C103.313118,71.3993744 105.329649,70.634654 107.25382,70.0046256 C109.867943,69.1480948 112.6371,68.599981 114.269346,66.2596398 C114.388095,66.0892133 114.472209,65.9160379 114.539829,65.7428626 C115.402957,65.2161896 115.926882,64.2321137 115.500815,62.9126825 Z M104.763943,65.2689668 C103.940948,65.7104265 103.089915,66.1254976 102.252076,66.5642085 C102.420853,65.5526445 102.579185,64.558673 102.736417,63.6020853 C103.673763,57.8988436 105.020133,51.2247204 104.612758,45.1899716 C104.756246,45.5264265 104.907981,45.8496872 105.064114,46.1658009 C105.891507,51.6887204 107.709024,57.4546351 109.648588,62.6262559 C107.927829,63.2298957 106.292834,64.4481706 104.763943,65.2689668 Z" id="Shape" fill="#E0DFE6"></path>
                <path d="M104.091583,29.3512986 C102.736417,24.751981 101.942559,19.1273555 99.0018768,15.2179905 C98.6247393,14.7166066 98.0601327,14.657782 97.6384645,14.8628436 C97.1442275,14.6231469 96.5669763,14.543981 96.0012701,14.6819716 C94.8000379,14.9749953 93.7301991,15.1190332 92.4893839,14.9716967 C91.776891,14.8870332 91.0616493,15.5489479 90.8846256,16.1932701 C90.8378957,16.3636967 90.8241517,16.5286256 90.8318483,16.6891564 C90.5179336,16.618237 90.2023697,16.555564 89.8824076,16.5110332 C88.7317536,16.3499526 87.3238104,17.8398104 88.5503318,18.7996967 C89.6647014,19.6716209 90.8769289,20.3175924 92.1122464,21.0031469 C93.3997915,21.7178389 94.5768341,22.7975735 96.0111659,23.1565687 C97.3025592,23.4798294 98.3207204,22.7838294 98.7533839,21.8217441 C98.8237536,22.1878863 98.8963223,22.5529289 98.9749384,22.9130237 C99.5170047,25.3798104 100.058521,27.8471469 100.600038,30.3139336 C101.096474,32.5806066 104.755147,31.6036777 104.091583,29.3512986 Z" id="Shape" fill="#E0DFE6"></path>
                <g id="Group" fill="#404D5F">
                    <path d="M5.94348815,53.213763 C5.3909763,53.213763 4.89618957,52.8256303 4.78183886,52.2637725 C4.3321327,50.0575735 3.89177251,47.8491754 3.4503128,45.6402275 C2.37332701,40.2437536 1.25950711,34.663109 0.0291374408,29.2171564 C-0.112701422,28.5876777 0.274331754,27.9598483 0.900511848,27.8037156 C4.04130806,27.0230521 7.18595261,26.2566825 10.3360948,25.5007583 C10.9738199,25.3462749 11.6142938,25.7410047 11.767128,26.3787299 C11.9199621,27.016455 11.5268815,27.6569289 10.8891564,27.809763 C8.12274882,28.473327 5.35854028,29.1456872 2.59872986,29.8284929 C3.73563981,34.9401896 4.77359242,40.1387488 5.77855924,45.1762275 C6.21836967,47.3818768 6.65872986,49.5869763 7.10788626,51.789327 C7.23818009,52.4314502 6.82420853,53.0587299 6.18208531,53.1895735 C6.10181991,53.2060664 6.02210427,53.213763 5.94348815,53.213763 Z" id="Shape"></path>
                    <path d="M98.9611943,26.0642654 C98.3833934,26.0642654 97.8770616,25.6414976 97.7890995,25.0532512 C97.3163033,21.8959621 96.6082085,18.4995261 95.5702559,14.40709 C92.526218,13.1321896 89.4107109,11.7819716 86.0769479,10.293763 C73.1718104,13.5153744 59.9780474,16.534673 47.5621991,19.3527583 C46.9233744,19.4989953 46.2872986,19.0971185 46.1416114,18.4577441 C45.9964739,17.8189194 46.3972512,17.1828436 47.0366256,17.0371564 C59.5679242,14.1932322 72.8903318,11.1442464 85.8982749,7.89074882 C86.1566635,7.82587678 86.429346,7.85061611 86.6712417,7.95891943 C90.3293649,9.59556398 93.7181043,11.0628815 97.0309763,12.4438863 C97.3745782,12.5879242 97.6313175,12.8836967 97.7242275,13.2443412 C98.8627867,17.6743318 99.6291564,21.3148626 100.137137,24.7003033 C100.234445,25.3484739 99.7880379,25.9532133 99.1393175,26.0505213 C99.0793934,26.0598673 99.020019,26.0642654 98.9611943,26.0642654 Z" id="Shape"></path>
                    <path d="M88.8796398,86.482673 C88.591564,86.482673 88.3018389,86.4518863 88.0126635,86.389763 C82.171981,85.132455 74.629782,83.499109 66.405327,81.7090806 C65.7648531,81.5694408 65.359128,80.9372133 65.498218,80.2961896 C65.6378578,79.6573649 66.2695355,79.2516398 66.911109,79.3890806 C75.1322654,81.1785592 82.6733649,82.812455 88.5129479,84.0681137 C88.9582559,84.1654218 89.4145592,84.0813081 89.795545,83.8339147 C90.1726825,83.5903697 90.4431659,83.1994882 90.5366256,82.761327 C92.2678294,74.7045498 94.0045308,66.6389763 95.741782,58.5739526 C97.4185592,50.7876588 99.0953365,43.0013649 100.767166,35.2227678 C100.938142,34.42891 100.454351,33.651545 99.6654408,33.4536303 C74.6055924,27.1709384 59.7432986,23.9240379 48.8915261,21.55291 L47.8975545,21.3357536 C47.2570806,21.1950142 46.8513555,20.5627867 46.9909953,19.9223128 C47.1306351,19.2834882 47.7573649,18.877763 48.404436,19.0157536 L49.3984076,19.23291 C60.2650237,21.6078863 75.1476588,24.8597346 100.243242,31.150673 C102.279564,31.6619526 103.529725,33.6696872 103.088815,35.7214028 C101.417536,43.5 99.7396588,51.2873934 98.0628815,59.0736872 C96.3256303,67.1381611 94.5883791,75.2037346 92.8582749,83.2599621 C92.6334218,84.3094597 91.9869005,85.2451564 91.0841896,85.8279052 C90.4167773,86.2594692 89.6553555,86.482673 88.8796398,86.482673 Z" id="Shape"></path>
                    <path d="M52.4023128,78.6260095 C52.3187488,78.6260095 52.2329858,78.6172133 52.1483223,78.5990711 C39.4801327,75.8271659 16.5286256,70.7869384 5.1441327,68.1700664 C3.3936872,67.7676398 2.2694218,66.0683223 2.58388626,64.3013839 C3.16938389,61.0105024 3.74443602,57.7196209 4.31948815,54.4314882 C6.67247393,40.9754882 9.10572512,27.0598863 12.1975924,13.5274692 C12.4141991,12.579128 13.0211374,11.7572322 13.8628246,11.2717915 C14.7028626,10.7863507 15.7166256,10.6703507 16.6462749,10.957327 C20.9212322,12.2696114 24.8608341,13.3977251 28.6899336,14.40709 C29.3243602,14.574218 29.7020474,15.2229384 29.5354692,15.8568152 C29.3683412,16.4912417 28.7157725,16.8700284 28.0857441,16.7023507 C24.2247583,15.6852891 20.2554692,14.5483791 15.9497251,13.2261991 C15.6517536,13.1360379 15.3224455,13.170673 15.0503128,13.328455 C14.7776303,13.4851374 14.5819147,13.7501232 14.511545,14.0574408 C11.432872,27.5288341 9.00511848,41.4136493 6.65708057,54.8405118 C6.08202844,58.1308436 5.50642654,61.4239242 4.91982938,64.7170047 C4.82801896,65.2370806 5.15952607,65.7368152 5.67575355,65.8561137 C17.0487014,68.4713365 39.9914123,73.5088152 52.654654,76.2790711 C53.295128,76.4198104 53.7008531,77.0525877 53.5612133,77.6925118 C53.4391659,78.2472227 52.9482275,78.6260095 52.4023128,78.6260095 Z" id="Shape"></path>
                    <path d="M94.9941043,68.8704645 C94.4536872,68.8704645 93.9654976,68.5004739 93.8390521,67.9518104 C93.6906161,67.3135355 94.0880948,66.6758104 94.7269194,66.5273744 C99.2399242,65.4795261 103.389536,64.4970995 107.372569,63.5322654 L107.191147,62.5916209 C106.065232,56.7619336 104.901384,50.7332322 103.071773,44.9832607 C102.873308,44.3581801 103.218559,43.690218 103.84309,43.4917536 C104.468171,43.2921896 105.136133,43.63909 105.334597,44.2630711 C107.20654,50.1466351 108.383033,56.2440569 109.522142,62.1408152 L109.919621,64.1908815 C110.041118,64.813763 109.650787,65.4212512 109.035052,65.5707867 C104.707867,66.6241327 100.203109,67.692872 95.2645877,68.8385782 C95.1722275,68.8605687 95.0826161,68.8704645 94.9941043,68.8704645 Z" id="Shape"></path>
                    <path d="M14.8045687,86.7762464 C14.3169289,86.7762464 13.8655735,86.473327 13.6912986,85.9983318 C11.7407393,80.6760758 9.98754502,74.8634313 8.33220853,68.2283412 C8.17332701,67.5922654 8.56036019,66.9479431 9.19643602,66.7896114 C9.83251185,66.6301801 10.4768341,67.017763 10.6351659,67.6538389 C12.168455,73.7974408 13.7836588,79.2208531 15.5632417,84.1940095 C22.6656303,82.5364739 30.4607204,80.7739336 39.9804171,78.6716398 C40.62309,78.5287014 41.2547678,78.9360758 41.3955071,79.5749005 C41.5367962,80.2148246 41.1327204,80.8487014 40.4922464,80.9899905 C30.5211943,83.1917915 22.4457251,85.0197536 15.0767014,86.7454597 C14.9854408,86.7663507 14.8941801,86.7762464 14.8045687,86.7762464 Z" id="Shape"></path>
                    <path d="M60.287564,85.7185024 C52.3533839,85.7185024 41.9551659,63.5086256 26.5716967,13.7033934 C26.3963223,13.1338389 26.670654,12.5208531 27.2132701,12.2740095 C31.8477725,10.1590711 36.8638104,8.39488152 42.5472607,6.87918483 C43.1146161,6.72854976 43.7034123,7.01277725 43.9398104,7.54714692 L44.1855545,8.10570616 C50.7376303,22.9685498 68.143128,62.4481327 68.143128,77.5858578 C68.1425782,84.7943507 63.9445877,85.7185024 60.287564,85.7185024 Z M29.1500853,14.0063128 C33.1490616,26.9251943 38.3861043,43.2570047 43.9436588,57.1099336 C53.1010616,79.9360948 58.1138009,83.3446256 60.2870142,83.3446256 C64.4360758,83.3446256 65.7681517,81.9449289 65.7681517,77.5858578 C65.7681517,63.0825592 48.2164171,23.1362275 42.1778199,9.43888152 C37.4086256,10.7533649 33.1270711,12.2547678 29.1500853,14.0063128 Z" id="Shape"></path>
                    <path d="M29.9708815,21.8058009 C29.5035829,21.8058009 29.0599242,21.5281706 28.8719052,21.0691185 C28.6228626,20.4627299 28.9125877,19.7694787 29.5195261,19.520436 C33.5635829,17.8623507 37.772019,16.4494597 41.8419147,15.0821991 C43.0689858,14.6704265 44.2944076,14.258654 45.5148815,13.8408341 C46.1322654,13.6258768 46.8101232,13.9590332 47.021782,14.5797156 C47.2339905,15.1992986 46.9035829,15.8744076 46.2829005,16.0866161 C45.0585782,16.5060853 43.8287583,16.9189573 42.5978389,17.3323791 C38.5642275,18.6869953 34.3926256,20.0883412 30.4205877,21.7161896 C30.2732512,21.7772133 30.1209668,21.8058009 29.9708815,21.8058009 Z" id="Shape"></path>
                    <path d="M31.0566635,13.1025024 C30.5893649,13.1025024 30.1462559,12.824872 29.9576872,12.3658199 C28.7998863,9.54608531 27.8900284,6.92701422 27.1736872,4.35907109 C27.0175545,3.80106161 27.2874882,3.21336493 27.8103128,2.96652133 C29.1341422,2.34199052 30.4348815,1.71800948 31.7350711,1.09347867 L33.7735924,0.116549763 C34.0704645,-0.0263886256 34.4135166,-0.0390331754 34.7191848,0.083563981 C35.0259526,0.203962085 35.2689479,0.44585782 35.389346,0.752625592 C35.7818768,1.74769668 36.2024455,2.73946919 36.6241137,3.73344076 C37.3712417,5.49323223 38.1436588,7.31129858 38.7632417,9.17389573 C38.9705024,9.79512796 38.6340474,10.4674882 38.0122654,10.6747488 C37.3910332,10.8836588 36.718673,10.5455545 36.5114123,9.92377251 C35.9209668,8.15243602 35.1677915,6.37725118 34.4393555,4.66199052 C34.176019,4.04240758 33.913782,3.42392417 33.6581422,2.804891 L32.7614787,3.23480569 C31.7559621,3.71694787 30.751545,4.19909005 29.7355829,4.68233175 C30.3815545,6.85554502 31.1759621,9.08483412 32.1534408,11.4658578 C32.4024834,12.0722464 32.1127583,12.7654976 31.5058199,13.0145403 C31.3590332,13.0739147 31.2067488,13.1025024 31.0566635,13.1025024 Z" id="Shape"></path>
                    <path d="M54.3292322,75.8810427 C53.8399431,75.8810427 53.3819905,75.5764739 53.2104645,75.0888341 C52.9916588,74.4703507 53.3165687,73.7930427 53.9345024,73.5747867 C56.0703318,72.8205118 58.1984645,71.9441896 60.257327,71.096455 C62.0006256,70.3784645 63.8043981,69.6357346 65.604872,68.9716209 C66.2178578,68.7429194 66.9023128,69.0590332 67.1293649,69.674218 C67.3564171,70.2894028 67.0419526,70.9716588 66.4267678,71.1987109 C64.6669763,71.8485308 62.8840948,72.5830142 61.1605877,73.2922085 C59.0747867,74.1514882 56.9180664,75.0393555 54.7239621,75.812872 C54.5936682,75.8596019 54.4606256,75.8810427 54.3292322,75.8810427 Z" id="Shape"></path>
                    <path d="M66.6433744,96.3025403 C66.2524929,96.3025403 65.8742559,96.1090237 65.6494028,95.7659716 C63.2046066,92.031981 61.0346919,88.6481896 59.2479621,85.0466919 C58.9565877,84.459545 59.1962844,83.7470521 59.7834313,83.4556777 C60.373327,83.1643033 61.0830711,83.4045498 61.3744455,83.9911469 C62.9704076,87.2083602 64.9083223,90.2853839 67.0875829,93.6268436 C67.2420664,93.5564739 67.3927014,93.4861043 67.5394882,93.4168341 C66.6923033,90.4997915 65.6647962,87.3529479 64.2607014,83.3732133 C64.0418957,82.7552796 64.3662559,82.0774218 64.9847393,81.8591659 C65.6021232,81.6403602 66.2816303,81.9641706 66.4987867,82.5832038 C68.0727583,87.0434313 69.1816303,90.4756019 70.0931374,93.7126066 C70.2443223,94.2497251 70.001327,94.8192796 69.5087393,95.0820664 C68.7945972,95.4619526 68.0073365,95.8308436 67.1007773,96.2101801 C66.9517915,96.2728531 66.7962085,96.3025403 66.6433744,96.3025403 Z" id="Shape"></path>
                    <path d="M28.2154882,31.3304455 C28.1506161,31.3304455 28.0851943,31.3249479 28.0192227,31.3139526 C27.4914502,31.2259905 26.9708246,31.1446256 26.4551469,31.0643602 C23.2758673,30.5668246 20.2730616,30.0967773 17.198237,28.4189005 C16.6231848,28.1049858 16.4109763,27.3842464 16.7254408,26.8086445 C17.0382559,26.2319431 17.759545,26.0202844 18.3356967,26.3358483 C21.047128,27.8147109 23.8525687,28.2539716 26.8223886,28.7185213 C27.345763,28.800436 27.8740853,28.884 28.4090047,28.9725118 C29.0560758,29.0797156 29.4931374,29.6921517 29.3848341,30.3381232 C29.2880758,30.9192227 28.7844929,31.3304455 28.2154882,31.3304455 Z" id="Shape"></path>
                    <path d="M67.8479052,39.0117346 C67.7236588,39.0117346 67.5966635,38.9924929 67.4724171,38.9507109 C66.5136303,38.6307488 65.509763,38.4289858 64.4470711,38.2156777 C62.5800758,37.8401896 60.6498578,37.4520569 58.9230521,36.3734218 C58.3672417,36.0254218 58.1984645,35.2931374 58.5453649,34.737327 C58.8928152,34.1809668 59.6261991,34.0127393 60.1814597,34.3596398 C61.5415735,35.2095735 63.1798673,35.5394313 64.9143697,35.887981 C66.0007014,36.1067867 67.1244171,36.3321896 68.2233934,36.6983318 C68.8451754,36.9055924 69.1810806,37.5779526 68.9738199,38.1997346 C68.808891,38.6972701 68.344891,39.0117346 67.8479052,39.0117346 Z" id="Shape"></path>
                    <path d="M31.593782,47.9217441 C31.4942749,47.9217441 31.392019,47.9096493 31.2908626,47.8821611 C29.4139716,47.3884739 27.492,47.0151848 25.6327014,46.6545403 C21.7420284,45.8997156 17.7183128,45.1185024 13.8567773,43.1877346 C13.2701801,42.8947109 13.0332322,42.1816682 13.3257062,41.5950711 C13.6192796,41.0084739 14.3323223,40.7720758 14.9183697,41.064 C18.4890806,42.8490806 22.17909,43.5654218 26.0857062,44.3240948 C27.9818389,44.6918863 29.9422938,45.072872 31.8956019,45.5869005 C32.5294787,45.7529289 32.9077156,46.4027488 32.7411374,47.0366256 C32.6009479,47.569346 32.1199052,47.9217441 31.593782,47.9217441 Z" id="Shape"></path>
                    <path d="M33.5586351,63.7356777 C33.5113555,63.7356777 33.4635261,63.7334787 33.4156967,63.7274313 C25.9114313,62.8269194 18.5594502,61.15509 10.9391848,58.6146351 C10.3179526,58.4073744 9.98149763,57.7350142 10.1887583,57.1132322 C10.3949194,56.492 11.0650806,56.1538957 11.6901611,56.3628057 C19.1564929,58.8510332 26.3556398,60.4887773 33.6988246,61.3700474 C34.3491943,61.4481137 34.8137441,62.039109 34.7356777,62.6900284 C34.663109,63.2925687 34.1507299,63.7356777 33.5586351,63.7356777 Z" id="Shape"></path>
                    <path d="M87.8730237,16.8656303 C87.3771374,16.8656303 86.9180853,16.5528152 86.7504076,16.061327 C86.1517156,14.3026351 85.6058009,12.5060095 85.0780284,10.7687583 L84.6860474,9.48066351 C84.4941801,8.85393365 84.8476777,8.19036967 85.4744076,7.99850237 C86.1016872,7.80663507 86.7647014,8.15903318 86.9565687,8.78686256 L87.3501991,10.0799052 C87.7658199,11.4482654 88.192436,12.855109 88.6454408,14.2394123 C91.0022749,13.6005877 93.4327773,12.938673 95.8028057,12.223981 C96.4251374,12.0359621 97.0909005,12.3894597 97.2816682,13.0183886 C97.470237,13.6456682 97.1156398,14.3081327 96.4872607,14.4972512 C94.022673,15.239981 91.5091564,15.922237 89.0781043,16.5819526 L88.1852891,16.8238483 C88.0808341,16.852436 87.9763791,16.8656303 87.8730237,16.8656303 Z" id="Shape"></path>
                </g>
            </g>
        </g>
    </g>
</svg>