<?xml version="1.0" encoding="UTF-8"?>
<svg width="29px" height="37px" viewBox="0 0 29 37" version="1.1" xmlns="http://www.w3.org/2000/svg" xmlns:xlink="http://www.w3.org/1999/xlink">
    <!-- Generator: Sketch 48.2 (47327) - http://www.bohemiancoding.com/sketch -->
    <title>book</title>
    <desc>Created with Sketch.</desc>
    <defs></defs>
    <g id="01_Orders" stroke="none" stroke-width="1" fill="none" fill-rule="evenodd" transform="translate(-48.000000, -513.000000)">
        <g id="side_bar" transform="translate(0.000000, 170.000000)" fill="#79828F" fill-rule="nonzero">
            <g id="book" transform="translate(48.000000, 343.000000)">
                <path d="M27.9556995,9.48134715 L5.73989637,9.48134715 C3.68134715,9.48134715 1.9984456,7.80595855 1.9984456,5.73989637 C1.9984456,3.68134715 3.6738342,1.9984456 5.73989637,1.9984456 L27.9632124,1.9984456 C28.519171,1.9984456 28.9624352,1.54766839 28.9624352,0.999222798 C28.9624352,0.443264249 28.511658,0 27.9632124,0 L5.73989637,0 C2.57694301,-5.33827444e-16 0,2.57694301 0,5.73989637 L0,30.7354922 C0,33.8984456 2.57694301,36.4753886 5.73989637,36.4753886 L27.9632124,36.4753886 C28.519171,36.4753886 28.9624352,36.0246114 28.9624352,35.4761658 L28.9624352,10.4805699 C28.9549223,9.93212435 28.511658,9.48134715 27.9556995,9.48134715 Z M26.9564767,34.476943 L5.73989637,34.476943 C3.68134715,34.476943 1.9984456,32.8015544 1.9984456,30.7354922 L1.9984456,10.0974093 C3.00518135,10.961399 4.31243523,11.4873057 5.73989637,11.4873057 L26.9564767,11.4873057 L26.9564767,34.476943 Z" id="Shape"></path>
                <path d="M6.05544041,4.83082902 C5.49948187,4.83082902 5.05621762,5.28160622 5.05621762,5.83005181 C5.05621762,6.37849741 5.50699482,6.82927461 6.05544041,6.82927461 L24.8227979,6.82927461 C25.3787565,6.82927461 25.8220207,6.37849741 25.8220207,5.83005181 C25.8220207,5.28160622 25.3712435,4.83082902 24.8227979,4.83082902 L6.05544041,4.83082902 Z" id="Shape"></path>
            </g>
        </g>
    </g>
</svg>