<?xml version="1.0" encoding="UTF-8"?>
<svg width="114px" height="101px" viewBox="0 0 114 101" version="1.1" xmlns="http://www.w3.org/2000/svg" xmlns:xlink="http://www.w3.org/1999/xlink">
    <!-- Generator: Sketch 48.2 (47327) - http://www.bohemiancoding.com/sketch -->
    <title>credit_card</title>
    <desc>Created with Sketch.</desc>
    <defs></defs>
    <g id="12_Select_Payment_Method" stroke="none" stroke-width="1" fill="none" fill-rule="evenodd" transform="translate(-575.000000, -285.000000)">
        <g id="card" transform="translate(555.000000, 250.000000)" fill-rule="nonzero">
            <g id="credit_card" transform="translate(20.000000, 35.000000)">
                <g id="Group" transform="translate(17.051282, 7.307692)" fill="#E0DFE6">
                    <path d="M12.8571538,62.002359 C11.4535897,62.7901282 10.6322051,64.5308205 9.61351282,65.7477949 C8.51589744,67.0592821 7.35884615,68.3235128 6.29387179,69.6603333 C5.58112821,70.5552821 6.46438462,71.9944103 7.58830769,71.3381795 C9.14582051,70.4291026 10.5552308,69.2379487 11.8097179,67.9444872 C12.9482564,66.7708718 14.6670256,65.2956923 14.9812564,63.6353846 C15.2116923,62.4208462 14.0161538,61.3519744 12.8571538,62.002359 Z" id="Shape"></path>
                    <path d="M96.5570256,27.3965385 C96.4074615,21.8972564 96.6617692,15.9629231 94.7676154,10.7452308 C94.2107692,9.21158974 92.416,8.72392308 91.2745385,9.52289744 C91.0592051,8.20312821 90.7610513,6.92623077 90.3401282,5.72923077 C90.3094359,5.64202564 90.2685128,5.56846154 90.2334359,5.48758974 C90.7844359,5.30294872 91.3115641,5.08128205 91.8036154,4.80992308 C93.5355385,3.85553846 92.8987949,1.55264103 91.2969487,0.934897436 C87.5101026,-0.526153846 82.2134872,0.823820513 78.1996154,1.04841026 C73.3214872,1.32171795 68.4448205,1.60330769 63.5627949,1.80938462 C58.9146154,2.00571795 54.2635128,2.12605128 49.6148462,2.31653846 C45.1123333,2.50117949 40.4490513,2.37597436 36.0298462,3.34010256 C34.8260256,3.60269231 34.8523333,5.4695641 36.0298462,5.74920513 C44.9617949,7.86941026 55.1399487,6.90723077 64.2599487,6.75864103 C68.9066667,6.68312821 73.5563077,6.58325641 78.1991282,6.38205128 C80.2413846,6.29338462 82.6314872,6.4054359 84.9787179,6.308 C84.9704359,6.35964103 84.9548462,6.40641026 84.9485128,6.45902564 C84.4408718,10.6892051 85.3538462,15.2345897 85.4230256,19.507641 C85.4503077,21.1898718 86.0285897,24.1636154 85.3572564,25.720641 C84.4286923,27.8734872 79.7444615,27.7205128 77.8459231,27.8983333 C73.5563077,28.3007436 69.2379487,28.3314359 64.9327436,28.3986667 C60.4648205,28.4683333 55.8146923,29.1294359 51.3774615,28.956 C50.7036923,28.9296923 50.1794872,29.1732821 49.8097179,29.5562051 C51.0778462,26.4328974 51.5138718,22.8453077 50.401641,20.026 C49.8477179,18.6219487 48.1645128,18.3608205 47.277359,19.6177436 C44.745,23.2053333 45.3978205,28.1087949 41.7722308,31.0864359 C40.1435897,32.4237436 38.6425897,33.1754615 38.076,35.3750769 C37.506,37.5893077 38.0248462,39.9881795 37.5951538,42.2486923 C36.6665897,47.1292564 34.0036667,51.5197179 30.1208462,54.6157436 C25.6811795,58.1560769 20.8127949,58.5984359 15.4845128,59.7135897 C15.0007436,59.8149231 14.9247436,60.5364359 15.3471282,60.7649231 C19.9938462,63.2782821 26.1181795,62.1144103 30.7376154,60.0760513 C35.9869744,57.76 39.8527436,53.3675897 42.0518718,48.1294359 C43.0842051,45.670641 43.6605385,43.0764103 43.8315385,40.4139744 C43.9007179,39.3382821 43.4695641,37.5742051 44.0327436,36.6290769 C44.5072564,35.8325385 46.088641,35.1417179 46.7667949,34.4284872 C47.6831795,33.464359 48.5113846,32.2444615 49.1939231,30.8949744 C49.0696923,31.9307179 49.5680769,33.0624359 50.7748205,33.4112564 C51.0028205,33.4770256 51.2356923,33.5340256 51.4680769,33.5924872 C49.0784615,34.3773333 46.8885897,35.5986923 46.1110513,36.5637949 C45.1693333,37.7330256 45.3832051,39.6257179 47.0323077,40.0524872 C47.2081795,40.0977949 47.3791795,40.1314103 47.5482308,40.1596667 C46.6118718,40.7895897 45.6682051,41.4097692 44.7411026,42.0494359 C43.4466667,42.9424359 43.9893846,44.5579231 45.2516667,44.8487692 C45.1279231,45.0670256 45.0251282,45.2964872 44.9725128,45.5449487 C43.7652821,51.2386154 40.0286154,55.8380769 35.0277179,58.7392308 C32.0744359,60.452641 28.8658718,61.5112821 25.5759487,62.3594615 C22.832641,63.0668462 19.6226154,63.1569744 17.1438462,64.5278974 C16.3546154,64.9644103 16.3063846,66.2617692 17.1438462,66.6851282 C20.1721538,68.215359 24.2883333,67.7286667 27.5563333,67.2609744 C31.5424359,66.6904872 35.435,65.3994615 38.9158974,63.3601282 C44.2802308,60.2178205 48.4792308,55.3250769 50.3850769,49.4428718 C54.15,49.2728462 57.9982308,48.5810513 60.7352051,45.7851282 C62.3263333,44.1598974 63.2300513,42.2136154 63.4254103,40.1811026 C68.0745641,40.3827949 72.7246923,40.3915641 77.3743333,40.0607692 C82.0926667,39.7251026 87.9870513,39.5818718 92.3653333,37.6930769 C96.7840513,35.7872308 96.6700513,31.5575385 96.5570256,27.3965385 Z M52.1681538,42.9317179 C52.7050256,42.6759487 53.2360513,42.4055641 53.7568462,42.1156923 C54.8188974,41.5252308 56.2336667,40.741359 57.3926667,39.7645641 C57.3327436,41.6728462 54.7014872,42.5405128 52.1681538,42.9317179 Z M88.4756923,31.6418205 C88.8673846,31.3621795 89.2157179,31.0533077 89.5197179,30.7142308 C89.3618718,31.2749744 89.0291282,31.5034615 88.4756923,31.6418205 Z" id="Shape"></path>
                    <path d="M33.6548462,24.7993846 C32.9382051,22.3050256 29.8377949,22.1807949 28.4634615,24.1207436 C27.4208974,25.5920256 26.4397179,27.0964359 25.4590256,28.6096154 C24.5699231,29.9805385 23.535641,31.4596154 23.307641,33.1087179 C23.2365128,33.6212308 23.598,34.0947692 24.1567949,33.9578718 C25.5126154,33.6261026 26.6725897,32.7594103 27.759,31.8771282 C27.8111282,31.9234103 27.8578974,31.977 27.9129487,32.0184103 C29.1693846,32.9572051 30.6762308,32.7745128 31.8464359,31.7840769 C33.8068462,30.1252308 34.338359,27.1777949 33.6548462,24.7993846 Z" id="Shape"></path>
                    <path d="M12.1117692,70.9732821 C11.1364359,70.1923333 9.74261538,70.1952564 9.04010256,71.3688718 C7.98048718,73.1392821 8.1865641,74.5944872 8.61966667,76.5690256 C8.89735897,77.8347179 9.11123077,78.9264872 9.10392308,79.9783077 C7.02269231,81.0734872 5.25958974,82.503359 3.40879487,83.9512564 C2.46512821,84.6898205 3.68453846,86.2312564 4.68325641,85.6032821 C5.8685641,84.8578974 7.02853846,84.1344359 8.14076923,83.3374103 C8.05502564,83.4825897 7.96294872,83.6292308 7.8635641,83.7778205 C6.73720513,85.4595641 5.1275641,87.1890513 3.54910256,88.4698462 C2.72089744,89.1416667 1.02015385,89.229359 0.457461538,90.0327179 L0.25625641,90.3201538 C0.0316666667,90.6407179 0.057974359,91.1454359 0.25625641,91.4689231 C2.97130769,95.8978718 10.1679231,89.6088718 12.2715641,87.1793077 C15.8089744,83.0943077 16.7886923,74.7182308 12.1117692,70.9732821 Z" id="Shape"></path>
                </g>
                <g id="Group" fill="#404D5F">
                    <path d="M64.0718974,42.5561026 C63.4945897,42.5561026 63.0249487,42.0913333 63.0200769,41.5130513 C63.0152051,40.9323333 63.4824103,40.4568462 64.0631282,40.4524615 L101.624667,40.1382308 C103.101308,40.1265385 104.526308,39.4961282 105.536231,38.4097179 C106.54859,37.3194103 107.076205,35.8437436 106.985103,34.3612564 C106.694744,29.6628974 106.559795,24.5767436 106.559795,18.354 C106.559795,14.8935641 106.599256,11.4418974 106.647974,7.61217949 C106.666487,6.15697436 106.090641,4.731 105.067564,3.70061538 C104.058615,2.68387179 102.663333,2.10364103 101.233462,2.10364103 C101.216897,2.10364103 101.201308,2.10364103 101.185718,2.10364103 L56.8246154,2.51530769 C53.8484359,2.5435641 51.4442051,5.00041026 51.4646667,7.99217949 L51.6532051,35.1085897 C51.6551538,35.4374359 51.6873077,35.7687179 51.7491795,36.0931795 C51.8573333,36.6641538 51.4822051,37.2141795 50.9117179,37.3223333 C50.3378205,37.4275641 49.7902308,37.0558462 49.6825641,36.4848718 C49.5977949,36.0361795 49.5529744,35.5782308 49.5495641,35.1236923 L49.3610256,8.00728205 C49.3322821,3.85797436 52.6718974,0.450641026 56.8056154,0.411666667 L101.166718,-5.42101086e-20 C103.145154,-0.0116923077 105.144051,0.790205128 106.561744,2.21861538 C107.979436,3.648 108.777923,5.62351282 108.75259,7.638 C108.703872,11.4613846 108.66441,14.9057436 108.66441,18.3535128 C108.66441,24.5319231 108.797897,29.5771538 109.085333,34.2311795 C109.212,36.2856154 108.479769,38.3303077 107.078154,39.8405641 C105.675564,41.3498462 103.694692,42.2248205 101.642205,42.2413846 C101.641718,42.2418718 64.0806667,42.5561026 64.0718974,42.5561026 Z" id="Shape"></path>
                    <path d="M50.4225897,10.564 C49.8857179,10.564 49.4267949,10.1542821 49.3771026,9.60864103 C49.3230256,9.03084615 49.7488205,8.51833333 50.3275897,8.46523077 C50.5555897,8.44379487 50.787,8.42820513 51.0218205,8.42089744 C60.1954103,8.11835897 69.5180769,8.07694872 78.5343077,8.03748718 C88.0796154,7.99558974 97.950359,7.95174359 107.649128,7.59805128 C108.211333,7.57125641 108.717513,8.03017949 108.738462,8.61089744 C108.759897,9.19161538 108.306333,9.67928205 107.725615,9.70023077 C97.9927436,10.0558718 88.1054359,10.0987436 78.5430769,10.1411282 C69.5419487,10.1810769 60.2348718,10.222 51.0900256,10.5230769 C50.8961282,10.5294103 50.7071026,10.5420769 50.5205128,10.5591282 C50.4873846,10.5625385 50.4552308,10.564 50.4225897,10.564 Z" id="Shape"></path>
                    <path d="M50.4688718,17.0693077 C49.8935128,17.0693077 49.4238718,16.6064872 49.4170513,16.0296667 C49.4102308,15.4489487 49.8759744,14.9724872 50.4566923,14.9656667 C64.6267949,14.8019744 79.0385385,14.3732564 92.9762564,13.959641 C97.85,13.8144615 102.723744,13.6697692 107.597487,13.5357949 C108.194769,13.5353077 108.661487,13.9869231 108.677564,14.5583846 C108.694128,15.1391026 108.235692,15.6223846 107.654974,15.6384615 C102.783179,15.7734103 97.9108974,15.9176154 93.0386154,16.0623077 C79.0921282,16.4764103 64.6701538,16.9051282 50.4688718,17.0693077 Z" id="Shape"></path>
                    <path d="M88.4045641,35.2635128 C87.8496667,35.2635128 87.3878205,34.8308974 87.3556667,34.2725897 C87.261641,32.6517436 87.2158462,31.0221282 87.172,29.4456154 C87.1325385,28.0191538 87.0911282,26.5449487 87.014641,25.0868205 C86.9878462,24.5738205 87.3352051,24.116359 87.8355385,24.0047949 C90.9554359,23.3086154 94.1800769,23.2550256 97.299,23.2038718 C98.5335128,23.1838974 99.8113846,23.1629487 101.060026,23.1015641 C101.340641,23.0918205 101.614923,23.1863333 101.821487,23.3763333 C102.028051,23.565359 102.150821,23.8298974 102.162513,24.1095385 C102.235103,25.9121026 102.376872,27.7711795 102.514744,29.5688718 C102.614615,30.8793846 102.714487,32.186 102.789513,33.4804359 C102.821179,34.0138974 102.446538,34.4864615 101.919897,34.5775641 C98.7493333,35.1295385 95.5159231,35.1597436 92.3882308,35.1889744 C91.0947692,35.2006667 89.7574615,35.2138205 88.4459744,35.2630256 C88.431359,35.2635128 88.4182051,35.2635128 88.4045641,35.2635128 Z M89.1587179,25.8828718 C89.2098718,27.0642821 89.243,28.2413077 89.2751538,29.3871538 C89.3092564,30.614359 89.3443333,31.8742051 89.4023077,33.1286923 C90.4000513,33.1038462 91.3963333,33.0945897 92.3672821,33.0853333 C95.2221538,33.0585385 97.9347692,33.0332051 100.629359,32.6512564 C100.565538,31.6822564 100.491,30.7064359 100.416462,29.7291538 C100.30441,28.2573846 100.188462,26.7456667 100.109051,25.245641 C99.1751282,25.2773077 98.2431538,25.2924103 97.3331026,25.3075128 C94.4933333,25.3542821 91.794359,25.3986154 89.1587179,25.8828718 Z" id="Shape"></path>
                    <path d="M96.3753077,35.1699744 C96.2164872,35.1699744 96.0547436,35.1344103 95.9032308,35.0574359 C94.4548462,34.3295897 92.0316154,33.1106667 92.0316154,29.9215897 C92.0316154,27.0428462 94.1834872,24.382359 96.9306923,23.8654615 C97.4963077,23.7524359 98.0516923,24.1324359 98.1583846,24.7043846 C98.2660513,25.2748718 97.8904359,25.8248974 97.3194615,25.9320769 C95.5938718,26.2575128 94.1352564,28.0844359 94.1352564,29.9215897 C94.1352564,31.6744615 95.3113077,32.4052308 96.848359,33.1783846 C97.3672051,33.4390256 97.5762051,34.0713846 97.3155641,34.5902308 C97.1304359,34.9580513 96.7601795,35.1699744 96.3753077,35.1699744 Z" id="Shape"></path>
                    <path d="M88.5102821,30.6543077 C87.9295641,30.6543077 87.4584615,30.1832051 87.4584615,29.6024872 C87.4584615,29.0217692 87.9295641,28.5506667 88.5102821,28.5506667 C90.0098205,28.5506667 91.5605128,28.5506667 93.0717436,28.5131538 C93.645641,28.5263077 94.1352564,28.9584359 94.1493846,29.5391538 C94.1630256,30.1198718 93.7041026,30.6026667 93.1233846,30.6167949 C91.5863333,30.6543077 90.022,30.6543077 88.5102821,30.6543077 Z" id="Shape"></path>
                    <path d="M38.4720769,71.3669231 C35.4720256,71.3669231 32.1889231,70.9528205 28.7153333,70.1358205 C28.1502051,70.0028205 27.7999231,69.4367179 27.9324359,68.8711026 C28.0644615,68.3059744 28.6261795,67.9547179 29.1971538,68.0882051 C32.5128974,68.8681795 35.6337692,69.2632821 38.4720769,69.2632821 C51.3594359,69.2632821 59.0534615,60.857 59.0534615,46.7760513 C59.0534615,46.1056923 59.0115641,45.3174359 58.9915897,44.9393846 C58.9842821,44.7946923 58.9798974,44.7011538 58.9798974,44.6772821 C58.9798974,44.517 58.9862308,44.3601282 58.9930513,44.2061795 C59.0096154,43.8222821 59.2356667,43.477359 59.5805897,43.3083077 C62.7540769,41.7522564 66.9735385,38.7682821 66.9735385,30.8491795 C66.9735385,28.9131282 66.0893077,25.6631538 65.3224872,24.9806154 C62.7686923,27.3351538 49.7551538,39.2018718 39.4673846,46.0920513 C38.9841026,46.4145641 38.3307949,46.2859487 38.0082821,45.803641 C37.6852821,45.3208462 37.8138974,44.6675385 38.2966923,44.3445385 C49.5593077,36.8010513 64.1849231,23.1687949 64.3315641,23.0314103 C64.5269231,22.8492051 64.7836667,22.7478718 65.0496667,22.7478718 C68.7142308,22.7478718 69.0776667,30.7683077 69.0776667,30.8491795 C69.0776667,37.4397436 66.4649231,42.041641 61.0962051,44.8965128 C61.1181282,45.3140256 61.1571026,46.0896154 61.1571026,46.7765385 C61.1571026,62.1743333 52.6767692,71.3669231 38.4720769,71.3669231 Z" id="Shape"></path>
                    <path d="M60.5437436,53.6150769 C60.3659231,53.6150769 60.1890769,53.6121538 60.0136923,53.6067949 C59.4329744,53.5902308 58.976,53.1054872 58.9935385,52.5247692 C59.0105897,51.9450256 59.4792564,51.457359 60.0755641,51.5046154 C60.2304872,51.5085128 60.3863846,51.5114359 60.5442308,51.5114359 C65.4886154,51.5114359 73.3322051,49.0029487 73.3322051,42.2730513 C73.3322051,42.1298205 73.3287949,41.9856154 73.3214872,41.8394615 C73.2922564,41.2592308 73.739,40.7652308 74.3192308,40.7364872 C74.903359,40.7267436 75.3929744,41.1535128 75.4222051,41.7342308 C75.4309744,41.9154615 75.4358462,42.0957179 75.4358462,42.2730513 C75.4358462,45.8304359 73.6712821,48.824641 70.332641,50.9316923 C67.6302564,52.6368205 64.0621538,53.6150769 60.5437436,53.6150769 Z" id="Shape"></path>
                    <path d="M71.0936154,49.4686923 C70.6634359,49.4686923 70.2595641,49.2031795 70.104641,48.7749487 C69.8917436,48.1874103 69.7231795,47.5657692 69.5609487,46.9650769 C69.1371026,45.3997692 68.736641,43.9206923 67.6258718,43.0276923 C67.1723077,42.6642564 67.1006923,42.0016923 67.4651026,41.5491026 C67.8295128,41.0950513 68.4930513,41.0253846 68.9436923,41.3883333 C70.5884103,42.7100513 71.1213846,44.6787436 71.592,46.4155385 C71.7503333,47.0001538 71.8998974,47.5535897 72.0830769,48.0592821 C72.2808718,48.6058974 71.9983077,49.2090256 71.4521795,49.4063333 C71.3333077,49.4487179 71.2129744,49.4686923 71.0936154,49.4686923 Z" id="Shape"></path>
                    <path d="M66.0366923,52.8545897 C65.4856923,52.8545897 65.0223846,52.4258718 64.9877949,51.8685385 C64.8206923,49.185641 62.8544359,46.6937179 60.9529744,44.6095641 C60.5617692,44.1808462 60.5919744,43.515359 61.0216667,43.1236667 C61.4494103,42.7348974 62.1158718,42.7626667 62.5075641,43.1918718 C64.6560256,45.5464103 66.88,48.4032308 67.0875385,51.737 C67.1235897,52.3167436 66.6826923,52.8161026 66.1034359,52.852641 C66.0805385,52.8541026 66.0586154,52.8545897 66.0366923,52.8545897 Z" id="Shape"></path>
                    <path d="M1.05279487,69.9755385 C0.691307692,69.9755385 0.339076923,69.7884615 0.143230769,69.4537692 C-0.149076923,68.9519744 0.019974359,68.3079231 0.521769231,68.0151282 C18.6458205,57.4433333 18.6872308,56.7841795 19.1982821,48.7135641 C19.3683077,46.042359 19.5782821,42.7168718 20.4016154,38.0876923 C20.5565385,37.2146667 20.6646923,36.4049744 20.7684615,35.6225641 C21.812,27.7853077 23.4357692,25.2149487 50.5512051,23.3149487 C51.1251026,23.2657436 51.6327436,23.7115128 51.6736667,24.2907692 C51.7145897,24.8700256 51.2775897,25.3727949 50.6978462,25.4132308 C24.0018718,27.284 23.6886154,29.6302564 22.8540769,35.9007436 C22.7473846,36.7055641 22.6363077,37.5381538 22.4726154,38.4564872 C21.6707179,42.9692308 21.464641,46.2284615 21.2980256,48.8470513 C20.7270513,57.8623077 20.1434103,59.0062051 1.58187179,69.8332821 C1.41574359,69.9297436 1.23305128,69.9755385 1.05279487,69.9755385 Z" id="Shape"></path>
                    <path d="M24.2742051,81.2634872 C24.0155128,81.2634872 23.7563333,81.1689744 23.5536667,80.978 C23.1303077,80.5799744 23.1098462,79.9144872 23.5078718,79.4911282 C27.0998462,75.6706667 30.6913333,72.3992564 34.1839231,69.7675128 C34.6462564,69.4182051 35.3068718,69.5097949 35.6571538,69.9750513 C36.0064615,70.4388462 35.9138974,71.098 35.4496154,71.4482821 C32.053,74.0079231 28.5511538,77.1984615 25.0405385,80.9322051 C24.8334872,81.1528974 24.5543333,81.2634872 24.2742051,81.2634872 Z" id="Shape"></path>
                    <path d="M18.0938462,98.9490769 C17.8254103,98.9490769 17.5569744,98.8472564 17.3513846,98.6431282 C16.9397179,98.2329231 16.9382564,97.5674359 17.3479744,97.1552821 C20.6822308,93.8064103 24.2600769,90.8141538 27.943641,87.8243333 C27.6756923,87.5203333 27.4087179,87.1914872 27.1592821,86.8387692 C25.4609744,84.4296667 23.8284359,82.0717179 22.2212308,79.7512821 C18.7939231,74.8015385 15.5566154,70.1270513 12.0094615,65.4179744 C11.6601538,64.9541795 11.7527179,64.2950256 12.217,63.9447436 C12.6812821,63.5954359 13.3399487,63.6870256 13.6902308,64.1522821 C17.2627179,68.8944872 20.5112308,73.5860256 23.9507179,78.5537949 C25.555,80.8698462 27.1841282,83.2229231 28.8790256,85.6271538 C29.2892308,86.2093333 29.7954103,86.7442564 30.2367949,87.2002564 C30.4423846,87.4126667 30.5490769,87.7005897 30.5310513,87.9958205 C30.5130256,88.2905641 30.3722308,88.564359 30.1427692,88.7499744 C26.1961282,91.9419744 22.3625128,95.100359 18.8387436,98.6406923 C18.6341282,98.8457949 18.3637436,98.9490769 18.0938462,98.9490769 Z" id="Shape"></path>
                    <path d="M20.6495897,90.9252308 C20.6188974,90.9252308 20.5877179,90.9252308 20.5570256,90.9237692 C18.8246154,90.8804103 17.4765897,89.604 17.4239744,87.9553846 C17.3957179,87.0662821 17.8034872,86.2200513 18.5703077,85.5730769 C19.404359,84.8686154 20.4410769,84.5451282 21.4154359,84.6844615 C22.9125385,84.8993077 23.9667949,86.151359 23.9814103,87.7278718 C23.9896923,88.5385385 23.6418462,89.3506667 23.0275128,89.9557436 C22.3897949,90.5832308 21.5479487,90.9252308 20.6495897,90.9252308 Z M19.9275897,87.1802821 C19.8028718,87.2850256 19.5159231,87.5636923 19.5261538,87.8891282 C19.5432051,88.4138205 19.9992051,88.806 20.6111026,88.8211026 C21.0924359,88.8459487 21.4081282,88.5979744 21.5518462,88.4552308 C21.7613333,88.2491538 21.8806923,87.9909487 21.8777692,87.747359 C21.8728974,87.2007436 21.5888718,86.8343846 21.1177692,86.7666667 C20.7445897,86.7179487 20.2915128,86.8728718 19.9275897,87.1802821 Z" id="Shape"></path>
                </g>
            </g>
        </g>
    </g>
</svg>