<?xml version="1.0" encoding="UTF-8"?>
<svg width="110px" height="89px" viewBox="0 0 110 89" version="1.1" xmlns="http://www.w3.org/2000/svg" xmlns:xlink="http://www.w3.org/1999/xlink">
    <!-- Generator: Sketch 48.2 (47327) - http://www.bohemiancoding.com/sketch -->
    <title>donation</title>
    <desc>Created with Sketch.</desc>
    <defs></defs>
    <g id="07_Add_Gift_?" stroke="none" stroke-width="1" fill="none" fill-rule="evenodd" transform="translate(-670.000000, -295.000000)">
        <g id="card" transform="translate(605.000000, 250.000000)">
            <g id="donation" transform="translate(65.000000, 45.000000)">
                <path d="M101.8675,32.549 C101.6845,32.2585 101.3635,32.12 101.044,32.113 C100.7865,31.1375 100.455,30.1805 100.0225,29.2605 C99.509,28.1675 97.8375,28.754 97.834,29.8535 C97.8075,37.4325 95.0205,43.138 89.7265,48.3925 C89.1645,48.95 88.9365,49.6125 88.947,50.262 C86.4925,50.928 83.8825,51.073 81.1425,51.099 C80.541,51.1045 80.0135,51.269 79.5505,51.5245 C77.6505,50.788 75.1995,51.9925 74.929,54.5785 C74.8705,55.1385 74.9305,55.899 74.989,56.7185 C74.3325,56.806 73.656,57.08 73.0095,57.5935 C73.4475,57.246 69.488,55.736 68.8745,55.515 C67.0305,54.851 65.133,54.3885 63.199,54.0805 C59.417,53.4785 55.6295,53.487 51.8475,54.0795 C45.671,55.0465 36.2355,58.162 33.748,64.5625 C33.677,64.7455 33.662,64.95 33.68,65.1585 C32.493,64.0135 31.2695,62.905 30.016,61.8735 C28.926,60.9765 27.6695,60.934 26.6415,61.373 C25.171,59.553 23.66,57.768 22.0275,56.0905 C20.9655,54.999 19.4975,56.3795 20.0505,57.616 C21.975,61.923 24.4825,66.112 27.069,70.0515 C28.2485,71.848 29.3355,73.9795 30.7685,75.689 C30.5885,75.923 30.416,76.1515 30.2655,76.3675 C29.0935,78.049 27.902,79.7 26.902,81.4915 C26.1815,82.7825 27.8135,83.9305 28.879,83.017 C30.632,81.5145 32.2225,79.821 33.808,78.134 C33.8885,78.171 33.9705,78.205 34.053,78.239 C32.407,81.332 31.4955,84.705 32.018,88.15 C32.1915,89.294 33.7255,89.2065 34.257,88.4425 C36.0785,85.826 37.263,82.8415 38.9,80.1155 C40.6705,77.167 42.953,74.7045 45.6125,72.542 C46.5775,71.757 46.4755,70.3445 46.0245,69.349 C45.8,68.8535 45.543,68.395 45.2705,67.9505 C49.044,65.188 53.24,62.7045 58.053,63.4535 C61.6305,64.01 64.845,65.7895 68.172,67.2245 C71.228,69.553 75.3025,69.7305 78.3765,67.1525 C80.8675,65.0635 82.1035,61.7515 82.2,58.4515 C95.2805,59.299 110.1875,45.7585 101.8675,32.549 Z M38.716,71.853 C38.718,71.825 38.724,71.7975 38.725,71.769 C38.7905,70.272 37.575,69.171 36.6475,68.176 C36.2315,67.73 35.8035,67.2875 35.374,66.846 C35.657,66.886 35.94,66.9255 36.2235,66.9655 C36.768,67.042 37.4565,66.743 37.6605,66.2255 C37.8655,66.1425 38.07,66.0565 38.273,65.9655 C38.228,66.389 38.4955,66.7655 38.8695,66.957 C38.7585,67.8165 39.0535,68.7655 39.619,69.3375 C39.901,69.623 40.1395,69.9065 40.3635,70.195 C39.8065,70.7215 39.256,71.277 38.716,71.853 Z" id="Shape" fill="#E0DFE6" fill-rule="nonzero"></path>
                <path d="M75.2765,45.996 C71.9625,45.996 71.957,51.146 75.2765,51.146 C78.5905,51.146 78.596,45.996 75.2765,45.996 Z" id="Shape" fill="#E0DFE6" fill-rule="nonzero"></path>
                <path d="M73.8385,19.9175 C65.8025,18.815 57.358,18.055 49.265,18.9615 C47.5535,19.153 47.005,21.549 48.8405,22.097 C55.065,23.9555 61.616,25.1285 68.078,26.1805 C68.2265,26.549 68.425,26.919 68.7145,27.2815 C68.9535,27.581 69.193,27.8805 69.432,28.18 C71.2995,30.518 74.582,28.8145 75.445,26.5925 C75.7405,25.8315 76.036,25.0705 76.332,24.309 C76.9675,22.6725 75.6175,20.1615 73.8385,19.9175 Z" id="Shape" fill="#E0DFE6" fill-rule="nonzero"></path>
                <path d="M66.5605,28.252 C64.046,28.4795 61.584,28.846 59.0475,28.761 C56.425,28.6735 53.9235,28.055 51.353,27.5935 C48.848,27.1435 46.859,29.5025 48.0735,31.8595 C49.539,34.7035 49.1225,38.522 49.7425,41.6205 C50.0165,42.988 51.961,42.8055 52.333,41.6205 C53.058,39.3125 52.9685,36.972 53.038,34.642 C57.6595,36.202 62.971,36.4665 67.523,35.3655 C71.405,34.426 70.691,27.878 66.5605,28.252 Z" id="Shape" fill="#E0DFE6" fill-rule="nonzero"></path>
                <path d="M86.4295,10.3615 C84.653,9.503 82.7415,8.968 80.962,8.1195 C78.211,6.808 76.7175,4.702 74.8995,2.3195 C74.0375,1.19 72.397,2.1195 72.988,3.437 C74.547,6.9145 75.8475,10.0235 79.1935,12.108 C80.719,13.0585 82.4,13.707 83.9735,14.564 C85.965,15.6485 86.8715,16.7125 87.583,18.475 C87.3665,18.4975 87.143,18.5425 86.9085,18.6355 C85.2805,19.28 83.587,19.786 81.8335,19.923 C80.277,20.0445 78.619,19.741 77.13,20.21 C76.1885,20.5065 75.8505,21.674 76.552,22.3985 C79.2345,25.168 84.9495,24.564 88.34,23.83 C89.6675,23.5425 90.227,22.5135 90.237,21.4315 C91.577,21.532 92.9935,20.617 93.1145,18.9015 C93.3905,14.9735 89.653,11.9195 86.4295,10.3615 Z" id="Shape" fill="#E0DFE6" fill-rule="nonzero"></path>
                <path d="M47.049,20.7095 C47.0025,19.4755 44.979,19.0525 44.775,20.402 C43.854,26.498 42.4575,32.574 40.7845,38.523 C40.1765,39.0055 39.7765,39.7605 39.8275,40.8095 C39.848,41.226 39.868,41.6425 39.8885,42.059 C40.0455,45.278 45.319,46.43 45.86,42.867 C46.9845,35.459 47.3315,28.1935 47.049,20.7095 Z" id="Shape" fill="#E0DFE6" fill-rule="nonzero"></path>
                <g id="Group">
                    <path d="M1.1105,61.955 C0.8545,61.955 0.5975,61.867 0.388,61.6875 C-0.0775,61.2885 -0.132,60.587 0.2675,60.1215 C4.629,55.0325 8.3675,51.1995 12.032,48.0585 C12.4975,47.659 13.199,47.712 13.598,48.179 C13.9975,48.6445 13.9435,49.346 13.4775,49.745 C9.9015,52.81 6.2395,56.567 1.954,61.567 C1.7345,61.8235 1.423,61.955 1.1105,61.955 Z" id="Shape" fill="#404D5F" fill-rule="nonzero"></path>
                    <path d="M15.739,45.2355 C15.534,45.2355 15.326,45.1785 15.1405,45.06 C14.624,44.729 14.4735,44.0415 14.805,43.5255 C16.913,40.2365 18.692,36.134 20.5755,31.7905 C26.269,18.6605 32.7225,3.779 51.44,3.779 C51.969,3.779 61.154,4.692 70.1235,6.409 C86.979,9.635 88.9285,12.926 88.9285,15.1205 C88.9285,18.997 84,20.7325 79.1155,20.7325 C75.127,20.7325 71.116,20.1155 67.237,19.519 C63.4415,18.9355 59.5175,18.332 55.7005,18.332 C53.5455,18.332 51.5915,18.5185 49.7265,18.903 C49.123,19.025 48.5375,18.6395 48.414,18.039 C48.2905,17.438 48.677,16.8505 49.278,16.7265 C51.2925,16.312 53.393,16.11 55.7005,16.11 C59.6875,16.11 63.697,16.7265 67.575,17.323 C71.3715,17.9065 75.2965,18.5105 79.1155,18.5105 C82.0505,18.5105 86.707,17.59 86.707,15.12 C86.707,14.577 85.8965,11.7115 69.8995,8.6275 C60.8645,6.8855 51.8945,6.0195 51.4175,6 C34.1815,6.0005 28.0365,20.1715 22.6145,32.674 C20.6945,37.102 18.8805,41.2845 16.6755,44.724 C16.4635,45.0555 16.105,45.2355 15.739,45.2355 Z" id="Shape" fill="#404D5F" fill-rule="nonzero"></path>
                    <path d="M48.5235,43.618 C48.041,43.618 47.597,43.3015 47.457,42.815 C45.9315,37.5345 45.158,31.9225 45.158,26.1355 C45.158,23.3875 45.336,20.5975 45.6875,17.8435 C45.7655,17.2345 46.3205,16.8045 46.93,16.8825 C47.5385,16.96 47.969,17.5165 47.891,18.125 C47.5515,20.786 47.3795,23.481 47.3795,26.1355 C47.3795,31.714 48.1235,37.1185 49.591,42.1985 C49.7615,42.788 49.422,43.4035 48.8325,43.574 C48.729,43.604 48.6255,43.618 48.5235,43.618 Z" id="Shape" fill="#404D5F" fill-rule="nonzero"></path>
                    <path d="M35.7295,70.1745 C35.4375,70.1745 35.145,70.06 34.927,69.8315 C34.503,69.3885 34.518,68.685 34.9615,68.261 C38.7005,64.681 48.3975,56.355 57.6625,56.355 C61.384,56.355 64.2795,57.8555 66.834,59.18 C69.024,60.3155 70.9155,61.2955 73.02,61.2955 C75.645,61.2955 76.81,58.8825 76.81,57.9655 C76.81,53.564 70.623,44.475 51.497,44.475 C48.3325,44.475 44.984,44.7455 41.545,45.279 C40.937,45.3695 40.3715,44.9575 40.277,44.3515 C40.183,43.745 40.598,43.1775 41.2045,43.0835 C44.7555,42.533 48.2185,42.2535 51.497,42.2535 C71.5565,42.2535 79.032,51.891 79.032,57.966 C79.032,60.284 76.745,63.5175 73.02,63.5175 C70.374,63.5175 68.1575,62.369 65.811,61.1525 C63.368,59.886 60.8425,58.577 57.662,58.577 C51.7925,58.577 43.8805,62.797 36.497,69.866 C36.2825,70.072 36.006,70.1745 35.7295,70.1745 Z" id="Shape" fill="#404D5F" fill-rule="nonzero"></path>
                    <path d="M30.022,85.636 C29.8465,85.636 29.668,85.594 29.502,85.506 C28.96,85.218 28.7545,84.5455 29.042,84.004 C31.3535,79.6535 34.3705,75.5695 38.0225,71.8455 C30.167,67.122 23.4365,60.6645 16.917,54.4095 L15.2835,52.844 C14.84,52.42 14.8245,51.717 15.2485,51.2735 C15.673,50.83 16.3765,50.8155 16.819,51.2385 L18.455,52.8065 C25.2215,59.2985 32.2185,66.0115 40.378,70.6495 C40.682,70.8225 40.887,71.1285 40.931,71.475 C40.9755,71.8215 40.8535,72.1695 40.6025,72.4125 C36.6505,76.2465 33.421,80.4975 31.0045,85.0465 C30.8045,85.4215 30.4195,85.636 30.022,85.636 Z" id="Shape" fill="#404D5F" fill-rule="nonzero"></path>
                    <path d="M43.4715,69.7425 C43.1495,69.7425 42.831,69.6035 42.611,69.335 C42.2225,68.86 42.293,68.16 42.7675,67.772 C45.1535,65.8205 48.154,65.4005 50.203,65.254 C50.8235,65.1985 51.3465,65.671 51.39,66.283 C51.434,66.895 50.973,67.4265 50.361,67.47 C47.5835,67.6685 45.6175,68.311 44.1735,69.492 C43.9675,69.6605 43.719,69.7425 43.4715,69.7425 Z" id="Shape" fill="#404D5F" fill-rule="nonzero"></path>
                    <path d="M34.913,63.1065 C34.7815,63.1065 34.648,63.083 34.518,63.0335 C30.8325,61.6295 28.209,58.82 25.6725,56.1035 L25.1965,55.5945 C24.7765,55.147 24.7995,54.444 25.247,54.0245 C25.6955,53.6045 26.3985,53.628 26.817,54.075 L27.296,54.5875 C29.66,57.119 32.1045,59.737 35.309,60.9575 C35.882,61.176 36.17,61.8175 35.9515,62.391 C35.7825,62.834 35.3605,63.1065 34.913,63.1065 Z" id="Shape" fill="#404D5F" fill-rule="nonzero"></path>
                    <path d="M85.914,55.268 C85.8935,55.268 85.873,55.268 85.8525,55.268 C81.224,55.251 76.8815,53.4125 73.6255,50.0915 C70.4175,46.82 68.6195,42.3685 68.6915,37.8795 C68.7325,35.2755 69.4015,32.6715 70.6255,30.349 C70.912,29.8065 71.5835,29.5985 72.126,29.884 C72.669,30.17 72.877,30.842 72.591,31.3845 C71.529,33.3995 70.9485,35.6575 70.913,37.9145 C70.85,41.814 72.417,45.685 75.2115,48.5355 C78.0485,51.4295 81.8305,53.031 85.8605,53.0455 C85.878,53.0455 85.8965,53.0455 85.9135,53.0455 C89.861,53.046 93.7705,51.388 96.648,48.492 C99.5035,45.6185 101.055,41.9205 101.016,38.079 C100.976,34.1675 99.423,30.542 96.644,27.8705 C93.692,25.0335 89.576,23.543 85.065,23.676 C84.558,23.691 84.0265,23.7325 83.485,23.7995 C80.454,24.1675 77.6765,25.482 75.4495,27.601 C75.005,28.0235 74.3015,28.0065 73.879,27.5625 C73.456,27.118 73.4735,26.415 73.9175,25.992 C76.493,23.541 79.708,22.0205 83.2145,21.5945 C83.8215,21.5195 84.423,21.4725 84.999,21.4555 C90.1115,21.3085 94.798,23.015 98.183,26.2695 C101.3955,29.3575 103.1905,33.544 103.237,38.057 C103.282,42.498 101.501,46.76 98.223,50.059 C94.933,53.3715 90.4485,55.268 85.914,55.268 Z" id="Shape" fill="#404D5F" fill-rule="nonzero"></path>
                    <path d="M74.3075,9.4855 C73.9105,9.4855 73.526,9.272 73.326,8.897 C72.863,8.029 72.5905,7.106 72.327,6.214 C71.617,3.8095 71.1475,2.2215 67.6995,2.2215 C63.2145,2.2215 58.8865,3.276 54.304,4.392 C52.423,4.8505 50.4775,5.3245 48.5415,5.7115 C47.9375,5.8325 47.355,5.4415 47.2345,4.84 C47.114,4.2385 47.504,3.6535 48.1055,3.533 C49.9965,3.155 51.9185,2.6865 53.778,2.2335 C58.286,1.136 62.9475,0 67.6995,0 C72.808,0 73.7225,3.0965 74.458,5.5845 C74.701,6.4065 74.93,7.183 75.287,7.8515 C75.5755,8.393 75.371,9.0655 74.8295,9.3545 C74.663,9.443 74.484,9.4855 74.3075,9.4855 Z" id="Shape" fill="#404D5F" fill-rule="nonzero"></path>
                    <path d="M52.274,31.0155 C50.1325,31.0155 47.8215,29.526 47.8215,27.12 C47.8215,24.877 49.744,22.4575 51.148,20.691 C51.3655,20.4175 51.5695,20.1615 51.749,19.926 C52.1215,19.439 52.8195,19.346 53.306,19.7185 C53.7935,20.091 53.8865,20.788 53.5135,21.2755 C53.326,21.5205 53.1135,21.7885 52.887,22.073 C51.7545,23.4985 50.043,25.652 50.043,27.12 C50.043,28.212 51.3385,28.794 52.274,28.794 C53.205,28.794 54.2435,28.3815 55.1235,27.662 C55.598,27.273 56.298,27.343 56.6865,27.8185 C57.075,28.2935 57.0055,28.993 56.5305,29.3815 C55.261,30.4195 53.7095,31.0155 52.274,31.0155 Z" id="Shape" fill="#404D5F" fill-rule="nonzero"></path>
                    <path d="M58.9635,32.2975 C56.2405,32.2975 54.481,30.513 54.481,27.7515 C54.481,25.8865 55.3705,24.0005 56.247,22.4765 C56.283,21.896 56.766,21.436 57.3555,21.436 L57.4945,21.436 C57.895,21.436 58.264,21.651 58.461,21.9995 C58.6585,22.348 58.653,22.7755 58.447,23.1185 C57.635,24.472 56.7025,26.2215 56.7025,27.7515 C56.7025,28.8115 57.095,30.076 58.9635,30.076 C60.3475,30.076 62.981,29.2655 63.795,28.044 C64.1345,27.5335 64.8235,27.3955 65.3355,27.736 C65.846,28.0765 65.984,28.766 65.6435,29.2765 C64.27,31.3375 60.845,32.2975 58.9635,32.2975 Z" id="Shape" fill="#404D5F" fill-rule="nonzero"></path>
                    <path d="M68.5765,32.782 C65.554,32.782 63.3605,30.4965 63.3605,27.347 C63.3605,25.3845 64.106,23.362 64.6495,21.885 C64.8615,21.3095 65.502,21.0155 66.076,21.2265 C66.6515,21.4385 66.9465,22.0775 66.7345,22.653 C66.248,23.973 65.582,25.781 65.582,27.347 C65.582,29.567 67.086,30.5605 68.5765,30.5605 C73.4985,30.5605 74.42,24.325 74.5875,21.6435 C74.626,21.031 75.147,20.563 75.7655,20.6045 C76.3775,20.643 76.843,21.17 76.8045,21.7825 C76.374,28.67 73.298,32.782 68.5765,32.782 Z" id="Shape" fill="#404D5F" fill-rule="nonzero"></path>
                    <path d="M95.662,19.6675 C94.7875,19.6675 93.8135,18.986 93.8135,18.008 C93.8135,17.4585 94.1175,17.076 94.2995,16.847 C94.333,16.8045 94.3705,16.763 94.398,16.717 C94.592,16.135 95.1965,15.881 95.7775,16.074 C96.631,16.358 96.9455,16.9875 97.1145,17.3255 C97.229,17.554 97.2865,17.795 97.2865,18.0435 C97.2865,18.9235 96.5425,19.6675 95.662,19.6675 Z M95.243,17.6015 C95.1305,17.7075 95.0645,17.861 95.0645,18.043 C95.065,18.061 95.243,17.6015 95.243,17.6015 Z" id="Shape" fill="#404D5F" fill-rule="nonzero"></path>
                    <path d="M104.585,27.1555 C103.621,27.1555 102.7755,26.292 102.7755,25.308 C102.7755,24.7485 103.0305,24.209 103.5335,23.7065 C103.8605,23.3795 104.354,23.29 104.7725,23.478 C104.807,23.487 104.844,23.493 104.8815,23.501 C105.199,23.5645 105.859,23.696 106.2435,24.3375 C106.4025,24.6025 106.487,24.9085 106.487,25.2215 C106.4875,26.2335 105.5805,27.1555 104.585,27.1555 Z M104.804,24.977 L104.966,25.139 C104.9305,25.0565 104.8695,25.007 104.804,24.977 Z M104.804,23.492 C104.808,23.494 104.812,23.496 104.816,23.498 C104.812,23.4965 104.808,23.4945 104.804,23.492 Z" id="Shape" fill="#404D5F" fill-rule="nonzero"></path>
                    <path d="M107.898,39.145 C106.845,39.145 106.165,38.453 106.165,37.3815 C106.165,36.3815 106.812,35.6175 107.775,35.4805 C107.836,35.472 107.9255,35.4655 107.9785,35.4655 C108.9455,35.4655 109.774,36.474 109.774,37.3 C109.774,38.191 109.0205,39.145 107.898,39.145 Z M107.8865,36.923 C107.8175,36.9235 107.5525,36.9505 107.5525,37.3 C107.5525,37.46 107.5975,37.566 107.613,37.59 C107.627,37.601 107.7615,37.687 107.979,37.687 L107.979,36.943 C107.947,36.9325 107.9165,36.925 107.8865,36.923 Z M108.0245,36.9625 L108.1095,37.676 C108.2525,37.6415 108.3865,37.471 108.3865,37.3815 C108.37,37.237 108.2,37.0445 108.0245,36.9625 Z" id="Shape" fill="#404D5F" fill-rule="nonzero"></path>
                    <path d="M106.638,52.2355 C105.7645,52.2355 105.054,51.445 105.054,50.474 C105.054,49.593 105.608,48.795 106.372,48.574 C106.5205,48.531 106.6695,48.509 106.8145,48.509 C107.1355,48.509 108.184,48.6305 108.1905,50.1925 L108.192,50.277 C108.21,50.3665 108.219,50.4615 108.219,50.557 C108.218,51.351 107.569,52.2355 106.638,52.2355 Z M106.017,50.7325 C106.018,50.7375 106.0195,50.7425 106.0205,50.7475 C106.0195,50.7425 106.0185,50.7375 106.017,50.7325 Z M106.058,50.3025 C106.1955,50.522 106.4715,50.7305 106.814,50.7305 C106.894,50.7305 106.9545,50.718 106.992,50.7075 C107.1595,50.658 107.2755,50.545 107.2755,50.474 C107.2755,50.286 107.0485,50.014 106.638,50.014 C106.633,50.014 106.2175,50.018 106.058,50.3025 Z" id="Shape" fill="#404D5F" fill-rule="nonzero"></path>
                    <path d="M97.3415,60.7835 C96.613,60.7835 95.801,60.145 95.801,59.2285 C95.801,58.6765 96.0945,58.2375 96.3085,57.916 C96.512,57.6115 96.852,57.427 97.2175,57.422 C97.345,57.4095 97.43,57.4025 97.5135,57.4025 C98.327,57.4025 98.9405,58.004 98.9405,58.802 C98.9405,59.8765 98.208,60.7835 97.3415,60.7835 Z M97.2325,58.568 C96.9235,58.6015 96.737,58.77 96.7155,58.838 C96.718,59.134 96.944,59.437 97.2325,59.5635 L97.2325,58.568 Z M97.278,58.564 L98.001,59.047 C97.941,58.7955 97.7465,58.562 97.341,58.562 C97.3195,58.562 97.299,58.5625 97.278,58.564 Z" id="Shape" fill="#404D5F" fill-rule="nonzero"></path>
                    <path d="M85.7295,63.089 C84.812,63.089 83.837,62.517 83.837,61.4565 C83.837,60.9855 84.008,60.5455 84.151,60.2595 C84.3975,59.7665 84.967,59.53 85.4895,59.701 C85.554,59.7175 85.625,59.7185 85.695,59.725 C86.081,59.7595 86.8845,59.8315 87.347,60.6025 C87.491,60.8415 87.567,61.1125 87.567,61.3855 C87.5675,62.389 86.5985,63.089 85.7295,63.089 Z M85.5125,60.941 L86.003,61.1865 C85.9265,60.999 85.7895,60.8855 85.723,60.8645 C85.633,60.865 85.5645,60.8955 85.5125,60.941 Z" id="Shape" fill="#404D5F" fill-rule="nonzero"></path>
                    <path d="M88.4775,49.9185 C87.9495,49.9185 87.4815,49.5405 87.3855,49.0025 C87.278,48.3985 87.68,47.8215 88.2835,47.714 C91.841,47.0785 94.852,44.1285 95.443,40.6985 C95.547,40.094 96.1245,39.686 96.7265,39.7925 C97.331,39.8965 97.737,40.471 97.6325,41.076 C96.876,45.4655 93.192,49.094 88.6745,49.901 C88.608,49.9125 88.5425,49.9185 88.4775,49.9185 Z" id="Shape" fill="#525D7D" fill-rule="nonzero"></path>
                    <polyline id="Path-19" stroke="#404D5F" stroke-width="2" stroke-linecap="round" stroke-linejoin="round" points="83.9112697 33.6561453 78.1061616 33.6561453 77.4015788 42.1299942"></polyline>
                    <path d="M77.9320586,38.1023705 L82.1696116,38.1023705" id="Path-20" stroke="#404D5F" stroke-width="2" stroke-linecap="round"></path>
                    <path d="M85.4882529,41.8519047 L85.4882529,36.8088546 C86.0514162,37.6745507 86.6757566,38.0665442 87.3612739,37.9848352 C88.3895499,37.8622718 88.7311738,35.5418091 89.548472,39.1319035" id="Path-21" stroke="#404D5F" stroke-width="2" stroke-linecap="round" stroke-linejoin="round"></path>
                    <circle id="Oval-2" fill="#404D5F" cx="90" cy="42" r="1"></circle>
                </g>
            </g>
        </g>
    </g>
</svg>