<?xml version="1.0" encoding="UTF-8"?>
<svg width="43px" height="25px" viewBox="0 0 43 25" version="1.1" xmlns="http://www.w3.org/2000/svg" xmlns:xlink="http://www.w3.org/1999/xlink">
    <!-- Generator: Sketch 48.2 (47327) - http://www.bohemiancoding.com/sketch -->
    <title>descr</title>
    <desc>Created with Sketch.</desc>
    <defs></defs>
    <g id="d_Gift-Flow-5_V2" stroke="none" stroke-width="1" fill="none" fill-rule="evenodd" transform="translate(-691.000000, -274.000000)">
        <g id="card" transform="translate(375.000000, 240.000000)" fill="#404D5F" fill-rule="nonzero">
            <g id="descr" transform="translate(317.000000, 35.000000)">
                <path d="M27.3435302,17.8367205 L38.4042389,3.51391026 C39.0948777,2.50876284 39.0948777,2.09644091 38.6667674,1.7962138 C38.0968057,1.39650861 37.7372443,1.37371622 37.3392846,1.67762463 L25.181416,17.137353 L24.7334149,19.2128728 L27.3435302,17.8367205 Z M22.2058079,20.9698475 L23.1798415,16.4573002 C23.2134991,16.30137 23.2822429,16.1551584 23.3808535,16.0297669 L35.7609436,0.287465674 L35.9059752,0.136747938 C37.094819,-0.874506781 38.5159067,-0.874506781 39.8725199,0.0768648648 C41.4054507,1.15188528 41.4054507,2.85422489 40.1007436,4.75022691 L28.866196,19.3007976 C28.7742752,19.41985 28.6578497,19.5177645 28.5248005,19.5879131 L23.7218748,22.1201987 C22.9330672,22.5360882 22.0176611,21.8415024 22.2058079,20.9698475 Z" id="Path-2"></path>
                <polygon id="Path-3" points="33.5583824 4.92190414 34.7851605 3.21749348 38.4708326 5.87031754 37.2440546 7.5747282"></polygon>
                <path d="M2.6183305,6.37736021 C2.63422641,6.95704129 2.17718822,7.43985183 1.59750714,7.45574774 C1.01782606,7.47164364 0.535015516,7.01460545 0.519119612,6.43492437 C0.398530549,2.03736405 3.45135672,-0.219350047 9.11111111,-0.219350047 C12.8658146,-0.219350047 15.1030401,1.04276356 16.1215008,3.65519109 C16.8656025,5.56386768 16.9341951,7.26981591 16.7654303,12.5883153 C16.7379617,13.4539667 16.7225897,13.9890266 16.7099039,14.567447 C16.6049836,19.3513849 17.2677852,20.7753893 18.3462767,20.2878751 C18.8746962,20.0490119 19.4967018,20.2837436 19.7355651,20.8121631 C19.9744283,21.3405826 19.7396966,21.9625882 19.2112771,22.2014514 C15.8920787,23.7018399 14.4757999,20.6590182 14.6104088,14.5214014 C14.6232821,13.9344293 14.6388162,13.3937274 14.6664867,12.5217124 C14.8240425,7.55645757 14.7591346,5.94214852 14.1649283,4.41796517 C13.4898963,2.68645752 12.0615199,1.88064995 9.11111111,1.88064995 C4.51049731,1.88064995 2.53506611,3.34093075 2.6183305,6.37736021 Z" id="Path-4"></path>
                <path d="M15.296115,9.1184733 C15.8721192,9.18557072 16.2846696,9.70690755 16.2175722,10.2829117 C16.1504748,10.8589158 15.6291379,11.2714662 15.0531338,11.2043688 C14.8805364,11.1842633 14.5505205,11.152916 14.093673,11.1212213 C12.1129845,10.9838071 9.98297638,10.994531 8.00250324,11.2519449 C3.89636595,11.785644 1.60970935,13.2100099 1.60970935,15.6630542 C1.60970935,18.5775105 2.50887822,20.0793111 4.2224537,20.7283364 C5.64767666,21.2681467 7.44096225,21.2547786 10.4899472,20.8455321 C13.0528138,20.5015342 14.3424114,18.8687886 14.4960476,15.6135528 C14.5233865,15.0342986 15.0151273,14.5868828 15.5943815,14.6142217 C16.1736357,14.6415605 16.6210515,15.1333014 16.5937126,15.7125556 C16.3950183,19.9224795 14.4077823,22.4384974 10.7693121,22.926867 C7.38082229,23.3816833 5.33922857,23.3969024 3.47863334,22.6921927 C0.893482608,21.7130539 -0.490290646,19.4018623 -0.490290646,15.6630542 C-0.490290646,11.8125184 2.70364591,9.82300472 7.73183053,9.16946169 C9.87112319,8.89140511 12.1312437,8.88002611 14.2390154,9.02625699 C14.5245801,9.04606861 14.7817292,9.06735185 15.0067453,9.08872551 C15.144129,9.1017752 15.2418302,9.11214978 15.296115,9.1184733 Z" id="Path-5"></path>
            </g>
        </g>
    </g>
</svg>