<?xml version="1.0" encoding="UTF-8"?>
<svg width="139px" height="81px" viewBox="0 0 139 81" version="1.1" xmlns="http://www.w3.org/2000/svg" xmlns:xlink="http://www.w3.org/1999/xlink">
    <!-- Generator: Sketch 48.2 (47327) - http://www.bohemiancoding.com/sketch -->
    <title>folded_card_big</title>
    <desc>Created with Sketch.</desc>
    <defs></defs>
    <g id="d_Gift-Flow-3_V2" stroke="none" stroke-width="1" fill="none" fill-rule="evenodd" transform="translate(-1109.000000, -302.000000)">
        <g id="card" transform="translate(1043.000000, 250.000000)">
            <g id="folded_card_big" transform="translate(66.000000, 53.000000)">
                <path d="M5.34485879,60.3222933 C3.07341539,60.3222933 -4.2291013,64.1840537 5.34485879,66.0025479 C14.9188189,67.8210421 84.8700044,74.8080221 89.155036,75.8925151 C93.4400676,76.9770082 105.583888,78.8831254 109.564708,79.1269458 C113.545529,79.3707663 119.812387,79.3241778 120.471511,77.9265576 C121.130635,76.5289374 119.099605,76.3531627 119.627948,74.7016216 C120.15629,73.0500805 116.905967,75.9613994 116.309518,75.8925151 C99.1515129,73.9109233 73.5851797,70.6589789 39.6105188,66.1366817 L7.14181046,61.6738646 L7.14181046,60.3222933 C7.45813828,60.3222933 6.85915439,60.3222933 5.34485879,60.3222933 Z" id="Path-21" fill="#E0DFE6"></path>
                <polygon id="Path-20" fill="#E0DFE6" points="117.580195 60.4785794 117.580195 8.38883678 61.9115109 3.68660825 37.0381974 1.96007212 47.1997944 0.858483038 136.553335 0.858483038 136.553335 60.4785794"></polygon>
                <path d="M117.520543,77.0643938 C126.66856,69.1122383 133.733104,64.2581974 138.714175,62.502271 C138.714175,60.8771433 139.988569,60.40591 137.296706,60.40591 C133.978449,60.40591 127.386394,60.6432126 117.520543,61.1178177 L117.520543,77.0643938 Z" id="Path-18" fill="#E0DFE6"></path>
                <polygon id="Path-11" stroke="#404D5F" stroke-width="2.1" stroke-linecap="round" stroke-linejoin="round" points="6.75065749 61.9154853 117.279596 76.2127034 117.279596 7.56832361 6.75065749 0.780053186"></polygon>
                <polyline id="Path-19" stroke="#404D5F" stroke-width="2.1" stroke-linecap="round" stroke-linejoin="round" points="7.77940293 0.868495565 136.480087 0.868495565 136.480087 61.3297358 117.9544 61.3297358"></polyline>
            </g>
        </g>
    </g>
</svg>