<?xml version="1.0" encoding="UTF-8"?>
<svg width="117px" height="108px" viewBox="0 0 117 108" version="1.1" xmlns="http://www.w3.org/2000/svg" xmlns:xlink="http://www.w3.org/1999/xlink">
    <!-- Generator: Sketch 48.2 (47327) - http://www.bohemiancoding.com/sketch -->
    <title>food</title>
    <desc>Created with Sketch.</desc>
    <defs></defs>
    <g id="d_Gift-Flow-6_V2" stroke="none" stroke-width="1" fill="none" fill-rule="evenodd" transform="translate(-284.000000, -295.000000)">
        <g id="card" transform="translate(231.000000, 250.000000)">
            <g id="food" transform="translate(53.000000, 46.000000)">
                <path d="M42.4270418,31.9327109 C47.0927409,35.6540643 49.5636259,39.3840768 49.8396967,43.1227484 C50.1157676,46.8614199 48.8803251,49.7143217 46.1333693,51.6814538 C47.4072681,54.7701874 46.1718256,58.4579234 42.4270418,62.7446617 C38.682258,67.0314001 38.1204385,69.1747693 40.7415835,69.1747693 C44.3361073,69.1747693 46.1333693,69.1747693 46.1333693,69.1747693 C46.1333693,69.1747693 47.3688117,68.6353615 49.8396967,67.5565459 L53.9547822,67.5565459 L58.1111255,38.8166545 C58.0836203,34.2273587 56.6981725,31.9327109 53.9547822,31.9327109 C51.2113919,31.9327109 47.3688117,31.9327109 42.4270418,31.9327109 Z" id="Path-143" fill="#E0DFE6"></path>
                <path d="M92.1045127,39.7961457 C92.1045127,41.8498682 93.2750123,47.1018359 95.1377264,51.6432521 C97.0004406,56.1846684 101.431836,56.9517583 100.088665,61.6582058 C98.7454935,66.3646534 98.1709402,69.3077112 95.1377264,70.823554 C93.1155839,71.8341159 90.146549,73.0280459 86.2306216,74.405344 L100.088665,74.405344 L113.772508,39.7961457 L111.584316,35.1981909 C109.228036,35.1981909 106.723024,35.1981909 104.06928,35.1981909 C100.088665,35.1981909 101.862751,29.8560673 96.9836318,32.5271291 C92.1045127,35.1981909 92.1045127,37.7424231 92.1045127,39.7961457 Z" id="Path-142" fill="#E0DFE6"></path>
                <path d="M62.2336153,72.2073123 C63.4739868,74.0878095 64.0941725,75.6678465 64.0941725,76.9474233 L68.33148,74.5773678 L73.5846653,83.7036268 L68.33148,87.1895889 L68.33148,94.4193941 L67.9091403,96.2252644 C68.7673606,95.7380776 69.6878736,95.7380776 70.6706793,96.2252644 C72.1448878,96.9560446 74.8431531,92.4146673 74.8290997,89.1149136 C74.8150462,85.81516 76.6398887,84.9044954 76.8204757,83.7036268 C76.9408671,82.9030477 75.8622636,79.4735337 73.5846653,73.4150848 C64.7769272,70.7294059 60.9932439,70.3268151 62.2336153,72.2073123 Z" id="Path-144" fill="#E0DFE6"></path>
                <path d="M54.2359466,4.59405719 C54.2359466,4.59405719 47.616868,8.23798856 34.3787109,15.5258513 C45.2330829,20.5277252 50.9633356,24.4701391 51.569469,27.3530929 C52.1756024,30.2360467 50.9872753,33.6431276 48.0044878,37.5743357 L57.0919045,37.5743357 L61.2650566,25.2351915 L66.6346854,21.0841964 L66.6346854,8.67552519 L61.2650566,13.4048938 L57.0919045,4.59405719 C55.1879326,4.59405719 54.2359466,4.59405719 54.2359466,4.59405719 Z" id="Path-97" fill="#E0DFE6"></path>
                <path d="M6.79637623,84.158103 C2.2090595,86.9501004 0.0364959092,88.8467108 0.278685455,89.8479341 C0.641969774,91.349769 16.8183485,96.6305399 23.4168773,96.2838128 C30.0154061,95.9370857 35.5981024,94.9076178 35.3107864,96.6305399 C35.0234704,98.3534621 40.2039243,103.589431 42.7069824,101.790541 C45.2100406,99.9916504 51.8709024,106.415842 55.4384908,106.164562 C59.0060791,105.913282 56.7825454,97.9716727 59.0060791,98.4041076 C61.2296129,98.8365426 86.6069218,102.087596 93.7265153,103.12096 C100.846109,104.154324 107.44811,106.507393 108.063648,103.12096 C108.679187,99.7345269 114.71475,68.6838779 115.777333,65.9490191 C116.485721,64.1257798 115.92682,61.1347934 114.10063,56.97606 L102.455078,99.4218881 L62.4577671,96.2838128 C57.7782496,93.9346392 55.4384908,93.3473457 55.4384908,94.5219326 C55.4384908,95.6965194 55.4384908,98.5628619 55.4384908,103.12096 L46.9378325,96.6305399 L46.9378325,93.2879346 C43.188115,96.6987166 41.0545095,98.4041076 40.537016,98.4041076 C40.0195226,98.4041076 39.216661,98.4041076 38.1284313,98.4041076 L35.3107864,91.7890216 L8.58650111,88.4191456 L6.79637623,84.158103 Z" id="Path-141" fill="#E0DFE6"></path>
                <path d="M12.5853754,25.5831712 L17.2911202,35.83959 C15.7225386,37.7031335 15.7225386,41.3910748 17.2911202,46.903414 C16.0659218,47.1965268 9.89328339,50.4325835 9.85056617,57.7270034 C9.87904432,58.1755342 9.99136637,58.9485341 10.1875323,60.0460031 C7.00964379,63.8687399 5.30852894,65.8943996 5.08418779,66.1229822 C4.74767607,66.465856 4.77744179,68.5433217 5.08418779,70.3113148 C5.28868512,71.4899768 6.35760026,77.6557228 8.29093318,88.8085529 L35.852402,92.344539 L37.9369115,98.1963438 C40.5773507,98.6906214 43.6504912,97.1908228 47.1563329,93.696948 C47.7296828,93.696948 48.3014422,93.696948 48.8716111,93.696948 L46.6255487,97.209985 C50.1204838,101.064381 53.0694111,103.176763 55.4723305,103.54713 C55.4723305,102.25607 54.9763109,96.7362328 55.4723305,94.5403859 C56.7447584,94.5403859 60.3709505,94.9455179 60.9980757,95.3772345 C61.6252008,95.808951 65.3388724,96.3888146 67.2261555,96.0920662 C68.6653623,96.2898985 77.409744,97.2322525 93.4593006,98.9191283 L100.509914,99.7950585 L102.907934,100.070622 L113.619808,58.6597359 L114.790078,36.2451603 L109.580089,35.83959 C111.0584,29.0019775 112.296309,25.5831712 113.293817,25.5831712 C111.797556,24.9550997 104.028375,21.997967 99.2169526,21.3297139 C94.4055302,20.6614608 86.7631173,17.1210709 85.7350587,16.1861172 C84.7070001,15.2511635 81.4570375,13.7143315 78.842591,14.1050719 C77.0996268,14.3655655 75.7977596,15.2222254 74.9369895,16.6750516 L75.3091089,13.2505923 C77.9178489,12.7147996 79.8360106,10.8786358 81.0635941,7.74210096 C82.9049693,3.03729874 82.9842586,2.18583916 82.5917162,1.58876627 C82.1991739,0.99169338 77.9214529,0.394620491 77.0573791,0.99169338 C76.48133,1.38974197 75.4480567,1.8710433 73.9575594,2.43559736 C71.1346257,2.07965624 69.5863046,2.15897564 69.3125962,2.67355556 C68.9020335,3.44542545 68.7794997,3.75185345 68.7584753,3.89583887 C68.7374509,4.03982429 68.2930711,4.2803309 68.2795326,5.08340002 C68.270507,5.61877944 68.2659942,6.2364514 68.2659942,6.93641591 C68.2840455,6.91619596 68.2885583,7.04542181 68.2795326,7.32409347 C68.270507,7.60276513 68.2068497,8.34860111 68.0885608,9.5616014 C66.9905127,8.81926949 66.1422093,8.70443156 65.5436504,9.21708761 C64.6458121,9.98607169 64.3826883,10.5336623 64.0275031,10.5760296 C63.6723178,10.618397 63.0919164,11.3801722 62.508648,12.3086329 C62.1198024,12.9276068 61.8903081,13.5264198 61.8201651,14.1050719 L57.5741126,5.55819415 L54.5119706,4.38204924 L12.5853754,25.5831712 Z" id="Path-98" stroke="#404D5F" stroke-width="2.1" stroke-linecap="round" stroke-linejoin="round"></path>
                <path d="M35.5589241,92.0842754 C34.7263738,90.1082984 34.5182362,89.0018627 34.9345114,88.7649684 C35.3507865,88.5280741 38.4751308,87.505755 44.307544,85.6980109 C42.2860461,87.4938469 40.6891844,88.5582243 39.5169589,88.8911431 C37.7586206,89.3905213 36.1833369,89.8898996 35.5589241,89.3905213" id="Path-99" stroke="#404D5F" stroke-width="2.1" stroke-linecap="round" stroke-linejoin="round"></path>
                <path d="M53.9716906,81.9705364 C54.127002,84.5059386 55.4207995,85.6853428 57.853083,85.5087488 C61.5015083,85.243858 62.4957042,82.8157549 60.1743936,82.8750418 C58.6268532,82.9145664 56.7684366,82.6130646 54.5991437,81.9705364" id="Path-100" stroke="#404D5F" stroke-width="2.1" stroke-linecap="round" stroke-linejoin="round"></path>
                <path d="M53.4054245,81.9826978 C54.066955,88.7018811 55.5083364,92.8290355 57.7295686,94.3641611 C59.9508009,95.8992868 61.9930323,95.369885 63.8562628,92.775956 L61.8819327,82.8613602" id="Path-101" stroke="#404D5F" stroke-width="2.1" stroke-linecap="round" stroke-linejoin="round"></path>
                <path d="M62.2179937,84.6847766 C66.1422666,81.5486139 68.2409824,79.9547254 68.514141,79.9031111 C68.9238789,79.8256897 65.4955993,77.5280605 64.4236106,76.4242098 C63.7089514,75.6883094 62.6640601,74.1270769 61.2889368,71.7405123 C56.4844419,75.3511292 53.7483892,77.8837027 53.0807784,79.3382326" id="Path-102" stroke="#404D5F" stroke-width="2.1" stroke-linecap="round" stroke-linejoin="round"></path>
                <path d="M53.2338144,81.5147634 C52.4539475,78.6827026 49.498243,78.8533949 44.3667009,82.02684 C44.2519584,86.5202595 45.0892014,89.5829711 46.8784301,91.2149748 C47.7598431,91.2149748 50.3030371,90.3989729 54.5080123,88.7669693" id="Path-103" stroke="#404D5F" stroke-width="2.1" stroke-linecap="round" stroke-linejoin="round"></path>
                <path d="M50.1831332,78.9252192 C50.1831332,78.9252192 43.2125263,72.9884859 41.9737837,71.8456267 C40.7350412,70.7027676 37.529497,69.0873401 38.9230824,72.5215752 C40.3166678,75.9558103 43.9732484,77.0452361 46.2339536,77.2882202" id="Path-104" stroke="#404D5F" stroke-width="2.1" stroke-linecap="round" stroke-linejoin="round"></path>
                <path d="M38.5854059,87.5681286 C34.8062485,86.8735195 32.7001876,85.5923937 32.2672233,83.7247511 C32.0571929,82.854058 32.8305137,81.7618205 34.5871856,80.4480388 C33.1086352,79.406026 32.6620725,78.3908129 33.2474974,77.4023996 C33.8329224,76.4139863 35.6122252,74.1143718 38.5854059,70.5035564" id="Path-106" stroke="#404D5F" stroke-width="2.1" stroke-linecap="round" stroke-linejoin="round"></path>
                <path d="M34.3069797,80.5558332 C35.7827509,79.2416544 36.7139915,78.3621273 37.1007015,77.917252 C37.6807665,77.249939 39.1001074,74.8284594 42.1123958,76.0820907" id="Path-107" stroke="#404D5F" stroke-width="2.1" stroke-linecap="round" stroke-linejoin="round"></path>
                <path d="M39.0171792,76.7833261 C39.8948203,79.6310444 42.3142394,80.8941052 46.2754364,80.5725086" id="Path-108" stroke="#404D5F" stroke-width="2.1" stroke-linecap="round" stroke-linejoin="round"></path>
                <path d="M67.2416281,96.0287797 C68.2003361,95.6079514 68.6301809,94.3936645 68.5311625,92.3859188 C68.3826349,89.3743003 68.0307425,85.6441425 66.8107997,84.9809324 C65.9975045,84.5387922 65.0024023,84.1159148 63.8254932,83.7123" id="Path-109" stroke="#404D5F" stroke-width="2.1" stroke-linecap="round" stroke-linejoin="round"></path>
                <path d="M62.8455553,87.4537695 C62.8455553,87.4537695 64.8969084,88.8660113 66.1810328,88.6087929 C67.0371158,88.437314 67.6430297,88.0523062 67.9987747,87.4537695" id="Path-110" stroke="#404D5F" stroke-width="2.1" stroke-linecap="round" stroke-linejoin="round"></path>
                <path d="M67.8587839,86.4646954 C71.0776375,85.5880967 72.9228847,84.571069 73.3945255,83.4136123 C72.6870643,81.6179596 69.2823645,75.104076 68.8230274,74.8600532 C68.5168026,74.6973713 67.0821336,74.988862 64.5190202,75.7345254" id="Path-111" stroke="#404D5F" stroke-width="2.1" stroke-linecap="round" stroke-linejoin="round"></path>
                <path d="M50.1455414,78.7970831 C47.4729201,73.5795308 46.0769237,69.4065842 45.957552,66.2782434 C47.1114778,66.6862698 50.0158409,67.5903608 54.6706412,68.9905166 L57.6397506,73.8597976" id="Path-112" stroke="#404D5F" stroke-width="2.1" stroke-linecap="round" stroke-linejoin="round"></path>
                <polyline id="Path-113" stroke="#404D5F" stroke-width="2.1" stroke-linecap="round" stroke-linejoin="round" points="56.8569293 72.1679408 101.524299 75.2233875 113.888526 36.7593661"></polyline>
                <path d="M45.671625,70.5357299 L5.70476175,66.6326963" id="Path-114" stroke="#404D5F" stroke-width="2.1" stroke-linecap="round" stroke-linejoin="round"></path>
                <path d="M74.2193829,2.29954514 C74.9063848,2.29954514 76.0921929,3.84431932 76.0943711,4.62672609 C76.0958232,5.1483306 75.4708271,11.6747764 74.2193829,24.2060635 C77.4913186,26.9154446 78.8380224,30.7349779 78.2594945,35.6646633 C77.6809665,40.5943488 75.9259242,53.0415576 72.9943674,73.0062899" id="Path-115" stroke="#404D5F" stroke-width="2.1" stroke-linecap="round" stroke-linejoin="round"></path>
                <path d="M68.3124405,6.97832338 C69.419236,6.30483166 70.660509,6.03693785 72.0362593,6.17464196 C73.4120097,6.31234606 74.6701606,6.84479532 75.810712,7.77198973" id="Path-116" stroke="#404D5F" stroke-width="2.1" stroke-linecap="round" stroke-linejoin="round"></path>
                <path d="M68.0323852,9.94123695 L65.9301973,22.8792915 C60.7689697,25.5078645 58.0066502,29.3537123 57.6432389,34.416835 C57.2798276,39.4799576 56.0108764,50.8793086 53.8363853,68.6148879" id="Path-117" stroke="#404D5F" stroke-width="2.1" stroke-linecap="round" stroke-linejoin="round"></path>
                <path d="M58.2604462,34.1581018 C60.3708304,33.5364505 62.9393781,33.3810377 65.966089,33.6918633 C68.9928,34.0026889 72.6300424,34.7354061 76.8778163,35.8900148 L73.0637157,67.0970146 C67.5427216,66.1565949 63.5150939,65.5743926 60.9808324,65.3504075 C58.4465709,65.1264224 56.2763513,65.1264224 54.4701738,65.3504075" id="Path-118" stroke="#404D5F" stroke-width="2.1" stroke-linecap="round" stroke-linejoin="round"></path>
                <path d="M66.9417746,17.0914957 C68.2819241,16.7570595 69.6168942,16.6685323 70.9466849,16.825914 C72.2764755,16.9832958 73.4243929,17.5153332 74.3904371,18.4220263" id="Path-119" stroke="#404D5F" stroke-width="2.1" stroke-linecap="round" stroke-linejoin="round"></path>
                <path d="M74.9459506,22.1442702 C76.7170142,23.2544108 78.4540188,23.7674701 80.1569646,23.6834481 C81.8599103,23.5994261 84.3214546,22.6541787 87.5415974,20.8477059 C85.2908583,17.3915513 83.5834864,15.4405906 82.4194818,14.9948239" id="Path-120" stroke="#404D5F" stroke-width="2.1" stroke-linecap="round" stroke-linejoin="round"></path>
                <path d="M75.4230755,19.2803956 C79.3691084,19.5053045 82.0106998,19.7541446 83.3478498,20.026916" id="Path-121" stroke="#404D5F" stroke-width="2.1" stroke-linecap="round" stroke-linejoin="round"></path>
                <path d="M65.4360547,19.8655042 C63.4223622,19.2797229 62.0156152,19.2797229 61.2158136,19.8655042 C60.4160121,20.4512855 59.3184847,21.7465835 57.9232314,23.7513981 C60.4199755,24.4554454 61.8419417,24.7898718 62.1891301,24.7546774" id="Path-122" stroke="#404D5F" stroke-width="2.1" stroke-linecap="round" stroke-linejoin="round"></path>
                <path d="M13.7420177,67.3523311 C11.9354934,65.4770743 10.7541663,63.084952 10.1980363,60.1759643" id="Path-123" stroke="#404D5F" stroke-width="2.1" stroke-linecap="round" stroke-linejoin="round"></path>
                <path d="M16.8843339,46.9697818 C18.5849776,46.6094622 20.146242,46.7501101 21.5681273,47.3917256 C23.7009551,48.3541489 24.1383956,48.4199417 25.6228111,48.8231263 C27.1072267,49.226311 30.3949625,50.6568961 31.0950303,53.535738 C31.5617422,55.4549659 31.7950981,56.7901243 31.7950981,57.5412132" id="Path-124" stroke="#404D5F" stroke-width="2.1" stroke-linecap="round" stroke-linejoin="round"></path>
                <path d="M34.7359266,69.1821851 C32.4046329,67.4146612 31.627535,63.9108785 32.4046329,58.6708372 C33.5702797,50.8107751 41.0362648,51.0051629 43.4387887,51.0562746 C45.8413126,51.1073864 51.1678089,52.8613725 51.7738093,56.4874413 C52.3798098,60.1135101 52.6421653,64.3485908 50.3070654,67.3049159" id="Path-125" stroke="#404D5F" stroke-width="2.1" stroke-linecap="round" stroke-linejoin="round"></path>
                <path d="M38.1669384,51.3822479 C35.7117622,48.8455104 34.7107332,45.1443494 35.1638515,40.278765 C35.843529,32.9803884 42.4219912,31.249114 47.2036581,31.9818063 C51.985325,32.7144986 55.7828189,34.7834368 56.7949946,38.8073993" id="Path-126" stroke="#404D5F" stroke-width="2.1" stroke-linecap="round" stroke-linejoin="round"></path>
                <path d="M47.4437042,34.4261679 C47.4132985,31.3786385 47.8381086,29.6601034 48.7181345,29.2705627" id="Path-127" stroke="#404D5F" stroke-width="2.1" stroke-linecap="round" stroke-linejoin="round"></path>
                <path d="M44.7294808,33.8673133 C46.9032351,34.9709546 48.7030518,35.1227794 50.1289308,34.3227877" id="Path-128" stroke="#404D5F" stroke-width="2.1" stroke-linecap="round" stroke-linejoin="round"></path>
                <path d="M17.0130501,36.2969082 C17.0130501,36.0394686 19.9067708,29.978745 24.8169371,30.708735 C29.7271034,31.4387249 34.810794,33.6217637 35.5130597,36.8397594" id="Path-129" stroke="#404D5F" stroke-width="2.1" stroke-linecap="round" stroke-linejoin="round"></path>
                <path d="M95.0476752,74.1013674 C98.3373895,71.4418505 99.9350532,67.4762817 99.8406663,62.2046609 C99.6990859,54.2972298 90.9859634,52.8093184 89.0591526,53.0075309 C87.1323419,53.2057435 84.5200185,52.5995818 83.1700656,53.2057435 C81.8201128,53.8119053 74.4809789,58.0915851 75.9020512,66.0260153 C76.8494327,71.3156354 77.8788762,73.8849057 78.9903817,73.7338261" id="Path-130" stroke="#404D5F" stroke-width="2.1" stroke-linecap="round" stroke-linejoin="round"></path>
                <path d="M101.570373,75.1899574 L102.365674,99.8870308" id="Path-131" stroke="#404D5F" stroke-width="2.1" stroke-linecap="round" stroke-linejoin="round"></path>
                <path d="M84.1990517,52.7188427 C87.1082766,44.8495087 89.5395499,40.3529936 91.4928718,39.2292972 C94.4228546,37.5437528 100.355992,41.9491043 103.178553,45.9740691 C106.001113,49.999034 111.399733,59.4449332 100.355992,64.529071" id="Path-132" stroke="#404D5F" stroke-width="2.1" stroke-linecap="round" stroke-linejoin="round"></path>
                <path d="M86.9723121,34.673449 C89.8531678,35.7670463 91.6039268,37.1967492 92.2245891,38.9625578" id="Path-133" stroke="#404D5F" stroke-width="2.1" stroke-linecap="round" stroke-linejoin="round"></path>
                <path d="M81.4504986,33.3614458 C80.8058867,31.315657 80.8058867,29.8613497 81.4504986,28.998524 C82.0951104,28.1356983 82.5601114,27.7042854 82.8455015,27.7042854 C83.6493297,25.9521233 84.8599152,25.0223337 86.4772579,24.9149165 C88.9032719,24.7537908 91.6992233,25.5183138 91.8337121,27.7042854 C91.9682009,29.890257 90.8691927,31.53374 89.7333025,31.4853091 C89.3043167,30.8905408 89.7100184,28.9570918 86.4772579,27.7042854 C85.4564842,27.4096651 83.3355846,27.4611368 82.8455015,27.7042854" id="Path-134" stroke="#404D5F" stroke-width="2.1" stroke-linecap="round" stroke-linejoin="round"></path>
                <path d="M89.8240172,31.2977326 C89.6248298,34.8008989 87.9232919,36.2872919 84.7194036,35.7569118" id="Path-135" stroke="#404D5F" stroke-width="2.1" stroke-linecap="round" stroke-linejoin="round"></path>
                <path d="M78.0584632,40.539762 C79.0309004,41.8118309 80.5760544,42.1844968 82.6939252,41.65776 C85.8707313,40.8676548 86.5823404,32.160874 79.0711011,34.6073996" id="Path-136" stroke="#404D5F" stroke-width="2.1" stroke-linecap="round" stroke-linejoin="round"></path>
                <path d="M90.9797892,31.4118704 C90.9797892,31.4118704 93.7875943,31.1873677 95.1747657,33.1823391 C96.5619371,35.1773106 97.9430243,37.5601424 96.8859146,39.723643" id="Path-137" stroke="#404D5F" stroke-width="2.1" stroke-linecap="round" stroke-linejoin="round"></path>
                <path d="M106.816358,37.2063529 C106.816358,37.2063529 101.802464,40.868972 106.157756,44.6420172 C105.597785,45.0660253 104.286055,46.6481457 104.374462,47.192245" id="Path-138" stroke="#404D5F" stroke-width="2.1" stroke-linecap="round" stroke-linejoin="round"></path>
                <path d="M101.581236,28.383079 C100.130113,28.383079 97.8068497,29.5402316 97.8068497,32.3386518 C97.8068497,35.137072 99.6052815,36.1276957 101.581236,36.2433295 C103.55719,36.3589633 105.791284,34.4705488 105.632491,32.7690214" id="Path-139" stroke="#404D5F" stroke-width="2.1" stroke-linecap="round" stroke-linejoin="round"></path>
                <path d="M92.382646,26.4462244 C94.2906268,23.6771026 96.4866808,22.7480324 98.9708083,23.6590138 C101.454936,24.5699953 102.433846,26.148337 101.90754,28.3940389" id="Path-140" stroke="#404D5F" stroke-width="2.1" stroke-linecap="round" stroke-linejoin="round"></path>
            </g>
        </g>
    </g>
</svg>