<?xml version="1.0" encoding="UTF-8"?>
<svg width="109px" height="105px" viewBox="0 0 109 105" version="1.1" xmlns="http://www.w3.org/2000/svg" xmlns:xlink="http://www.w3.org/1999/xlink">
    <!-- Generator: Sketch 48.2 (47327) - http://www.bohemiancoding.com/sketch -->
    <title>food</title>
    <desc>Created with Sketch.</desc>
    <defs></defs>
    <g id="07_Add_Gift_?" stroke="none" stroke-width="1" fill="none" fill-rule="evenodd" transform="translate(-165.000000, -284.000000)">
        <g id="card" transform="translate(105.000000, 250.000000)">
            <g id="food" transform="translate(61.000000, 34.000000)">
                <path d="M79.8971588,60.0615517 C77.814154,36.17343 63.2690159,20.2814107 36.2617445,12.3854939 C43.483685,40.4964149 42.7255955,58.8743247 33.9874762,67.5192232" id="Path-2" stroke="#404D5F" stroke-width="2" stroke-linecap="round" stroke-linejoin="round"></path>
                <path d="M29.7106293,66.4920433 C32.5179289,70.0633679 36.1101266,70.0633679 40.4872226,66.4920433" id="Path-3" stroke="#404D5F" stroke-width="2" stroke-linecap="round"></path>
                <path d="M73.8924475,60.3556797 C78.0777441,62.2308126 82.3589404,61.3827168 86.7360364,57.8113922" id="Path-3" stroke="#404D5F" stroke-width="2" stroke-linecap="round"></path>
                <path d="M36.6539152,12.4996091 C57.9682831,24.2915164 79.5821365,25.6887583 101.495475,16.6913348 C99.5924833,12.4996091 90.6223833,1.36935595 72.3076923,1.13951823 C60.0978983,0.986293088 48.2133059,4.77299006 36.6539152,12.4996091 Z" id="Path-4" stroke="#404D5F" stroke-width="2" stroke-linecap="round" stroke-linejoin="round"></path>
                <path d="M37.210026,12.886958 C53.8301326,9.12812017 70.9929562,9.12812017 88.6984969,12.886958" id="Path-5" stroke="#404D5F" stroke-width="2" stroke-linecap="round" stroke-linejoin="round"></path>
                <path d="M57.9356022,9.86531528 C63.2502646,7.40621241 66.8639136,6.03522238 68.7765491,5.75234519" id="Path-6" stroke="#404D5F" stroke-width="2" stroke-linecap="round"></path>
                <path d="" id="Path-7" stroke="#979797"></path>
                <path d="M76.5604937,11.1414772 C84.4039068,9.0391853 88.7638587,8.33842134 89.6403494,9.0391853" id="Path-8" stroke="#404D5F" stroke-width="2" stroke-linecap="round"></path>
                <path d="M70.290585,11.0916522 C71.4831696,15.2533758 72.7770113,17.5662183 74.1721101,18.0301797" id="Path-9" stroke="#404D5F" stroke-width="2" stroke-linecap="round"></path>
                <path d="M37.2823526,11.6525848 C28.3556484,8.18091018 20.8358297,9.00275414 14.7228965,14.1181167 C8.60996318,19.2334793 3.86909144,27.6137161 0.50028123,39.2588272 C13.0122395,40.8435329 21.3115777,38.7637427 25.398296,33.0194564 C29.4850142,27.2751702 33.4463664,20.1528796 37.2823526,11.6525848 Z" id="Path-10" stroke="#404D5F" stroke-width="2" stroke-linecap="round" stroke-linejoin="round"></path>
                <path d="M16.4699846,20.9023476 L38.9587214,12.1138675 C27.0435912,18.6746897 19.5473455,24.2529422 16.4699846,28.8486251" id="Path-11" stroke="#404D5F" stroke-width="2" stroke-linecap="round" stroke-linejoin="round"></path>
                <path d="M70.4033761,51.3900526 C68.7805288,57.0992417 67.9691052,62.9116463 67.9691052,68.8272665 C67.9691052,77.7006968 75.4827014,91.9724259 90.314033,85.2702533 C100.201587,80.8021382 104.489662,71.859313 103.178255,58.4417777 C107.098246,66.5943561 108.291258,72.2989187 106.757291,75.5554655 C104.456341,80.4402858 100.664366,93.8136931 87.6867781,94.2914914 C74.7091906,94.7692897 66.2522589,92.4683396 60.2753282,79.3847768 C54.2983975,66.3012141 64.5354127,55.632363 66.2522589,54.3414172 C67.3968231,53.4807867 68.7805288,52.4969985 70.4033761,51.3900526 Z" id="Path-12" fill="#E0DFE6"></path>
                <path d="M18.584369,58.861403 C13.4365402,67.8652367 11.6825765,75.4161639 13.3224779,81.5141846 C15.78233,90.6612157 23.9372469,101.790608 38.7685784,95.0884351 C48.6561328,90.62032 52.944207,81.6774948 51.6328009,68.2599595 C54.0924167,76.508885 54.5552412,82.2616211 53.0212744,85.518168 C50.7203242,90.4029882 44.1318973,102.459114 31.1543097,102.936913 C18.1767222,103.414711 14.7068044,102.286521 8.72987366,89.2029586 C2.75294291,76.1193959 10.2194676,65.0771756 11.9363138,63.7862298 C13.080878,62.9255993 15.2968964,61.2839903 18.584369,58.861403 Z" id="Path-12" fill="#E0DFE6"></path>
                <circle id="Oval" stroke="#404D5F" stroke-width="2" cx="30.0681818" cy="79.1590909" r="23.9318182"></circle>
                <path d="M82.8409091,94.5 C96.0580873,94.5 106.772727,83.78536 106.772727,70.5681818 C106.772727,57.3510036 96.0580873,48.6106935 82.8409091,48.6106935 C69.6237309,48.6106935 58.9090909,57.3510036 58.9090909,70.5681818 C58.9090909,83.78536 69.6237309,94.5 82.8409091,94.5 Z" id="Oval" stroke="#404D5F" stroke-width="2"></path>
            </g>
        </g>
    </g>
</svg>