<?xml version="1.0" encoding="UTF-8"?>
<svg width="113px" height="106px" viewBox="0 0 113 106" version="1.1" xmlns="http://www.w3.org/2000/svg" xmlns:xlink="http://www.w3.org/1999/xlink">
    <!-- Generator: Sketch 48.2 (47327) - http://www.bohemiancoding.com/sketch -->
    <title>handwritten</title>
    <desc>Created with Sketch.</desc>
    <defs></defs>
    <g id="02_Lettering_Technique" stroke="none" stroke-width="1" fill="none" fill-rule="evenodd" transform="translate(-492.000000, -275.000000)">
        <g id="card" transform="translate(383.000000, 250.000000)">
            <g id="handwritten" transform="translate(110.000000, 26.000000)">
                <path d="M96.9824477,1.11587291 C96.9907831,12.3061412 93.1450401,21.4167284 85.4452186,28.4476344 C73.8954864,38.9939934 47.1310527,59.2130578 44.0146568,62.6764146 C40.8982608,66.1397714 31.2852808,71.661172 37.6499688,73.2601859 C41.8930941,74.3261952 46.2964625,72.2241795 50.8600739,66.9541388 L80.6890134,38.0252838 L99.5532862,19.0150882 C103.078163,12.9376989 104.419653,8.78503593 103.577755,6.55709929 C102.735858,4.32916264 100.537422,2.51542052 96.9824477,1.11587291 Z" id="Path-14" fill="#E0DFE6"></path>
                <path d="M69.3898353,49.1904259 C69.3898353,50.185519 78.7170607,68.3768916 61.0563749,73.0671471 C59.9701346,73.0671471 66.5703614,70.6228974 66.4599813,69.5299674 C66.3863946,68.8013474 59.0144676,69.9804073 44.3442003,73.0671471 L47.2335852,69.5299674 L67.7381462,50.4098529 C68.8392723,48.9335061 69.3898353,48.5270305 69.3898353,49.1904259 Z" id="Path-16" fill="#E0DFE6"></path>
                <path d="M19.1869603,69.1687956 C18.4730375,57.7224086 19.7263395,49.2502 22.9468661,43.7521696 C27.7776561,35.5051241 43.3262869,35.1187284 48.2076964,32.820602 C53.089106,30.5224755 54.1976736,33.6923827 53.089106,35.1187284 C52.3500609,36.0696256 41.0493457,47.419648 19.1869603,69.1687956 Z" id="Path-15" fill="#E0DFE6"></path>
                <path d="M27.7346834,90.525342 L20.2892944,97.8773182 L0.190754739,103.340114 L7.69025256,80.515279 C52.226852,36.2283328 76.6967402,12.0351621 81.0999172,7.93576678 C87.7046826,1.78667382 92.1966658,-3.17355749 100.340333,2.97553546 C108.484,9.12462842 99.6565574,19.5496155 91.4726797,27.4402058 C86.0167613,32.7005993 70.3725585,47.8598561 44.5400716,72.917976" id="Path-8" stroke="#404D5F" stroke-width="2" stroke-linecap="round" stroke-linejoin="round"></path>
                <path d="M89.0764536,30.3054798 C93.379166,34.3463818 97.7158755,36.5511168 102.086582,36.9196847 C106.457289,37.2882526 109.297168,37.1039686 110.60622,36.3668329" id="Path-9" stroke="#404D5F" stroke-width="2" stroke-linecap="round" stroke-linejoin="round"></path>
                <path d="M66.139775,52.6740555 C70.24901,54.0177277 70.5141668,58.9711306 66.9352455,67.5342641 C61.5668636,80.3789644 28.5699499,74.178383 25.1412258,77.0886101 C21.7125017,79.9988372 18.9845354,90.5211967 50.0309785,90.0693833 C81.0774215,89.6175699 78.4356172,80.7986166 92.8814574,79.3735933 C102.512018,78.4235778 108.317836,78.6377492 110.298914,80.0161074" id="Path-10" stroke="#404D5F" stroke-width="2" stroke-linecap="round" stroke-linejoin="round"></path>
                <path d="M68.8548882,19.6108133 C49.064287,21.0345941 35.1958709,24.6636276 27.2496399,30.4979139 C15.3302934,39.2493434 10.9566041,53.1734608 10.1413349,56.2212717 C9.32606577,59.2690826 1.9636722,74.5962649 10.1413349,77.1392568" id="Path-11" stroke="#404D5F" stroke-width="2" stroke-linecap="round" stroke-linejoin="round"></path>
                <path d="M78.9400864,11.4578145 L92.5534798,26.1623455" id="Path-13" stroke="#404D5F" stroke-width="2" stroke-linecap="round" stroke-linejoin="round"></path>
                <path d="M82.9400864,7.45781455 L96.5534798,22.1623455" id="Path-13" stroke="#404D5F" stroke-width="2" stroke-linecap="round" stroke-linejoin="round"></path>
                <path d="M21.208882,66.9564888 C28.7672582,54.2128612 33.5794779,47.1240982 35.6455411,45.6901998 C37.7116042,44.2563013 40.5868586,43.7924945 44.2713042,44.2987795" id="Path-12" stroke="#404D5F" stroke-width="2" stroke-linecap="round" stroke-linejoin="round"></path>
            </g>
        </g>
    </g>
</svg>