<?xml version="1.0" encoding="UTF-8"?>
<svg width="100px" height="108px" viewBox="0 0 100 108" version="1.1" xmlns="http://www.w3.org/2000/svg" xmlns:xlink="http://www.w3.org/1999/xlink">
    <!-- Generator: Sketch 48.2 (47327) - http://www.bohemiancoding.com/sketch -->
    <title>import_contacts</title>
    <desc>Created with Sketch.</desc>
    <defs></defs>
    <g id="10_Add_Your_Contacts" stroke="none" stroke-width="1" fill="none" fill-rule="evenodd" transform="translate(-841.000000, -276.000000)">
        <g id="card" transform="translate(731.000000, 250.000000)" fill-rule="nonzero">
            <g id="import_contacts" transform="translate(110.000000, 26.000000)">
                <path d="M69.5481865,24.0761658 C68.9440415,23.2062176 67.9015544,22.6994819 66.5569948,23.1455959 C65.2279793,23.5860104 63.9357513,24.211399 62.684456,24.9336788 C62.6233161,24.2725389 62.5621762,23.6093264 62.5031088,22.9450777 C64.1559585,23.665285 66.5984456,22.8663212 66.6295337,20.4994819 C66.6896373,15.9595855 66.3569948,11.392228 64.9823834,7.04818653 C64.8523316,6.63782383 64.5134715,6.47098446 64.1829016,6.50466321 C64.0233161,5.85595855 63.8497409,5.21243523 63.6487047,4.57772021 C63.3176166,3.53316062 61.7637306,3.46632124 61.461658,4.57772021 C61.1150259,5.85181347 60.8943005,7.15958549 60.7512953,8.48445596 C60.4450777,6.85595855 60.0963731,5.23937824 59.6580311,3.6507772 C59.4606218,2.9357513 58.3217617,2.88082902 58.1544041,3.6507772 C56.4839378,11.3497409 56.5637306,19.4544041 56.2,27.2948187 C56.1658031,28.0300518 56.3481865,28.6352332 56.6673575,29.1181347 C54.7927461,30.5202073 52.4466321,32.2430052 51.5321244,34.3989637 C50.0917098,33.4792746 48.6901554,32.5088083 47.3492228,31.7466321 C44.4860104,30.1186528 41.5772021,28.5233161 38.492228,27.3564767 C37.1409326,26.8455959 36.5134715,28.6388601 37.2279793,29.5284974 C39.6202073,32.5082902 42.6492228,34.9740933 45.7373057,37.2067358 C48.4160622,39.1430052 52.0150259,42.6108808 55.3544041,43.2041451 C58.315544,43.7300518 60.315544,40.7834197 62.0098446,38.7994819 C63.3829016,37.192228 64.7352332,35.5626943 66.2031088,34.0554404 C66.9145078,33.4082902 67.6108808,32.7523316 68.2891192,32.0989637 C68.9476684,31.5414508 69.6310881,31.0108808 70.361658,30.5295337 C73.1341969,28.7036269 71.8772021,24.8854922 69.5481865,24.0761658 Z M55.5341969,36.5787565 C55.1989637,36.442487 54.865285,36.288601 54.5321244,36.1259067 C55.3725389,35.8139896 56.1979275,35.3709845 56.9989637,34.8989637 C56.5300518,35.5 56.0466321,36.0735751 55.5341969,36.5787565 Z" id="Shape" fill="#E0DFE6"></path>
                <path d="M95.5911917,46.2046632 C96.3373057,44.1005181 97.5165803,42.3689119 97.0569948,40.0911917 C96.9720207,39.6699482 96.5725389,39.5207254 96.211399,39.592228 C96.3072539,37.5797927 94.4829016,35.6036269 92.2704663,36.9932642 C89.1316062,38.9647668 86.9352332,42.4160622 83.5108808,43.9181347 C80.0440415,45.4388601 76.065285,44.7958549 72.5181347,46.1367876 C71.7518135,46.4264249 71.5823834,47.6518135 72.5181347,47.8683938 C74.6715026,48.3663212 76.9601036,48.9352332 79.2507772,49.1880829 C73.9279793,49.9015544 68.5865285,50.9284974 63.2492228,51.3704663 C62.5611399,51.4274611 62.5398964,52.4450777 63.2492228,52.457513 C67.9766839,52.538342 72.6880829,53.2010363 77.4082902,53.4860104 C78.5880829,53.557513 79.7678756,53.6284974 80.9481865,53.7 C81.3528497,53.7243523 81.7569948,53.7487047 82.161658,53.773057 C82.011399,56.0932642 82.2419689,58.519171 82.3595855,60.8300518 C82.8502591,70.4528497 82.2352332,80.5025907 83.6098446,90.0264249 C83.6937824,90.6072539 83.8870466,91.0642487 84.1445596,91.4305699 C83.4813472,92.488601 83.011399,92.3911917 81.7217617,92.6367876 C76.7756477,93.5777202 71.7378238,94.1015544 66.7523316,94.7829016 C61.3590674,95.5196891 55.4196891,96.6870466 49.584456,97.019171 C49.3326425,96.011399 48.6202073,95.1124352 47.3694301,94.734715 C45.915544,94.2948187 45.5316062,90.238342 45.2124352,89.0963731 C44.588601,86.8621762 43.9787565,84.6227979 43.3502591,82.3901554 C42.2632124,78.5305699 41.5948187,73.6984456 39.2777202,70.3823834 C38.888601,69.8253886 38.1331606,69.9419689 37.8958549,70.5626943 C36.0124352,75.4891192 37.3398964,82.488601 38.3720207,87.9088083 C37.8435233,88.1051813 37.3927461,88.5414508 37.1891192,89.2860104 C36.6590674,91.2259067 36.3917098,93.2865285 36.2818653,95.2932642 C36.257513,95.7341969 36.3813472,96.1357513 36.5870466,96.4880829 C36.2595855,96.8533679 36.1310881,97.3803109 36.4533679,97.8455959 C37.3031088,99.0725389 38.2958549,99.9715026 39.3875648,100.640415 C38.0689119,100.44456 36.746114,100.281347 35.3963731,100.258549 C34.8129534,100.248705 34.4683938,100.905181 34.7435233,101.396373 C38.4746114,108.049741 51.6471503,107.511399 58.1,107.594819 C68.4854922,107.729016 80.0450777,106.866839 90.1222798,104.250777 C91.4766839,103.898964 92.2870466,102.889637 92.6176166,101.724352 C95.0595855,98.8642487 95.3274611,94.4217617 95.2658031,90.7523316 C95.1595855,84.4735751 94.5362694,78.2181347 94.2440415,71.9487047 C93.9797927,66.2787565 93.3792746,60.4450777 93.8979275,54.7766839 C94.1590674,51.9274611 94.6321244,48.9088083 95.5911917,46.2046632 Z M88.3284974,50.9870466 C88.2134715,51.4165803 88.1248705,51.8528497 88.0336788,52.2880829 C87.3637306,50.2709845 86.2129534,49.3362694 84.580829,49.0046632 C84.8227979,48.9512953 85.0632124,48.892228 85.3025907,48.8233161 C87.019171,48.3279793 88.7642487,47.3937824 90.3870466,46.2388601 C89.4792746,47.7720207 88.7580311,49.3823834 88.3284974,50.9870466 Z" id="Shape" fill="#E0DFE6"></path>
                <path d="M29.6176166,43.9948187 C29.4746114,43.9813472 29.3290155,43.9782383 29.1849741,43.9678756 C25.0694301,40.2031088 20.5865285,37.0264249 15.9626943,33.8963731 C15.3626943,33.4901554 14.5564767,34.2984456 14.9606218,34.8984456 C17.107772,38.084456 19.2761658,41.2020725 21.6409326,44.1813472 C20.7854922,44.2290155 19.9352332,44.2626943 19.0968912,44.2601036 C17.2647668,44.2544041 16.807772,47.080829 18.6569948,47.5088083 C20.9585492,48.0414508 23.4694301,48.7352332 25.942487,49.1129534 C26.9528497,49.9865285 28.153886,49.9326425 29.1186528,49.3761658 C29.284456,49.3761658 29.4528497,49.3870466 29.6176166,49.3818653 C33.1362694,49.2725389 33.0243523,44.3165803 29.6176166,43.9948187 Z" id="Shape" fill="#E0DFE6"></path>
                <g id="Group" fill="#404D5F">
                    <path d="M42.384456,103.627979 C41.5803109,103.627979 40.7725389,103.601036 39.9637306,103.53057 C36.4196891,103.221762 33.1336788,101.98601 29.9559585,100.791192 C29.1248705,100.478756 28.292228,100.165803 27.4523316,99.8678756 L22.5036269,98.1124352 C22.0430052,97.9487047 21.4699482,97.7455959 20.9746114,97.3108808 C19.2512953,95.7984456 19.0450777,92.3673575 18.9658031,88.3704663 C18.9492228,87.5523316 18.9357513,86.8455959 18.8906736,86.3564767 C18.5238342,82.3507772 18.2181347,78.2746114 17.9823834,74.2419689 C17.511399,66.1585492 17.3067358,57.9585492 17.3740933,49.8601036 C16.3020725,48.826943 15.2134715,47.7559585 14.1119171,46.6725389 C10.9310881,43.5445596 7.64248705,40.3098446 4.36632124,37.5994819 C3.49585492,36.8782383 2.61968912,36.1637306 1.74352332,35.4497409 L1.65906736,35.380829 C1.37046632,35.1450777 1.07150259,34.9010363 0.816062176,34.8300518 C0.310880829,34.6875648 -0.0284974093,34.2124352 0.00207253886,33.6870466 C0.032642487,33.1621762 0.424352332,32.7295337 0.943523316,32.6471503 C5.49948187,31.9238342 10.2917098,30.4528497 14.4259067,29.1310881 C14.7948187,29.0139896 15.1984456,29.0943005 15.4937824,29.346114 C22.357513,35.2160622 29.1694301,41.6735751 35.7435233,48.5440415 C50.8958549,48.7766839 68.3450777,48.0792746 87.6181347,46.4637306 C89.2803109,44.6300518 91.0056995,42.6507772 92.6777202,40.7331606 C94.4528497,38.6979275 96.2875648,36.5932642 98.0523316,34.6554404 C98.4689119,34.1989637 99.1761658,34.1663212 99.6326425,34.5818653 C100.089119,34.9979275 100.12228,35.7051813 99.7062176,36.1621762 C97.9580311,38.0813472 96.1310881,40.1772021 94.3642487,42.2036269 C92.5854922,44.2440415 90.746114,46.3533679 88.9772021,48.2953368 C88.7870466,48.5041451 88.5253886,48.6326425 88.2440415,48.6564767 C68.5238342,50.3217617 50.6896373,51.0331606 35.2388601,50.7740933 C34.9393782,50.7689119 34.6549223,50.6440415 34.4481865,50.4274611 C27.9766839,43.6430052 21.2715026,37.261658 14.5119171,31.4523316 C11.2378238,32.4937824 7.59015544,33.6 3.95336788,34.3642487 C4.56839378,34.8668394 5.18238342,35.3699482 5.79430052,35.8761658 C9.14404145,38.6481865 12.4673575,41.9165803 15.6818653,45.0782383 C16.8958549,46.2720207 18.0948187,47.4512953 19.273057,48.5813472 C19.4953368,48.7953368 19.6202073,49.0911917 19.6170984,49.3994819 C19.5378238,57.6041451 19.7398964,65.9186528 20.2176166,74.1119171 C20.4512953,78.1202073 20.7549223,82.1715026 21.1196891,86.1528497 C21.1715026,86.7212435 21.1865285,87.465285 21.2036269,88.3259067 C21.2476684,90.5341969 21.3295337,94.6445596 22.4518135,95.6295337 C22.6238342,95.780829 22.9435233,95.8943005 23.2523316,96.0036269 L28.2010363,97.7590674 C29.053886,98.061658 29.9,98.3797927 30.7440415,98.6968912 C33.9207254,99.8911917 36.9202073,101.019171 40.1590674,101.301554 C42.1295337,101.472539 44.173057,101.360104 46.1502591,101.251813 L84.2129534,99.1595855 C86.0911917,99.0564767 87.442487,98.5766839 87.9212435,97.8440415 C88.2476684,97.3435233 88.2310881,96.6046632 87.8720207,95.6487047 C87.6549223,95.0704663 87.9476684,94.4253886 88.5259067,94.2082902 C89.1025907,93.9917098 89.7497409,94.2834197 89.9663212,94.8621762 C90.5896373,96.5217617 90.5316062,97.9362694 89.7943005,99.0663212 C88.8839378,100.461658 87.0471503,101.24456 84.3357513,101.393264 L46.273057,103.485492 C44.9984456,103.555959 43.6968912,103.627979 42.384456,103.627979 Z" id="Shape"></path>
                    <path d="M89.0145078,99.6564767 C88.4082902,99.6564767 87.9098446,99.1720207 87.8963731,98.5626943 L86.7699482,47.5502591 C86.7559585,46.9326425 87.246114,46.4207254 87.8637306,46.4072539 C88.4875648,46.4 88.9932642,46.8834197 89.0067358,47.5010363 L90.1331606,98.5134715 C90.1466321,99.1305699 89.6569948,99.642487 89.0145078,99.6564767 Z" id="Shape"></path>
                    <path d="M37.4699482,98.2699482 C36.8943005,98.2699482 36.4056995,97.8290155 36.3564767,97.2450777 C35.0430052,81.6274611 34.3740933,65.7611399 34.3683938,50.0870466 C34.3678756,49.4689119 34.8689119,48.9683938 35.4865285,48.9678756 C36.1046632,48.9678756 36.6051813,49.4683938 36.6056995,50.0860104 C36.611399,65.6979275 37.2772021,81.5010363 38.5854922,97.057513 C38.6373057,97.673057 38.1803109,98.2139896 37.5642487,98.2658031 C37.5326425,98.2689119 37.5010363,98.2699482 37.4699482,98.2699482 Z" id="Shape"></path>
                    <path d="M18.7658031,50.1787565 C18.1901554,50.1787565 17.7010363,49.7373057 17.6523316,49.1533679 C17.6005181,48.5378238 18.0580311,47.9968912 18.6735751,47.9455959 C23.8331606,47.5134715 29.0663212,47.5134715 34.2295337,47.9440415 C34.8450777,47.9953368 35.3025907,48.5357513 35.2512953,49.1512953 C35.2005181,49.7668394 34.665285,50.2259067 34.0440415,50.173057 C29.0051813,49.7533679 23.8968912,49.753886 18.8601036,50.1746114 C18.8284974,50.1777202 18.7968912,50.1787565 18.7658031,50.1787565 Z" id="Shape"></path>
                    <path d="M68.5316062,49.2683938 C68.238342,49.2683938 67.9455959,49.153886 67.7259067,48.9259067 C67.2974093,48.4813472 67.3103627,47.773057 67.7554404,47.3445596 C71.7398964,43.5051813 75.8533679,39.6854922 79.9813472,35.9911917 C80.1901554,35.8046632 80.4528497,35.6994819 80.7393782,35.7062176 C86.1533679,35.7564767 91.9067358,35.1160622 97.4699482,34.4911917 L98.5341969,34.3720207 C99.1497409,34.3041451 99.7010363,34.7450777 99.7699482,35.3595855 C99.838342,35.9735751 99.3963731,36.5264249 98.7823834,36.5953368 L97.7196891,36.7145078 C92.2362694,37.3305699 86.538342,37.9699482 81.1523316,37.9466321 C77.1523316,41.5326425 73.1694301,45.2357513 69.3072539,48.9559585 C69.0906736,49.1642487 68.8108808,49.2683938 68.5316062,49.2683938 Z" id="Shape"></path>
                    <path d="M54.4518135,39.0720207 C54.1974093,39.0720207 53.9414508,38.9854922 53.7326425,38.8098446 C51.8689119,37.2445596 49.8932642,35.773057 47.8590674,34.4367876 C45.3357513,32.7787565 42.6393782,31.2735751 40.0321244,29.8176166 L31.1139896,24.838342 C30.6927461,24.6036269 30.4699482,24.1248705 30.5606218,23.6512953 C30.6512953,23.1777202 31.0352332,22.815544 31.5134715,22.7523316 C33.4782383,22.4943005 35.4994819,22.4404145 37.453886,22.3875648 C39.3290155,22.3373057 41.2590674,22.2860104 43.1036269,22.0497409 C43.0512953,16.5683938 42.4145078,10.3704663 41.1145078,2.65595855 C41.0611399,2.3388601 41.1466321,2.01450777 41.3492228,1.76476684 C41.5518135,1.51502591 41.8523316,1.36476684 42.173057,1.35181347 C45.2284974,1.23005181 48.4647668,0.950259067 51.5953368,0.679792746 C54.7523316,0.406735751 58.0176166,0.124352332 61.126943,0.000518134715 C61.4414508,-0.00725388601 61.7606218,0.115025907 61.9823834,0.347668394 C62.2046632,0.58134715 62.3150259,0.899481865 62.2854922,1.22020725 C61.6020725,8.68497409 61.4823834,16.0673575 61.9284974,23.1803109 C62.6341969,23.0621762 63.3673575,22.9222798 64.1259067,22.7772021 C66.3528497,22.3518135 68.6626943,21.9186528 70.7673575,21.9455959 C71.238342,21.9533679 71.653886,22.2549223 71.8072539,22.7005181 C71.9606218,23.1455959 71.8181347,23.6393782 71.4518135,23.9352332 C65.6756477,28.5943005 60.2279793,33.5720207 55.2590674,38.7290155 C55.0388601,38.9564767 54.746114,39.0720207 54.4518135,39.0720207 Z M35.4357513,24.6891192 L41.1222798,27.8637306 C43.7647668,29.3388601 46.4968912,30.8637306 49.0875648,32.5668394 C50.9041451,33.7601036 52.6761658,35.0580311 54.3678756,36.4326425 C58.3911917,32.307772 62.7139896,28.3031088 67.2595855,24.4865285 C66.3606218,24.6279793 65.4455959,24.8025907 64.5435233,24.9751295 C63.5430052,25.1663212 62.5150259,25.3626943 61.5321244,25.5072539 C61.4388601,25.5870466 61.3497409,25.6409326 61.2839378,25.6746114 C60.8544041,25.8958549 60.3310881,25.838342 59.9518135,25.5259067 C59.5601036,25.2031088 59.3958549,24.6901554 59.5336788,24.219171 C59.5725389,24.0860104 59.6398964,23.9601036 59.7279793,23.8487047 C59.261658,16.8621762 59.334715,9.62124352 59.9440415,2.29430052 C57.2689119,2.43419689 54.4880829,2.67512953 51.7865285,2.90829016 C49.0569948,3.14455959 46.2471503,3.38756477 43.5264249,3.52953368 C44.7818653,11.246114 45.3606218,17.4663212 45.3435233,23.0186528 C45.3414508,23.5637306 44.9476684,24.0279793 44.4103627,24.1186528 C42.1352332,24.5010363 39.7854922,24.5637306 37.5134715,24.6243523 C36.8264249,24.642487 36.1316062,24.6611399 35.4357513,24.6891192 Z" id="Shape"></path>
                </g>
            </g>
        </g>
    </g>
</svg>