<?xml version="1.0" encoding="UTF-8"?>
<svg width="102px" height="87px" viewBox="0 0 102 87" version="1.1" xmlns="http://www.w3.org/2000/svg" xmlns:xlink="http://www.w3.org/1999/xlink">
    <!-- Generator: Sketch 48.2 (47327) - http://www.bohemiancoding.com/sketch -->
    <title>individual</title>
    <desc>Created with Sketch.</desc>
    <defs></defs>
    <g id="01_Type_of_account" stroke="none" stroke-width="1" fill="none" fill-rule="evenodd" transform="translate(-497.000000, -289.000000)">
        <g id="card" transform="translate(383.000000, 250.000000)">
            <g id="individual" transform="translate(115.000000, 40.000000)">
                <path d="M50.2647712,0.245341983 C61.0580215,9.72554746 65.1763557,18.946728 62.6197738,27.9088835 C58.7849009,41.3521168 44.7389051,41.8717958 47.5018381,45.3710766 C50.2647712,48.8703574 66.350385,45.0990189 70.4752356,48.8703574 C74.6000861,52.6416959 87.3395535,63.6461846 85.2445464,71.4185629 C83.1495394,79.1909413 72.892802,80.9992288 75.6769132,82.6576403 C78.4610244,84.3160518 101.31224,84.8161818 100.81211,78.1173724 C100.31198,71.4185629 101.089055,48.1160897 75.6769132,38.0124866 C70.4752356,36.0054503 75.1490888,13.9785529 66.2282035,6.74866085 C60.2809466,1.92873281 54.9598025,-0.23904015 50.2647712,0.245341983 Z" id="Path-3" fill="#E0DFE6"></path>
                <circle id="Oval" stroke="#404D5F" stroke-width="2" cx="49" cy="23" r="23"></circle>
                <path d="M27.4731859,43.1060825 C8.34895179,49.8592944 -0.432946723,61.3802455 1.12749038,77.6689357 C34.2696117,90.2175494 94.2031832,81.8281281 96.3662474,77.6689357 C98.5293116,73.5097433 95.5266682,47.263499 72.2653081,43.1060825" id="Path-2" stroke="#404D5F" stroke-width="2" stroke-linecap="round" stroke-linejoin="round"></path>
            </g>
        </g>
    </g>
</svg>