<?xml version="1.0" encoding="UTF-8"?>
<svg width="109px" height="86px" viewBox="0 0 109 86" version="1.1" xmlns="http://www.w3.org/2000/svg" xmlns:xlink="http://www.w3.org/1999/xlink">
    <!-- Generator: Sketch 48.2 (47327) - http://www.bohemiancoding.com/sketch -->
    <title>10</title>
    <desc>Created with Sketch.</desc>
    <defs></defs>
    <g id="d_Gift-Flow-11_V2" stroke="none" stroke-width="1" fill="none" fill-rule="evenodd" transform="translate(-751.000000, -289.000000)">
        <g id="card" transform="translate(729.000000, 250.000000)" fill-rule="nonzero">
            <g id="10" transform="translate(22.000000, 39.000000)">
                <path d="M91.464894,4.81523687 C90.7752829,3.59840326 88.6853083,3.75101959 88.3873158,5.22443302 C88.2710383,5.80007317 88.1753988,6.38339534 88.0923434,6.97132674 C87.3126299,6.35113082 85.9515288,6.67633677 85.8881048,8.00737657 C85.6802147,12.3605271 84.3362281,15.7785185 82.3207516,19.2825486 C79.1742122,19.3803665 75.9869002,20.1219385 73.0588216,21.2353208 C72.2156839,21.5559175 70.0401371,23.1107605 69.1985095,23.1445614 C69.4738506,22.9724839 67.2147451,21.2010077 67.0118886,21.0535127 C66.4093598,20.615637 65.7106882,21.3362114 65.8476036,21.9640894 C66.0902259,23.0759353 66.8065154,24.505305 66.8930943,25.621248 C67.0083651,27.1023435 67.9400951,27.9550488 69.3595866,28.1307113 C69.4522059,28.1419782 69.5468386,28.1368569 69.6399613,28.1419782 C67.5922694,29.136033 65.7031377,30.4501723 64.0334734,32.003991 C64.44573,31.3791858 64.751273,30.7041914 64.7658706,29.9037239 C64.8101668,27.4239645 62.6597883,22.5105378 60.5823978,21.1216267 C57.3170641,18.9378815 55.4465569,21.3218716 54.4554297,24.6487029 C50.4647459,27.7338064 49.1524714,36.1533117 48.3782948,40.0849748 C47.5281101,44.4012516 44.547178,57.8222709 51.3959726,58.9315561 C53.415476,59.2588106 54.8581223,58.4076416 55.6348157,56.4830369 C55.6740782,56.385219 55.7138441,56.2874012 55.7531066,56.1900955 C56.6239294,54.0329813 55.2663519,52.5585436 53.5262165,52.1595902 C54.2354589,51.8681852 53.7225291,49.3638433 53.721019,48.9951058 C53.7149787,47.6968427 53.8468605,46.3791184 53.9560909,45.087513 C54.0396496,44.1006282 54.1332756,43.1142555 54.2334454,42.1283949 C55.1143355,42.9324474 56.364696,43.2197554 57.497269,42.930911 C57.2098471,44.0780942 57.015548,45.2529327 56.9284657,46.4492809 C56.1039526,49.6065954 55.8950558,52.8458516 56.4688927,55.9534889 C56.6586616,56.9808325 58.2281561,56.9244976 58.4556774,55.9534889 C59.9798689,49.4457849 61.7597703,43.3672503 66.4264743,38.3959524 C70.9401551,33.5875135 76.2169384,31.9855541 82.1828294,29.9211365 C83.9657509,29.3040134 84.1625669,27.0833944 83.0013021,26.056563 C83.1583522,26.052466 83.3143956,26.048881 83.4719491,26.0447839 C83.9914226,26.0309563 84.4454585,25.9182865 84.8390905,25.7375027 C85.1189619,28.6592349 88.6551064,30.8132763 91.1986136,28.2254563 C93.9404469,25.4353429 93.979206,20.6719719 93.9993407,16.9364566 C94.0209854,12.8117184 93.5166129,8.43603386 91.464894,4.81523687 Z M56.3344941,30.4168835 C56.6974208,29.3075983 57.1283019,28.21675 57.6729437,27.1305109 C57.7665697,27.6088453 57.838551,28.0912768 57.894928,28.5547593 C57.3296482,29.136033 56.8041343,29.7536682 56.3344941,30.4168835 Z" id="Shape" fill="#E0DFE6"></path>
                <path d="M105.97572,46.2181651 C105.435938,45.5800445 104.784441,45.2438414 104.109079,45.1363793 C103.70183,44.0765977 103.258528,43.0321678 102.779173,42.0123007 C102.456217,41.3250546 101.250213,41.6423238 101.326889,42.4088872 C101.355326,42.6928944 101.374114,42.9794602 101.39798,43.2644908 C100.854643,41.850084 100.134087,40.5016897 99.2058446,39.2684335 C98.6437195,38.5208038 97.5463822,38.949629 97.7083677,39.9045071 C98.2643993,43.189779 98.3644342,46.2104892 97.9576933,49.1099207 C97.6616509,49.2204532 97.3808422,49.3673182 97.1386257,49.5771252 C96.982226,48.5787506 96.280966,47.7277526 95.3689726,47.3808033 C96.6618096,45.1092579 93.5815468,42.5265839 91.3112114,44.3902848 C88.5137885,46.6863931 86.1154896,49.6262508 83.8263659,52.4248726 C81.8124651,54.8867795 79.4456493,57.4848053 78.0136775,60.3612091 C75.6301046,57.8056566 73.1947369,55.214795 70.3455193,53.4053369 C69.6940229,52.9913517 68.7256646,53.6852502 68.9947941,54.4518136 C70.6791382,59.2461613 74.5972568,63.4013649 77.759274,67.2894483 C78.6514635,68.3860741 80.3363154,68.1005318 81.2681127,67.2894483 C86.3516126,62.8620072 91.6808835,57.620924 96.0240235,52.3977512 C94.9312564,58.7318781 92.3064826,64.4519355 86.2018141,67.4450126 C83.1190124,68.956647 79.5822452,69.3752377 76.1952764,69.1122113 C72.4990627,68.8246221 69.6589853,67.1118799 66.180614,66.229155 C65.3427582,66.0162775 64.8268421,66.8729045 65.1426884,67.5903424 C65.386936,68.1455635 65.7134459,68.6690578 66.0917505,69.1669658 C65.7819978,69.0487574 65.4737684,68.9285022 65.1675701,68.8051765 C65.0396067,68.7534923 64.9091043,68.7606565 64.7867266,68.7985241 C64.286552,68.5615956 63.7020841,68.4546452 63.0592202,68.5610839 C61.720682,68.7826606 60.4146425,69.3481163 59.1847716,70.1371956 C57.2262201,69.9795845 55.1782973,70.4800511 53.1943563,70.4084097 C52.7799985,70.3935696 52.3661485,70.3628662 51.9522985,70.3270454 C50.9935883,69.4054295 49.4890023,69.3619329 48.2860444,69.9821431 C47.4913508,65.1002905 46.6829469,60.2348132 46.543812,55.1958612 C46.3290163,47.4079247 46.950553,39.691118 47.7691127,31.9558891 C47.8985996,30.7338908 46.1868347,30.7267267 45.8064989,31.6882572 C42.8460749,39.1609713 41.3536759,47.1756018 40.9433805,55.1958612 C40.6442913,61.0382208 40.5737083,67.6742652 41.6410859,73.7607174 C32.6186479,75.4248458 22.8675293,74.8854881 14.4793229,79.0396682 C13.5668217,79.491521 14.0857845,80.7892546 14.9632481,80.8409388 C15.6421652,80.881365 16.3226057,80.9002988 17.003554,80.9069512 C16.2504993,81.1940287 15.5629497,81.6167132 15.0069181,82.3075414 C14.2173025,83.2885175 15.1765205,84.5964855 16.338855,84.047405 C18.554349,83.0004165 23.0117421,84.1507734 25.3892215,84.3211777 C28.5121387,84.5448013 31.6355638,84.7167408 34.7600044,84.9127313 C40.9814648,85.3026654 47.2582746,85.9187818 53.4893831,85.9996343 C56.3528189,86.0369902 57.1901669,83.2040829 56.1608737,81.2656702 C56.6986249,80.5507909 57.2358682,79.8354 57.7731115,79.1205207 C58.3174639,78.3964304 58.9212279,77.6810395 59.4498388,76.9262457 C61.1869932,75.4555492 63.1440213,74.6966617 65.1061274,73.4577765 C65.720555,73.0698892 66.0876882,72.5745398 66.2684619,72.0510456 C70.8345224,76.340321 77.9486802,78.5320374 84.6825022,78.1692247 C85.9240522,78.5586471 87.1920074,78.7745949 88.4630093,78.8324198 C89.1002875,79.1358725 89.841663,79.2607333 90.6434657,79.09954 C91.438667,78.9393702 92.21051,78.70193 92.9605179,78.4051298 C97.7103989,77.2946874 102.068265,74.1956833 104.662571,70.1008632 C108.734551,63.6720672 111.331396,52.5507568 105.97572,46.2181651 Z" id="Shape" fill="#E0DFE6"></path>
                <g id="Group" fill="#404D5F">
                    <path d="M2.86986275,82.9933804 C2.32406373,82.9933804 1.85904902,82.5839816 1.78886765,82.0335337 C0.568519608,72.4045153 0,64.6488528 0,57.6259325 C0,18.0792331 9.85518137,17.837362 36.1923824,17.1906748 L38.2427892,17.1397546 C49.2668186,16.8571472 56.0996569,17.3184847 59.3426422,17.641319 C60.0545539,17.5741043 60.7689902,17.6433558 61.4092059,17.8857362 C61.5071569,17.8999939 61.5672402,17.9096687 61.5894559,17.9132331 C61.8742206,17.9595706 62.1155637,18.1133497 62.279152,18.3272147 C65.1399265,20.1618712 66.8091324,25.2116319 67.7487549,29.5887362 C67.8764951,30.1819571 67.5023627,30.7670307 66.914152,30.8958589 C66.3244265,31.0272331 65.7453039,30.6473681 65.6180686,30.0541472 C64.4295294,24.5180982 62.6800441,20.908362 60.8149363,20.0248957 C60.5003824,19.9841595 60.0136569,19.925092 59.3476912,19.8573681 C52.5981618,20.8849387 46.7988578,39.8868466 46.7988578,61.465319 C46.7988578,67.1785706 47.1290637,73.243681 47.838451,80.5517546 C47.8682402,80.8577853 47.7687745,81.1622883 47.5658039,81.3919387 C47.3628333,81.6210798 47.0735245,81.7539816 46.7685637,81.7585644 C31.8148824,81.971411 16.902098,82.4851963 2.9092451,82.9933804 C2.89712745,82.9933804 2.8834951,82.9933804 2.86986275,82.9933804 Z M44.7408775,19.2529448 C42.7773137,19.2529448 40.6314804,19.2784049 38.2983284,19.3379816 L36.245902,19.3889018 C10.0778431,20.0310061 2.18016667,20.2250123 2.18016667,57.6259325 C2.18016667,64.3107423 2.7047598,71.6839939 3.82715686,80.7595092 C17.1727255,80.2762761 31.3311863,79.7940613 45.5552843,79.5766319 C44.9170882,72.7212393 44.6186912,66.9377178 44.6186912,61.4648098 C44.6186912,50.8881656 46.0571569,40.136865 48.5660147,31.9677301 C50.4068873,25.973908 52.6723824,21.7831718 55.2534412,19.5360613 C52.6420882,19.3807546 49.1532157,19.2529448 44.7408775,19.2529448 Z" id="Shape"></path>
                    <path d="M79.8689265,75.5814294 C66.3845098,75.5814294 54.9929118,63.3177975 54.9929118,48.8009448 C54.9929118,37.5674294 63.5681667,27.4383742 74.9400735,25.2401472 C76.5406127,24.9305521 78.177,24.7737178 79.8053088,24.7737178 C93.1665294,24.7737178 102.863676,34.5422577 102.863676,48.0009877 C102.863676,64.7552761 93.8375441,75.5814294 79.8689265,75.5814294 Z M75.3505588,27.3996748 C64.987951,29.4028773 57.1735833,38.6036564 57.1735833,48.8009448 C57.1735833,61.8955951 67.7785441,73.382184 79.8694314,73.382184 C92.5136912,73.382184 100.68351,63.4191288 100.68351,48.0009877 C100.68351,34.1954908 90.1805392,26.972454 79.8053088,26.972454 C78.3148382,26.972454 76.8157843,27.1160491 75.3505588,27.3996748 Z" id="Shape"></path>
                    <path d="M77.8755735,64.6300123 C77.5635441,64.6269571 77.27575,64.4981288 77.0712647,64.2730613 C75.8948431,62.9766319 74.7042843,61.6929325 73.5147353,60.4082147 C70.3666716,57.0103067 67.1115686,53.4963006 64.1260833,49.7842147 C63.7898186,49.3661595 63.8029461,48.7642822 64.1573873,48.3615031 C66.2047647,46.0364847 68.5949706,43.9686135 70.704451,42.1441411 C71.1260441,41.7795521 71.7541422,41.7927914 72.1590735,42.1767301 C73.6369216,43.5729632 74.9218971,45.1764417 76.1654706,46.7279816 C76.7531765,47.4602147 77.3540098,48.2107791 77.971,48.9313006 C81.6931373,45.6464356 85.1693873,42.7648589 88.5734363,40.1439939 C89.0460245,39.7783865 89.7195637,39.8649509 90.0896569,40.3349448 C91.1888284,41.7347423 92.4500735,43.0179325 93.6694118,44.2588589 C94.1071618,44.7039018 94.5428922,45.1479264 94.971049,45.5955153 C95.172,45.805816 95.2820686,46.0879141 95.2760098,46.3801963 C95.2704559,46.6719693 95.1497843,46.9499939 94.94025,47.1521472 C91.0444265,50.9207546 87.2137353,55.0682086 83.5082598,59.0791963 C81.8981275,60.8232147 80.2869853,62.5672331 78.6652402,64.287319 C78.4597451,64.5067853 78.1744755,64.6300123 77.8755735,64.6300123 Z M66.4137941,49.1314172 C69.1892402,52.5181227 72.1949216,55.7627607 75.1082059,58.9075951 C76.0367206,59.9097055 76.9647304,60.911816 77.8871863,61.9195276 C79.2337598,60.4825583 80.5727598,59.0318405 81.9127696,57.5811227 C85.3890196,53.8181166 88.9753382,49.9354479 92.6399167,46.3369141 C92.4672402,46.1602209 92.2935539,45.9835276 92.1203725,45.8073436 C91.0989559,44.7680613 90.0492647,43.700773 89.0636961,42.5372454 C85.7177108,45.1474172 82.2838725,48.0233926 78.5970784,51.304184 C78.15125,51.698816 77.4726618,51.6641902 77.0727794,51.2222025 C76.1599167,50.2185644 75.3015833,49.1466933 74.4705147,48.1104663 C73.4364755,46.8201472 72.4493922,45.5883865 71.3663775,44.4706871 C69.7299902,45.891362 67.9784853,47.4510491 66.4137941,49.1314172 Z" id="Shape"></path>
                    <path d="M47.6819314,60.1668528 C47.127549,60.1668528 46.6534461,59.7421779 46.5984118,59.173908 C46.540348,58.5699939 46.9786029,58.0317669 47.5779216,57.9732086 C49.5899559,57.7751288 51.6898431,57.6870368 54.3875343,57.6870368 C55.5947549,57.6870368 56.7984412,57.7043497 58.0051569,57.7216626 L58.0834167,57.722681 C58.6852598,57.7313374 59.1664314,58.2303558 59.157848,58.8378344 C59.1492647,59.4392025 58.6630441,59.9214172 58.0677647,59.9214172 C58.0521127,59.9214172 57.9738529,59.9203988 57.9738529,59.9203988 C56.7782451,59.9030859 55.584152,59.885773 54.3875343,59.885773 C51.7630539,59.885773 49.728299,59.9708098 47.7894755,60.1612515 C47.7526176,60.1653252 47.7172745,60.1668528 47.6819314,60.1668528 Z" id="Shape"></path>
                    <path d="M86.0544804,23.6906442 C85.8671618,23.6911534 85.6768137,23.6417607 85.5036324,23.539411 C84.9840882,23.232362 84.810402,22.5586871 85.1148578,22.0347178 C87.8559706,17.3215399 88.2255588,11.8450675 88.2255588,7.10948466 C88.2255588,5.49989571 88.1796127,3.85211656 88.1346765,2.25831288 C74.2736029,3.0088773 64.2033333,3.28944785 51.3823578,3.28944785 C48.600348,3.28944785 45.7486618,3.27569939 42.8899069,3.24871166 C42.9318137,4.59809816 42.9525147,5.84055215 42.9525147,7.02037423 C42.9525147,11.3165153 42.6662353,15.025546 42.0790343,18.3592945 C41.9740147,18.9570982 41.4085245,19.3563129 40.8147598,19.2493804 C40.2220049,19.1429571 39.8266667,18.5721411 39.9326961,17.9743374 C40.4976814,14.7694172 40.772348,11.1861595 40.772348,7.02037423 C40.772348,5.5411411 40.7390245,3.95803067 40.6708627,2.18040491 C40.6597549,1.87946626 40.7708333,1.58718405 40.9788529,1.37128221 C41.1868725,1.15588957 41.4736569,1.0372454 41.771549,1.0382638 C45.0044363,1.07288957 48.2378284,1.09071166 51.3823578,1.09071166 C64.5022353,1.09071166 74.7340735,0.795883436 89.1333725,0.00254601227 C89.4221765,-0.0173128834 89.7155245,0.0901288344 89.9316225,0.291773006 C90.1482255,0.492907975 90.274451,0.77398773 90.2820245,1.07034356 L90.3133284,2.18600613 C90.3587696,3.79865031 90.4057255,5.46577914 90.4057255,7.11050307 C90.4057255,12.1414233 90.0002892,17.9804479 86.9956176,23.1478344 C86.7921422,23.496638 86.4281078,23.6906442 86.0544804,23.6906442 Z" id="Shape"></path>
                    <g transform="translate(12.622549, 24.441718)" id="Shape">
                        <path d="M9.56132843,2.62442945 C8.95948529,2.62442945 8.4712451,2.13253988 8.4712451,1.52506135 C8.4712451,0.917582822 8.95948529,0.425693252 9.56132843,0.425693252 C17.0808333,0.425693252 24.8563235,0.425693252 32.3541176,0.125263804 C32.9817108,0.121699387 33.4628824,0.574380368 33.4866127,1.18033129 C33.5098382,1.78679141 33.042299,2.29853988 32.4404559,2.32247239 C24.90025,2.62442945 17.1020392,2.62442945 9.56132843,2.62442945 Z"></path>
                        <path d="M6.15273529,10.5241963 C4.9192598,10.5241963 3.71052451,10.5038282 2.56086275,10.4636012 C1.95901961,10.4427239 1.48845098,9.93352147 1.50915196,9.32706135 C1.53035784,8.72009202 2.05192157,8.2582454 2.63609314,8.26639264 C3.76101471,8.30560123 4.944,8.32546012 6.15273529,8.32546012 C11.9560784,8.32546012 17.9300784,7.87074233 23.7081765,7.43180982 C25.3804118,7.3045092 27.0460833,7.17771779 28.7016569,7.06212883 C29.2999657,7.02292025 29.8230441,7.47712883 29.8639412,8.08307975 C29.905848,8.68852147 29.4524461,9.2135092 28.8521176,9.25577301 C27.2015931,9.37085276 25.5399608,9.49713497 23.8722696,9.62392638 C18.0537794,10.0669325 12.0378725,10.5241963 6.15273529,10.5241963 Z"></path>
                        <path d="M5.49636275,17.4788834 C4.05486765,17.4788834 2.59772059,17.4518957 1.16581863,17.3984294 C0.56397549,17.3760245 0.0949215686,16.8658037 0.116632353,16.2588344 C0.139352941,15.6523742 0.619009804,15.1874724 1.24660294,15.2012209 C8.80296569,15.4843374 16.4870686,15.0133252 25.0007255,13.7418466 C25.5919657,13.6542638 26.1498824,14.0677362 26.2387451,14.6685951 C26.3276078,15.2689448 25.9156078,15.8280491 25.3203284,15.9171595 C18.2830049,16.9681534 11.798549,17.4788834 5.49636275,17.4788834 Z"></path>
                    </g>
                    <g transform="translate(12.573529, 47.355828)" id="Shape">
                        <path d="M1.28148529,6.56718405 C0.731647059,6.56718405 0.258553922,6.14861963 0.19897549,5.58442331 C0.046495098,4.14236196 0.046495098,2.70895706 0.046495098,1.32290798 C0.046495098,0.715429448 0.534735294,0.223539877 1.13657843,0.223539877 C1.73842157,0.223539877 2.22666176,0.715429448 2.22666176,1.32290798 C2.22666176,2.65192638 2.22666176,4.0257546 2.36651961,5.35120859 C2.43064216,5.9551227 1.99693137,6.49691411 1.39862255,6.56107362 C1.35873529,6.56514724 1.32036275,6.56718405 1.28148529,6.56718405 Z"></path>
                        <path d="M4.98393137,26.5895337 C4.48862255,26.5895337 4.04026961,26.2468405 3.92313235,25.7391656 C3.59090686,24.3016871 3.24757353,22.814816 3.04662255,21.3141963 C2.96583824,20.7128282 3.38440196,20.158816 3.98069118,20.0778528 C4.57698039,19.9994356 5.12681863,20.418 5.20709804,21.0198773 C5.39441667,22.4171288 5.72613725,23.8525706 6.04675,25.2401472 C6.18307353,25.8313313 5.81903922,26.4225153 5.23284804,26.5605092 C5.14852941,26.5798589 5.06572549,26.5895337 4.98393137,26.5895337 Z"></path>
                        <path d="M19.2241863,12.7697791 C18.2790098,12.7697791 17.3343382,12.7519571 16.3972402,12.734135 C15.4904363,12.7168221 14.5912059,12.7000184 13.7081324,12.7000184 C13.1062892,12.7000184 12.618049,12.2081288 12.618049,11.6006503 C12.618049,10.9931718 13.1062892,10.5012822 13.7081324,10.5012822 C14.6043333,10.5012822 15.5171961,10.5185951 16.4376324,10.5353988 C17.361098,10.5532209 18.2926422,10.5705337 19.2241863,10.5705337 C21.4290931,10.5705337 23.0791127,10.4676748 24.5746324,10.2359877 C25.1673873,10.1407669 25.7263137,10.5547485 25.8171961,11.1556074 C25.9085833,11.7559571 25.5006225,12.3170982 24.9053431,12.4087546 C23.2967255,12.658773 21.5452206,12.7697791 19.2241863,12.7697791 Z"></path>
                        <path d="M14.9905833,17.422362 C14.3887402,17.422362 13.9005,16.9304724 13.9005,16.3229939 C13.9005,15.7155153 14.3887402,15.2236258 14.9905833,15.2236258 C18.3739314,15.2236258 21.8612892,14.9405092 25.0754951,14.4048282 C25.663201,14.3034969 26.2302059,14.7113681 26.3281569,15.3101902 C26.4266127,15.9095215 26.0242059,16.4752454 25.4304412,16.5740307 C22.1016225,17.1290613 18.4910686,17.422362 14.9905833,17.422362 Z"></path>
                    </g>
                </g>
            </g>
        </g>
    </g>
</svg>