<?xml version="1.0" encoding="UTF-8"?>
<svg width="17px" height="17px" viewBox="0 0 17 17" version="1.1" xmlns="http://www.w3.org/2000/svg" xmlns:xlink="http://www.w3.org/1999/xlink">
    <!-- Generator: Sketch 48.2 (47327) - http://www.bohemiancoding.com/sketch -->
    <title>linkedin</title>
    <desc>Created with Sketch.</desc>
    <defs></defs>
    <g id="footer" stroke="none" stroke-width="1" fill="none" fill-rule="evenodd" transform="translate(-1220.000000, -48.000000)">
        <g fill="#FFFFFF" fill-rule="nonzero" id="linkedin">
            <g transform="translate(1213.000000, 42.000000)">
                <g transform="translate(7.000000, 6.000000)">
                    <path d="M3.72311824,5 L0.276881758,5 C0.123932275,5 0,5.12798674 0,5.28581228 L0,16.7141877 C0,16.8720704 0.123932275,17 0.276881758,17 L3.72311824,17 C3.87606773,17 4,16.8720704 4,16.7141877 L4,5.28581228 C4,5.12798674 3.87606773,5 3.72311824,5 Z" id="XMLID_802_"></path>
                    <path d="M2.00080391,0 C0.897550518,0 0,0.897013125 0,1.99958566 C0,3.10264566 0.897550518,4 2.00080391,4 C3.10318031,4 4,3.10259691 4,1.99958566 C4.00004872,0.897013125 3.10318031,0 2.00080391,0 Z" id="XMLID_803_"></path>
                    <path d="M12.7070512,5 C11.3581178,5 10.3609487,5.60000558 9.75612784,6.28176158 L9.75612784,5.5566734 C9.75612784,5.40249793 9.63534716,5.27747117 9.48628719,5.27747117 L6.26984065,5.27747117 C6.12078067,5.27747117 6,5.40249793 6,5.5566734 L6,16.7207419 C6,16.8749732 6.12078067,16.9999442 6.26984065,16.9999442 L9.62109958,16.9999442 C9.77015955,16.9999442 9.89094022,16.8749732 9.89094022,16.7207419 L9.89094022,11.1971168 C9.89094022,9.33578721 10.3795677,8.61064319 11.6335711,8.61064319 C12.9992886,8.61064319 13.1078185,9.77312958 13.1078185,11.2928831 L13.1078185,16.7207978 C13.1078185,16.8750291 13.2285992,17 13.3776592,17 L16.7301594,17 C16.8792193,17 17,16.8750291 17,16.7207978 L17,10.5971112 C17,7.82937952 16.4899472,5 12.7070512,5 Z" id="XMLID_804_"></path>
                </g>
            </g>
        </g>
    </g>
</svg>