<?xml version="1.0" encoding="UTF-8"?>
<svg width="200px" height="82px" viewBox="0 0 200 82" version="1.1" xmlns="http://www.w3.org/2000/svg" xmlns:xlink="http://www.w3.org/1999/xlink">
    <!-- Generator: Sketch 48.2 (47327) - http://www.bohemiancoding.com/sketch -->
    <title>logo_byzumi</title>
    <desc>Created with Sketch.</desc>
    <defs></defs>
    <g id="top_menu" stroke="none" stroke-width="1" fill="none" fill-rule="evenodd" transform="translate(-620.000000, -16.000000)">
        <g fill="#404D5F" fill-rule="nonzero" id="logo_byzumi">
            <g transform="translate(620.000000, 16.000000)">
                <path d="M96.0568132,0 C95.1805973,2.55344836 92.6249678,3.29820414 90.9455541,5.17782585 C93.5742016,5.92258162 96.0203042,6.59640827 98.4664067,7.30569949 C99.1235686,7.48302229 99.8172395,7.66034509 100.437892,7.94406158 C102.482396,8.97253384 104.5269,10.0010061 106.498385,11.2068012 C107.447619,11.7742341 108.214308,12.589919 108.980997,13.3701394 C109.930231,14.3276825 110.769938,15.3916193 111.646153,16.384627 C112.558878,17.4130993 112.85095,18.6543589 112.960477,20.0020122 C112.996986,20.5339806 113.033495,21.065949 113.106513,21.5979174 C113.362076,23.2292872 112.631896,24.6478696 111.901716,25.9600584 C110.222303,28.974546 107.41111,30.996026 104.818972,33.2302933 C102.957013,34.8261985 100.876,36.0674581 98.8680056,37.3796469 C93.5376926,40.8906384 88.1343616,44.2952362 82.8040485,47.8062277 C82.1468867,48.2318024 81.5992518,48.9056291 81.0151079,49.4730621 C81.0516169,49.5794557 81.0881259,49.721314 81.1246348,49.8277077 C81.5262338,49.8986368 81.9278327,50.1114241 82.3294316,50.0759596 C84.2278993,49.7567785 86.053349,49.2957393 87.9518166,49.0120228 C90.7630091,48.586448 93.6107106,48.267267 96.4219031,47.948086 C97.9552808,47.7707631 99.4886585,47.4870467 101.022036,47.4161175 C103.030031,47.3451884 105.038026,47.380653 107.009511,47.4515821 C108.323835,47.4870467 109.674668,47.6643695 110.988991,47.8416923 C114.712909,48.3027316 121.686127,49.9695659 124.643355,51.5300066 C125.117972,51.7782585 125.592589,52.061975 126.030697,52.3456915 C126.28626,52.5230143 126.541823,52.7712662 126.797386,52.9840536 C126.359278,53.6933448 125.884661,53.7642739 125.227499,53.3032346 C123.182995,51.8137231 120.736893,51.1398964 118.29079,50.5369989 C115.808179,49.9341013 113.362076,49.3312038 110.842955,48.9410936 C106.936493,48.3736607 102.993522,48.267267 99.0505506,48.6573772 C95.4361603,49.0120228 91.8582789,49.4021329 88.2438886,49.8986368 C86.3454209,50.1468887 84.5199712,50.6788571 82.6215036,51.0335027 C82.0738687,51.1398964 81.4532158,51.1398964 80.9055809,51.1044318 C79.7372931,50.9980382 79.2261672,50.1114241 79.8103111,49.153881 C80.321437,48.3027316 81.0151079,47.4870467 81.8183057,46.9196137 C83.6072464,45.607425 85.542223,44.472559 87.4041817,43.2667639 C89.2296314,42.0609689 91.09159,40.8551738 92.9170397,39.6848433 C95.2536153,38.1953318 97.6632089,36.7767494 99.9267665,35.2163087 C102.591923,33.3721515 105.257079,31.4925298 107.703182,29.3646562 C110.842955,26.633885 112.157279,23.087429 111.500117,18.9735399 C111.427099,18.4415715 111.171536,17.8741385 110.879464,17.4130993 C109.382596,15.0015091 107.447619,13.0154937 104.965008,11.4905176 C100.876,9.0079984 96.4584121,7.37662861 91.7487519,6.41908547 C90.2518832,6.09990443 88.8645415,6.31269179 87.5867267,7.1993058 C83.6802644,9.85914785 79.2261672,11.384124 74.881597,13.0864229 C73.4212372,13.6538558 71.7053145,13.8666432 70.0989188,13.9021078 C68.1639422,13.9730369 67.3607443,12.4125962 68.4925231,10.8876201 C69.076667,10.1073998 69.8798649,9.39810856 70.7560807,8.86614015 C75.3197049,6.13536899 80.357946,5.00050305 85.615241,5.10689673 C88.5359605,5.17782585 90.8725361,4.5039992 92.8805307,2.48251924 C93.8297646,1.56044067 94.8885254,0.886614015 96.0568132,0 Z M72.1434225,12.4835253 C72.1434225,12.5544545 72.1799315,12.6253836 72.1799315,12.6608481 C74.0418901,12.1643443 76.0133758,11.9160924 77.7658074,11.135872 C81.0516169,9.71728961 84.1913903,8.05045526 87.3676727,6.45455003 C87.5137087,6.38362091 87.5867267,6.17083355 87.6962537,6.0289753 C87.5137087,5.92258162 87.3311637,5.70979426 87.1486188,5.70979426 C86.1628759,5.70979426 85.1406241,5.74525882 84.1548813,5.8516525 C82.5119766,5.99351074 80.8325629,6.17083355 79.1896582,6.41908547 C78.5324963,6.52547915 77.9118434,6.88012476 77.2911905,7.12837668 C77.1451546,7.1993058 76.9991186,7.34116405 76.8165736,7.37662861 C74.699052,7.55395141 73.0561473,8.75974647 71.2672066,9.71728961 C70.8656077,9.93007697 70.5005178,10.2137935 70.1719368,10.4975099 C69.6243019,10.9585492 69.5877929,11.5969113 69.9528829,12.0934152 C70.1354278,12.3416671 70.6830627,12.4125962 71.0846617,12.4835253 C71.4497516,12.589919 71.7783325,12.4835253 72.1434225,12.4835253 Z" id="XMLID_62_"></path>
                <path d="M150.199091,40.292861 C148.861669,40.7587853 148.298544,41.5472725 147.80581,42.4432807 C147.101903,43.6976922 146.327607,44.9162634 145.588505,46.1706749 C145.482919,46.1706749 145.377333,46.1348346 145.271747,46.1348346 C145.201357,45.8839523 145.02538,45.5613893 145.130966,45.3821877 C146.292411,43.3751293 147.383466,41.3680709 148.685692,39.4685335 C149.389599,38.3933236 150.938192,38.5366849 151.642098,39.6477351 C152.029247,40.2570207 152.275614,41.0455079 152.3812,41.7981548 C152.873934,45.202986 153.261083,48.5719769 153.718622,51.9768081 C155.020848,52.2276904 155.020848,52.2276904 155.619168,51.0091193 C157.308543,47.711809 158.962723,44.4144988 160.687293,41.0813483 C161.215223,40.0419787 161.883933,39.1101302 163.045379,38.6442059 C163.573308,38.4291639 163.925261,38.4650043 164.242019,39.0384495 C165.121902,40.507903 165.50905,42.0848775 165.403464,43.7335326 C165.262683,46.4932379 165.896199,49.1095818 166.811277,51.7259258 C168.007917,51.6900855 168.958191,51.0807999 169.732487,50.1847917 C171.703425,47.81933 173.005651,45.0596247 174.061511,42.1565581 C174.413464,41.1888692 174.659831,40.18534 174.906198,39.1459705 C175.222956,37.9273993 175.962057,37.1030718 177.299479,36.6013072 C177.510651,37.99908 177.827409,39.3251722 177.932995,40.6512643 C178.144166,43.3034486 178.672096,45.8481119 180.009518,48.141893 C180.467057,48.8945399 181.206158,49.5038255 181.734088,50.1847917 C182.613971,51.3316822 183.845807,51.3675225 185.148033,51.4750435 C186.661431,51.5825645 187.998853,51.2958419 189.195494,50.3639933 C189.723423,49.9339094 190.251353,49.7188674 190.849673,50.5790353 C189.160298,51.3316822 187.963658,52.729455 185.957525,52.944497 C183.951393,53.159539 182.402799,52.3710517 180.994987,51.7259258 C179.657565,50.0055901 178.390534,48.4286156 177.897799,46.3857169 C177.44026,44.4144988 176.912331,42.4791211 176.349206,40.400382 C176.138034,40.6512643 175.821276,40.9021466 175.680495,41.1888692 C174.906198,42.7300034 174.202292,44.3069778 173.357604,45.8122716 C172.372136,47.5684477 171.351472,49.3246238 170.260417,50.9732789 C169.838073,51.6184048 169.169363,52.1560098 168.535847,52.5860937 C166.916863,53.6613036 165.403464,52.944497 165.121902,50.9732789 C164.734754,47.9626913 164.453191,44.9521037 164.101238,41.9415161 C164.066043,41.6906338 164.066043,41.4397515 163.960457,41.2605499 C163.749285,40.9021466 163.467722,40.4362223 163.150965,40.3645417 C162.904597,40.292861 162.376668,40.6512643 162.200691,40.9379869 C161.320809,42.4074404 160.511316,43.9485745 159.701824,45.4538683 C158.540379,47.5684477 157.414129,49.7547078 156.147098,51.8334468 C155.654364,52.6936147 155.020848,53.5179423 153.859403,53.5896229 C153.331473,53.6254632 153.085106,53.4821019 152.97952,52.9086567 C152.557176,50.220632 152.134833,47.4967671 151.571708,44.8087424 C151.149364,43.339289 150.621434,41.8698355 150.199091,40.292861 Z" id="XMLID_61_"></path>
                <path d="M0,49.8808015 C0.385154062,49.7015973 0.700280112,49.4148705 1.08543417,49.3431888 C2.24089636,49.1281437 3.18627451,48.5546901 3.99159664,47.6586689 C4.83193277,46.690966 5.70728291,45.7949447 6.47759104,44.791401 C7.03781513,44.074584 7.07282913,43.2502445 6.8977591,42.2825416 C6.16246499,38.4117299 5.07703081,34.5767591 5.04201681,30.5984248 C5.0070028,27.8386795 4.79691877,25.114775 4.86694678,22.3550296 C5.0070028,18.1974912 5.95238095,14.2191569 7.63305322,10.420027 C8.01820728,9.5598466 8.7535014,8.84302962 9.41876751,8.16205349 C9.94397759,7.62444076 10.6442577,7.83948586 11.1694678,8.26957604 C11.9397759,8.95055217 12.429972,9.77489169 12.535014,10.885958 C12.67507,12.1762286 13.0952381,13.4664991 13.1652661,14.7567697 C13.3053221,17.2297882 13.3753501,19.7028068 13.2703081,22.1758254 C13.0952381,27.2293851 11.5196078,31.9962179 10.3641457,36.8705734 C9.90896359,38.7342975 9.06862745,40.4188174 8.50840336,42.2108599 C8.29831933,42.8559951 8.29831933,43.7161755 8.54341737,44.3254699 C9.20868347,46.2608758 10.2240896,48.0529182 11.5896359,49.5940747 C12.640056,50.7768227 13.9355742,50.9201861 15.3361345,50.7768227 C15.4761905,50.7768227 15.6162465,50.705141 15.6862745,50.5976185 C16.8067227,48.8772577 17.7521008,47.1210561 17.0868347,44.9347644 C16.6316527,43.3936079 16.1414566,41.8882922 15.6512605,40.3829766 C15.6162465,40.2396132 15.4761905,40.0962498 15.3361345,40.0245681 C13.7605042,39.1285469 12.67507,37.4081861 12.464986,35.4369394 C13.2352941,35.5086211 13.9005602,35.6519845 14.3557423,36.4404832 C14.7408964,37.1214593 15.3011204,37.7307538 15.6862745,38.4475707 C16.6666667,40.275454 18.3823529,40.7055442 20.1680672,40.9564301 C21.1134454,41.0639527 22.0938375,40.992271 23.0742297,40.992271 C23.0742297,40.8847484 23.1092437,40.8130667 23.1092437,40.7055442 C23.2492997,40.8847484 23.3893557,41.0639527 23.5294118,41.2789978 C22.4089636,42.2108599 21.1484594,42.0316556 19.9229692,41.8166105 C19.4327731,41.7449288 18.942577,41.6015654 18.487395,41.458202 C17.8571429,41.2789978 17.6120448,41.4940429 17.6120448,42.1391782 C17.6820728,43.4294487 17.8221289,44.7197193 17.7871148,45.974149 C17.7521008,47.2285787 17.7170868,48.5546901 17.3669468,49.7732789 C16.7366947,51.9954116 13.9005602,53.070637 12.1848739,51.6370031 C10.3641457,50.0958466 8.82352941,48.2679633 8.08823529,45.8666264 C7.98319328,45.5798996 7.70308123,45.2214912 7.42296919,45.1498095 C7.21288515,45.0781278 6.8627451,45.4006954 6.68767507,45.6515813 C5.14705882,47.6945097 3.57142857,49.7015973 1.05042017,50.5259368 C0.56022409,50.5617776 0.210084034,50.6334593 0,49.8808015 Z M7.73809524,40.8489076 C8.78851541,40.0962498 9.24369748,38.9851835 9.52380952,37.8382763 C10.0840336,35.5086211 10.5392157,33.1431251 11.0644258,30.7776291 C12.0098039,26.2258413 13.1302521,21.7098943 12.535014,17.0147431 C12.289916,15.0434965 11.9047619,13.1080906 11.4495798,11.1726848 C11.3445378,10.6350721 10.9243697,10.1333002 10.5392157,9.70320999 C10.0490196,9.16559726 9.41876751,9.16559726 8.92857143,9.73905084 C8.54341737,10.2049819 8.19327731,10.7425946 7.98319328,11.3160482 C6.8627451,14.2908386 6.30252101,17.4089925 6.05742297,20.598828 C5.95238095,21.7457352 5.98739496,22.9284832 6.02240896,24.1112312 C6.05742297,26.2616821 6.05742297,28.3762922 6.16246499,30.5267431 C6.33753501,33.9316238 6.61764706,37.4081861 7.73809524,40.8489076 Z" id="XMLID_58_"></path>
                <path d="M39.4199831,64.2055059 C38.8407942,64.7473398 38.397885,65.1446848 37.9549759,65.5420297 C37.886836,65.5059074 37.8186961,65.4336629 37.7505562,65.3975406 C37.9549759,65.036318 38.1253255,64.6028508 38.3638151,64.2777504 C39.3518433,63.0495934 39.5562629,61.7130695 39.4199831,60.1236899 C39.0792838,55.8251403 38.943004,51.5265907 38.7045145,47.2280412 C38.7045145,47.0835521 38.6704445,46.9390631 38.6363746,46.5055959 C38.2275353,47.1196744 37.9549759,47.5170193 37.6824164,47.8782419 C36.7625281,49.0702767 35.9107797,50.4068005 34.8546116,51.4543462 C33.3555344,52.9353591 31.3794781,52.79087 29.7100512,51.5265907 C28.4153936,50.5512896 27.5977152,49.250888 27.4955054,47.6615084 C27.3592256,45.7831506 27.5636452,43.8325482 27.7339949,41.9541904 C27.7680649,41.484601 28.245044,41.0511338 28.5176035,40.5815444 C28.6538832,40.6176666 28.790163,40.6537889 28.8923728,40.7260334 C28.790163,41.8819459 28.7220231,43.0739807 28.5516734,44.2298932 C28.2791139,45.9637619 28.3131838,47.6253861 29.1308623,49.2147658 C29.9826107,50.9486345 31.1750585,51.5988353 32.9807651,51.2014904 C35.0249613,50.7319009 36.4218287,49.5398662 37.2395072,47.480897 C38.1593955,45.1329498 38.5000948,42.6766357 38.7045145,40.2203217 C38.7726543,39.4617541 38.8748641,38.7031866 38.9770739,37.9084967 C39.9651021,38.3780862 40.2376616,38.9199202 40.1695217,40.1119549 C40.0673119,43.1462252 39.8628923,46.1804955 39.8969622,49.2147658 C39.9651021,53.0076036 40.2717315,56.8365637 40.4420812,60.6294016 C40.4420812,60.7738907 40.5102211,60.9183797 40.578361,61.2073578 C40.8509205,60.9906242 41.08941,60.8100129 41.2938296,60.6294016 C43.235816,58.7871661 44.9052429,56.7643192 45.7229214,54.019027 C46.0295508,53.0437259 46.3702502,52.1406693 46.0636207,51.0931236 C45.8592011,50.4429228 45.6547815,49.9010888 44.871173,49.9733333 C45.6207116,48.8896654 45.927341,48.9257876 46.5065299,50.0455779 C47.5626979,52.104547 46.9494391,54.019027 45.9614109,55.7167735 C44.9733828,57.41452 43.780935,59.0400219 42.4181375,60.412668 C40.7827806,62.0381699 40.544291,63.8804055 40.7487106,66.0477414 C41.0212701,69.0097671 41.1916198,71.9717929 41.3960394,74.9338186 C41.4641793,76.1980979 41.5323192,77.4262549 41.5323192,78.6905342 C41.5323192,79.5574686 40.4761512,80.8939924 39.6925426,81.0384815 C39.5903328,81.0746037 39.4199831,80.9662369 39.3177733,80.9301147 C36.8988078,79.9186912 35.74043,77.8958444 35.4338006,75.2950413 C35.1271711,72.7303605 35.195311,70.2018019 36.0811294,67.7454879 C36.3196189,67.0591648 36.8647379,66.5173308 37.2735771,65.8671301 C37.3757869,65.9393746 37.4439268,65.9754969 37.5461366,66.0477414 C37.2054373,66.9146757 36.8988078,67.7816101 36.5581085,68.6485445 C35.5019404,71.3577144 35.74043,74.0668843 36.5581085,76.7399319 C36.9669477,78.0403335 37.852766,78.9795124 39.0111439,79.6297131 C39.9651021,80.1715471 40.6124309,79.7380799 40.6465008,78.6182897 C40.6805708,77.2817659 40.8849904,75.9091198 40.7827806,74.6087183 C40.544291,71.4660812 40.1354518,68.3595664 39.7947524,65.2169293 C39.7606825,64.8557066 39.5903328,64.5667285 39.4199831,64.2055059 Z" id="XMLID_57_"></path>
                <path d="M129.031397,46.0153943 C128.348362,47.1141232 127.631174,48.2471875 126.845684,49.4832576 C126.811532,49.2085753 126.77738,49.1055695 126.811532,49.0368989 C128.143451,46.1184001 128.758183,43.0282249 128.860638,39.8350438 C128.860638,39.3200146 129.099701,38.7706502 129.338763,38.2899562 C129.441218,38.0839446 129.782736,37.8779329 129.987647,37.9122682 C130.158406,37.9466034 130.397468,38.3242915 130.397468,38.5303032 C130.397468,39.114003 130.192558,39.732038 130.226709,40.2814025 C130.465772,42.7192074 130.670682,45.1570123 131.148807,47.5604819 C131.490325,49.3459165 132.685637,50.6163218 134.66644,50.8223335 C136.408181,50.9940099 137.671796,50.1012926 138.730501,48.8652225 C140.403938,46.9767821 140.882063,44.6419831 140.984519,42.2041782 C141.01867,41.5174726 140.950367,40.830767 141.01867,40.1440614 C141.052822,39.6633674 141.223581,39.2170088 141.326036,38.633309 C142.248134,39.1826735 142.589652,39.732038 142.418893,40.6934259 C142.282286,41.448802 142.5555,42.307184 142.623804,43.0968955 C142.623804,43.2342366 142.726259,43.405913 142.692107,43.4745835 C141.97492,44.7106536 142.692107,45.740712 143.170232,46.8051057 C143.340991,47.1827938 143.545902,47.5261466 143.716661,47.8694994 C144.570455,49.654934 145.595008,51.2343569 147.712418,51.5777097 C147.405052,52.2987506 146.926927,52.3674211 146.243892,52.23008 C144.570455,51.8523919 143.443446,50.8223335 142.794563,49.2429106 C142.384741,48.2471875 142.282286,47.0454527 141.155277,46.2900765 C140.847911,46.8051057 140.608849,47.3544702 140.233179,47.8008288 C139.345233,48.8995578 138.525591,50.1012926 137.466886,51.0283452 C135.349476,52.8824503 132.719789,52.4017564 131.182959,50.0326221 C130.738986,49.3115812 130.397468,48.5218697 130.05595,47.7321583 C129.816888,47.1827938 129.577826,46.6334293 129.372915,46.0840648 C129.27046,46.0840648 129.168004,46.0497296 129.031397,46.0153943 Z" id="XMLID_56_"></path>
                <path d="M200,50.1213519 C200,50.396479 200,50.6372152 200,50.8779514 C195.903361,51.4625964 193.172269,49.5367068 192.542017,45.3066278 C192.191877,42.9336567 192.226891,40.5262946 192.156863,38.1189326 C192.156863,37.706242 192.331933,37.2935513 192.507003,36.9152516 C192.612045,36.7432972 192.927171,36.5713427 193.137255,36.6057336 C193.312325,36.6401245 193.522409,36.9496425 193.522409,37.1559878 C193.522409,38.2564962 193.452381,39.3913954 193.452381,40.4919038 C193.452381,42.0051027 193.347339,43.5526926 193.557423,45.0315007 C193.802521,46.6478724 194.677871,48.0235078 195.973389,49.0896253 C197.128852,50.0181792 198.459384,50.4308699 200,50.1213519 Z" id="XMLID_55_"></path>
                <path d="M192.504811,26.2767686 C192.918587,26.2767686 193.332363,26.2767686 193.746139,26.1827315 C194.460843,25.9946573 194.837004,26.5118613 194.761771,27.2171394 C194.648923,28.1104918 194.460843,29.1448997 194.009451,29.7561408 C193.558059,30.3673818 192.805739,29.9912335 192.391963,29.3329739 C192.203883,29.0508626 192.128651,28.5806772 192.166267,28.2045289 C192.166267,27.5932878 192.354347,26.9820467 192.504811,26.2767686 Z" id="XMLID_54_"></path>
            </g>
        </g>
    </g>
</svg>