<?xml version="1.0" encoding="UTF-8"?>
<svg width="25px" height="12px" viewBox="0 0 25 12" version="1.1" xmlns="http://www.w3.org/2000/svg" xmlns:xlink="http://www.w3.org/1999/xlink">
    <!-- Generator: Sketch 48.2 (47327) - http://www.bohemiancoding.com/sketch -->
    <title>right-arrow (1)</title>
    <desc>Created with Sketch.</desc>
    <defs></defs>
    <g id="01_Orders" stroke="none" stroke-width="1" fill="none" fill-rule="evenodd" transform="translate(-1149.000000, -652.000000)">
        <g id="1" transform="translate(753.000000, 610.000000)" fill="#4A979B" fill-rule="nonzero">
            <g id="Group" transform="translate(25.000000, 0.000000)">
                <g id="right-arrow-(1)" transform="translate(371.000000, 42.000000)">
                    <path d="M19.0634783,0.525391304 C18.8396522,0.29373913 18.4671304,0.29373913 18.2354783,0.525391304 C18.0116522,0.749217391 18.0116522,1.12173913 18.2354783,1.34504348 L22.433913,5.54347826 L0.579652174,5.54347826 C0.256695652,5.544 0,5.80069565 0,6.12365217 C0,6.4466087 0.256695652,6.71165217 0.579652174,6.71165217 L22.433913,6.71165217 L18.2354783,10.9022609 C18.0116522,11.133913 18.0116522,11.5069565 18.2354783,11.7302609 C18.4671304,11.961913 18.8401739,11.961913 19.0634783,11.7302609 L24.2558261,6.53791304 C24.4874783,6.31408696 24.4874783,5.94156522 24.2558261,5.71826087 L19.0634783,0.525391304 Z" id="Shape"></path>
                </g>
            </g>
        </g>
    </g>
</svg>