<?xml version="1.0" encoding="UTF-8"?>
<svg width="113px" height="112px" viewBox="0 0 113 112" version="1.1" xmlns="http://www.w3.org/2000/svg" xmlns:xlink="http://www.w3.org/1999/xlink">
    <!-- Generator: Sketch 48.2 (47327) - http://www.bohemiancoding.com/sketch -->
    <title>non_food</title>
    <desc>Created with Sketch.</desc>
    <defs></defs>
    <g id="d_Gift-Flow-6_V2" stroke="none" stroke-width="1" fill="none" fill-rule="evenodd" transform="translate(-544.000000, -291.000000)" stroke-linecap="round" stroke-linejoin="round">
        <g id="card" transform="translate(481.000000, 249.000000)" stroke="#404D5F" stroke-width="2.1">
            <g id="non_food" transform="translate(64.000000, 43.000000)">
                <path d="M53.0417158,56.161479 C64.5105146,55.8384533 68.6980475,59.7885863 68.7892017,60.3372238 C68.8499712,60.7029821 68.1706468,75.6329921 66.7512284,105.127254 C63.6486099,108.080929 57.759514,109.557766 49.0839407,109.557766 C40.4083675,109.557766 34.8348688,107.935596 32.3634445,104.691255 C32.398311,104.096969 32.3237845,102.474442 32.1398651,99.8236728 C31.9559457,97.172904 31.2037467,84.0107544 29.8832683,60.3372238 C31.3274688,57.9767009 37.1714211,56.5847859 47.4151252,56.161479" id="Path-145"></path>
                <path d="M29.9685709,60.4766152 C34.0802376,62.9558511 40.6361037,63.9857891 49.6361691,63.5664293 C58.6362345,63.1470695 64.9661152,62.1171315 68.6258112,60.4766152" id="Path-146"></path>
                <path d="M30.3275602,64.4105391 C35.1225823,66.1532002 41.5733389,67.0245307 49.67983,67.0245307 C57.786321,67.0245307 64.1285993,66.1532002 68.7066647,64.4105391" id="Path-147"></path>
                <path d="M32.7147579,101.658504 C35.0503441,103.945578 40.7592704,105.089115 49.8415368,105.089115 C58.9238032,105.089115 64.4850373,103.945578 66.525239,101.658504" id="Path-148"></path>
                <path d="M49.4653972,66.4761921 C49.3942665,62.4515943 49.5852658,60.1421853 50.0383953,59.5479651" id="Path-149"></path>
                <path d="M49.0816422,61.4799125 C46.7782339,59.8172668 47.1908218,55.5601035 50.3194058,48.7084225 C51.276598,49.8109498 55.65202,56.0111839 50.3194058,61.4799125" id="Path-150"></path>
                <path d="M67.4458288,95.5336989 C72.6793381,97.4932777 78.9896744,97.9831724 86.3768376,97.003383 C93.7640008,96.0235936 99.1253244,94.2327442 102.460809,91.6308348 L105.852053,34.4315543 C108.215028,34.0833354 109.739696,32.7376573 110.426058,30.39452 C111.112419,28.0513827 110.769238,26.3091501 109.396515,25.1678223 C109.959807,23.6843669 109.959807,22.5741826 109.396515,21.8372694 C108.551578,20.7318996 109.046264,18.2517006 108.551578,17.4072143 C108.056892,16.562728 103.918138,11.8925518 103.189473,11.4660207 C102.460809,11.0394897 97.7014409,8.44554916 96.6001333,8.699211 C95.4988256,8.95287284 96.2013879,8.6670665 96.0913068,8.44554916 C95.9812258,8.22403182 95.5519294,6.43969487 94.996798,6.3097244 C94.4416665,6.17975394 93.83691,7.06690083 93.4684634,6.85126801 C93.1000169,6.63563519 92.8985626,5.56239423 92.2081438,5.45979633 C91.5177249,5.35719843 91.3615634,6.3097244 90.6599198,6.3097244 C89.9582763,6.3097244 87.8909582,5.47161183 86.9350845,5.89066811 C85.9792108,6.3097244 85.5920563,6.29712121 84.792541,6.09389466 C83.9930257,5.89066811 83.1948889,4.67800429 81.6935331,4.72566013 C80.1921773,4.77331596 78.0915789,6.62539509 77.8284872,5.89066811 C77.5653955,5.15594114 77.5827249,3.36766569 76.6152326,3.08074604 C75.6477403,2.79382639 75.4909881,4.64945017 75.0410146,4.41550333 C74.5910411,4.1815565 75.2336072,1.8300757 74.5910411,1.64831397 C73.948475,1.46655225 70.1927224,0.474838212 68.6567078,0.666052336 C67.632698,0.793528418 66.4063808,1.45808447 64.9777559,2.6597205 C61.6137527,4.19074633 59.6311779,5.67536351 59.0300317,7.11357204 C58.4288855,8.55178057 58.1283124,10.7527451 58.1283124,13.7164655 C57.3379869,14.428021 56.9814871,15.1572997 57.058813,15.9043017 C57.1748018,17.0248046 57.4097333,18.5832687 56.6850494,19.4265013 C55.9603656,20.2697339 55.9893136,21.8372694 57.058813,21.8372694 C58.1283124,21.8372694 58.6759607,22.3490644 58.7151487,22.8480723 C58.7543368,23.3470801 60.0078225,26.1374251 60.1746768,27.4804789 C60.285913,28.3758481 61.1183351,29.4729357 62.6719432,30.7717416 C62.2947693,32.1265002 62.5847779,33.0751587 63.5419691,33.6177169 C64.4991603,34.1602752 65.1567827,34.4315543 65.5148362,34.4315543 C63.5476903,36.0137852 62.5203811,37.3735431 62.4329086,38.5108281 C62.3016998,40.2167557 62.0919362,42.8752803 62.6719432,44.6676137 C63.2519501,46.459947 64.9777559,47.5960231 64.9777559,49.8651884 C64.9777559,52.1343536 68.5788134,55.7062194 69.47338,55.7945454 C70.3679466,55.8828713 70.3500254,55.0034524 70.6141497,55.3989989 C70.8782741,55.7945454 73.0142187,57.1659438 73.8026299,56.8900854 C74.5910411,56.6142269 76.7191431,55.8687903 80.7558421,53.0651893 C84.792541,50.2615882 86.7349091,49.4480938 89.0595447,48.0513069 C91.3841804,46.65452 91.5220327,46.2250513 92.2081438,42.7005486 C92.8942548,39.176046 93.1540792,36.7893097 93.4684634,35.2035133 C93.7828477,33.6177169 94.2641269,33.276131 93.4684634,32.7009458 C92.6728,32.1257606 90.3040014,27.3593939 89.8638653,26.2636081 C89.4237291,25.1678223 88.9368699,25.0281659 88.2658916,23.9381191 C87.5949133,22.8480723 83.3199103,20.6344468 81.6935331,21.2358581 C80.067156,21.8372694 78.6735449,23.7136774 77.8284872,23.6716479 C76.9834295,23.6296184 72.2744209,23.7452528 71.5784809,24.230832 C70.882541,24.7164112 65.8243744,34.4315543 65.2665917,34.4315543" id="Path-151"></path>
                <path d="M105.484099,34.1079887 C104.023351,34.5975472 100.705399,32.622754 95.5302425,28.183609 C94.9524261,28.5794485 94.5099033,28.9100194 94.2026741,29.1753216" id="Path-152"></path>
                <path d="M93.299093,18.1712881 C92.1444619,17.2292654 91.8207362,16.9445957 90.6545533,16.7036579 C89.4883704,16.4627201 87.9500541,15.870393 88.1458848,14.4461618 C88.3417156,13.0219305 88.6552647,11.3271147 90.0420322,11.6335128 C91.4287997,11.9399108 92.5155993,10.5033606 93.299093,10.5358156 C94.0825867,10.5682707 95.301407,10.9712089 95.9188789,10.5682707 C96.3305267,10.2996453 97.1188394,9.75157598 98.2838167,8.92406287" id="Path-153"></path>
                <path d="M95.2499591,31.8921673 C97.8688037,34.8060592 99.9107469,36.087596 100.867852,37.0042216 C101.824956,37.9208472 98.9914227,39.1807951 96.9350869,38.6203851 C95.5641964,38.2467785 94.5137401,37.391721 93.7837179,36.0552127" id="Path-154"></path>
                <path d="M95.6688881,27.8430994 C95.4879631,25.4498569 95.7302202,24.1717897 96.3956594,24.0088978 C97.3938181,23.76456 98.1402077,27.9542702 96.9045479,28.723548" id="Path-155"></path>
                <path d="M98.7127073,18.2800376 C99.0533535,18.2800376 99.5506494,19.1697008 100.205784,21.7884554 C100.860918,24.4072101 101.341271,25.0219189 101.90842,25.4767083 C102.475569,25.9314977 100.954552,21.7884554 101.90842,21.7884554 C102.862289,21.7884554 103.765031,26.2037769 103.213042,27.7699764 C102.661052,29.336176 101.90842,32.1323877 101.90842,32.6656506" id="Path-156"></path>
                <path d="M73.7324154,36.0141395 C73.7324154,36.0141395 72.6492842,38.5599764 71.3688185,40.1062547 C70.0883527,41.6525331 69.1252422,46.512265 72.1537388,48.0467622 C75.1822354,49.5812594 77.0226748,48.9145189 79.1116232,48.0467622 C80.5042555,47.4682578 81.844118,45.8737502 83.1312106,43.2632397" id="Path-157"></path>
                <path d="M85.5235241,36.2806885 C85.9770991,35.3875286 83.8207771,32.5335406 82.9169406,30.9482371 C82.0131041,29.3629337 80.8025891,29.5753628 79.8939665,29.5753628 C78.9853438,29.5753628 74.4569572,29.1030116 72.7623098,30.0815849 C71.0676624,31.0601582 69.1616902,32.9937425 68.44083,34.2756809 C67.7199697,35.5576192 66.799566,35.9405072 66.0533026,38.5191104 C65.3070392,41.0977137 65.6288124,42.7934656 66.0533026,44.3772964 C66.4777928,45.9611272 65.5176276,46.0730483 66.9792288,47.6738146 C68.44083,49.2745809 67.6338199,50.0900586 69.5188069,50.7302915 C71.4037938,51.3705243 72.0675027,51.581849 72.7501173,50.7302915 C73.2051937,50.1625864 73.5971734,49.6447292 73.9260563,49.1767198" id="Path-158"></path>
                <path d="M83.7714435,41.0789374 C84.59318,40.2616189 87.2314254,33.4038744 86.6570934,31.8318247 C86.0827615,30.2597751 85.2547884,29.7822696 85.2547884,28.5003312 C85.2547884,27.2183928 81.1493972,26.4769156 79.5375861,26.1853316" id="Path-159"></path>
                <path d="M87.9940781,48.2937434 C87.6995857,45.4793711 87.8738771,43.3693432 88.5169523,41.9636595 C89.4815652,39.8551341 90.4171294,38.5915213 90.2122869,36.1349139" id="Path-160"></path>
                <path d="M76.6081813,39.3260283 C78.1759893,36.6017406 78.2302719,33.7831115 80.1089709,35.6307504 C81.3614369,36.8625097 81.6044021,38.6313857 80.8378666,40.9373784" id="Path-161"></path>
                <path d="M64.967824,5.61462202 C66.3025231,4.72390113 66.6928701,3.83318024 68.3382986,4.72390113 C69.9837271,5.61462202 68.1387019,4.72390113 70.7671855,4.72390113 C72.5195079,4.72390113 74.2795709,4.46016813 76.0473745,3.93270213" id="Path-162"></path>
                <path d="M70.5083607,22.2702355 C71.4300815,21.9272814 72.2775884,21.9581827 72.486299,22.2702355 C72.6950096,22.5822882 74.7236058,22.7134922 74.9913329,21.6818438 C75.25906,20.6501954 74.5703656,19.5088726 76.1420274,20.0676294 C77.7136892,20.6263862 77.9003636,20.6084026 78.6721369,20.0676294 C79.4439103,19.5268561 79.8648775,18.6968262 80.2822988,18.4113689 C80.69972,18.1259115 80.7316345,17.0580427 81.7179441,17.4225264 C82.7042537,17.7870101 83.1054643,17.7366054 83.3810434,17.7870101" id="Path-163"></path>
                <path d="M67.6996327,26.070339 C66.848833,26.070339 65.8103457,27.9768496 64.7199341,26.070339 C63.6295225,24.1638283 63.3389994,23.2808609 62.7392097,22.5448014 C62.1394199,21.8087419 61.0165873,20.2697544 62.1394199,19.8252312 C63.2622526,19.380708 64.2312645,18.3710958 64.6798773,18.0539773 C65.1284902,17.7368587 65.4395298,17.5838718 65.9319247,16.5116971 C66.4243197,15.4395223 66.1649511,14.5307193 67.6996327,15.1160715 C69.2343142,15.7014237 69.9169296,15.5727526 70.9184365,15.1160715" id="Path-164"></path>
                <path d="M79.5536727,6.37115633 C80.8348016,6.37115633 82.0157599,5.06630285 82.8005549,6.37115633 C83.5853499,7.67600981 84.8713743,7.95166717 84.9508329,8.92023373 C85.0302915,9.8888003 84.0692566,10.9078287 85.0302915,11.4975547 C85.9913265,12.0872807 86.9369216,12.4307227 86.4985812,13.1989481 C86.0602408,13.9671735 86.8954977,13.9001421 86.4985812,15.1812709 C86.1016648,16.4623998 86.0956395,17.3729729 85.5232362,17.4023462 C85.141634,17.4219284 84.3276566,17.4317195 83.081304,17.4317195" id="Path-165"></path>
                <path d="M79.1025286,10.0785972 C80.3218982,10.0785972 80.098209,9.59657337 80.3218982,10.5335071 C80.5455873,11.4704409 81.3473285,11.178214 81.5156602,12.0857744 C81.683992,12.9933348 81.9366779,13.8474207 81.5156602,14.6435132 C81.0946426,15.4396056 80.8095707,15.4433714 80.3218982,16.4157038 C79.8342257,17.3880361 80.5659227,18.2571853 79.8342257,18.8326012" id="Path-166"></path>
                <path d="M62.3646057,38.5662694 C61.0567353,44.9051795 57.5883804,48.7047635 51.9595411,49.9650216" id="Path-167"></path>
                <path d="M48.5911691,50.7791014 C44.1364328,50.177153 40.9331365,48.9066162 38.9812801,46.9674911 C36.0534955,44.0588033 36.4246903,43.9113995 34.0912949,44.0588033 C31.7578995,44.206207 30.7236862,45.8962776 29.5402787,43.9113995 C28.3568713,41.9265215 26.3606545,42.0249896 26.5898166,40.0777085 C26.8189787,38.1304274 28.5854366,37.6160062 27.5876266,36.8091646 C26.5898166,36.002323 22.3741887,36.5089861 24.4820027,32.9044572 C26.5898166,29.2999282 24.9809077,27.8258907 25.7853622,27.00592 C26.5898166,26.1859494 29.4340526,26.942065 28.5108396,24.2159908 C27.5876266,21.4899166 27.4814004,19.402393 28.5108396,19.1923277 C29.5402787,18.9822625 29.5241658,16.9257713 30.8311059,16.9204003 C32.138046,16.9150293 31.8975452,14.1835841 32.138046,13.2514195 C32.3785469,12.3192549 33.5094166,10.5683132 36.2453483,10.5611519 C38.9812801,10.5539905 41.5199665,9.04951745 43.2482307,8.52137041 C44.9764949,7.99322337 44.6094775,5.61566653 46.6003233,4.49730771 C48.5911691,3.37894889 49.8521575,2.26059007 51.5231311,3.37894889 C53.1941048,4.49730771 53.2979439,4.49730771 54.4938836,4.49730771 C55.6898234,4.49730771 56.8117629,3.0107379 58.5364464,1.80166909 C60.26113,0.592600268 61.9165875,0.399244742 62.1791691,0.592600268 C62.3542234,0.721503953 62.4417506,1.65028683 62.4417506,3.37894889" id="Path-168"></path>
                <path d="M60.1053713,28.0138752 C60.1053713,28.0138752 55.4887098,28.4023766 53.271089,30.8306595 C51.0534682,33.2589423 49.3425105,35.7140801 46.6790978,36.7775355 C44.0156851,37.8409909 43.5764577,39.1282374 41.6249992,39.5674647 C39.6735406,40.0066921 39.3321845,41.1751801 37.8318889,42.0082799 C36.8316918,42.5636797 35.6104885,42.8413796 34.1682791,42.8413796 L32.981291,44.2038199" id="Path-169"></path>
                <path d="M58.1598806,13.1529514 C56.782123,12.2152169 55.3514512,10.8112011 53.8678653,8.94090416 C51.6424864,6.1354587 50.3248043,4.86253481 49.1557195,4.98427718 C48.3763296,5.06543876 47.2933795,5.10601955 45.9068692,5.10601955" id="Path-170"></path>
                <path d="M28.5142833,25.5329367 C27.8030111,26.6301035 27.1911598,27.6305884 28.5142833,29.7164629 C29.8374068,31.8023374 29.8374068,33.0370431 29.8374068,33.4991736 C29.8374068,33.961304 30.5270657,34.1923693 31.0618953,35.5481091 C31.5967248,36.903849 32.0965802,36.6429182 33.343075,36.0955136 C34.5895697,35.5481091 34.9656401,35.5567544 35.6953818,34.7979331 C36.4251235,34.0391117 37.6936245,34.7979331 38.5188574,34.7979331 C39.3440904,34.7979331 37.896003,33.7425976 39.3440904,32.5517276 C40.7921777,31.3608576 42.0457459,31.3608576 42.3986312,31.3608576 C42.7515165,31.3608576 41.0668624,28.9992962 42.0457459,28.7399373 C43.0246294,28.4805783 42.844257,27.4089544 43.0246294,26.1821081 C43.2050017,24.9552617 43.3142468,21.3081251 44.4381355,21.0731302 C45.5620242,20.8381352 46.2925519,21.5498004 46.0944959,19.2344325 C45.89644,16.9190647 46.2886222,18.2123226 45.89644,16.0380302 C45.5042579,13.8637379 45.7761918,11.9275842 46.2886222,11.6391456" id="Path-171"></path>
                <path d="M33.5258051,27.4062036 C33.5258051,25.9078164 30.8398683,24.4377228 32.7233643,23.3264091 C34.6068603,22.2150954 33.9026615,21.7077736 34.6068603,20.7316409 C35.3110591,19.7555082 37.3442759,20.8463876 36.6031381,18.8705441 C35.8620003,16.8947006 35.9386291,16.521381 37.3442759,16.1260551 C38.7499227,15.7307292 39.2395609,15.0359617 40.4852697,14.6669646 C41.3157422,14.4209666 42.3453185,14.1373747 43.5739987,13.8161888" id="Path-172"></path>
                <path d="M42.1556925,28.6992349 C40.6672515,26.5487357 39.6859217,24.8916308 39.2117034,23.7279202 C38.5003758,21.9823542 40.701964,20.8670732 41.4288283,20.3447052" id="Path-173"></path>
                <path d="M67.7187708,86.2101606 C70.1291874,87.0306607 79.6075963,87.8511608 87.1943259,87.0306607 C92.2521456,86.4836607 97.4977362,84.8057537 102.931098,81.99694" id="Path-174"></path>
                <path d="M68.2360183,81.1064878 C79.2014411,68.245666 86.3852907,57.1630356 89.787567,47.8585966" id="Path-175"></path>
                <path d="M68.5111306,77.3615419 C74.3829061,63.4420533 77.4799544,56.0541757 77.8022753,55.197909" id="Path-176"></path>
                <path d="M68.3670629,78.2755985 C78.476219,63.5785242 83.5307971,54.7589231 83.5307971,51.8167951" id="Path-177"></path>
                <path d="M103.342138,75.7157518 C94.9900112,73.5490389 87.6390322,69.8559141 81.2892016,64.6363771" id="Path-178"></path>
                <path d="M103.477253,75.5570331 C96.2070708,74.3198417 90.297765,68.594847 85.7493353,58.382049" id="Path-179"></path>
                <path d="M82.3798949,85.9099907 C78.6474511,77.0568812 76.6141669,72.2272368 76.2800424,71.4210574" id="Path-180"></path>
                <path d="M73.6670939,64.0272157 C66.8966144,54.1158472 62.1073978,48.4672411 59.2994443,47.0813974" id="Path-181"></path>
                <path d="M57.1188019,55.7457971 L56.0675916,48.8847279" id="Path-182"></path>
                <path d="M32.1275152,103.058674 C27.5132376,105.490552 22.4385236,106.70649 16.9033733,106.70649 C11.3682231,106.70649 6.11975584,105.167178 1.15797166,102.088554 C0.749624563,91.3216515 0.557134172,85.6025151 0.58050049,84.9311448 C0.603866807,84.2597746 0.969500314,83.4819395 1.67740101,82.5976396 C0.946133996,82.1018458 0.58050049,81.6617527 0.58050049,81.2773603 C0.58050049,80.7007718 0.638542316,74.9482147 1.15797166,73.8224354 C1.67740101,72.6966561 5.22119568,68.9377231 16.3530593,68.6997816 C23.7743018,68.5411539 28.467529,69.4050541 30.4327411,71.2914821" id="Path-183"></path>
                <path d="M1.7753058,73.6070475 C5.19968936,76.4605201 10.0065517,77.7437712 16.1958929,77.4568008 C22.3852341,77.1698304 27.1920965,76.3293708 30.61648,74.9354218" id="Path-184"></path>
                <path d="M14.666477,76.5215903 C14.2530403,73.0264376 14.4442425,70.5365323 15.2400837,69.0518743 C16.443375,71.2308469 18.2069818,73.8767684 16.9561392,76.5215903" id="Path-185"></path>
                <path d="M1.37607388,82.1423659 C1.81464861,82.1423659 13.5512216,88.4189306 30.7436586,82.1423659" id="Path-186"></path>
            </g>
        </g>
    </g>
</svg>