<?xml version="1.0" encoding="UTF-8"?>
<svg width="108px" height="77px" viewBox="0 0 108 77" version="1.1" xmlns="http://www.w3.org/2000/svg" xmlns:xlink="http://www.w3.org/1999/xlink">
    <!-- Generator: Sketch 48.2 (47327) - http://www.bohemiancoding.com/sketch -->
    <title>3_panel_card</title>
    <desc>Created with Sketch.</desc>
    <defs></defs>
    <g id="04_Choose_the_Format" stroke="none" stroke-width="1" fill="none" fill-rule="evenodd" transform="translate(-820.000000, -304.000000)">
        <g id="card" transform="translate(743.000000, 250.000000)">
            <g id="3_panel_card" transform="translate(78.000000, 54.000000)">
                <path d="M0.861880694,11.9864681 L8.52846913,9.24803787 C9.65551013,51.0146023 10.6805162,71.9499605 11.6034875,72.0541123 C12.5264587,72.1582641 9.51960474,73.0985939 2.58292565,74.8751018 L0.861880694,69.2483645 L0.861880694,11.9864681 Z" id="Path-11" fill="#E0DFE6"></path>
                <path d="M66.1874621,11.9864681 L73.8540505,9.24803787 C74.9810915,51.0146023 76.0060976,71.9499605 76.9290689,72.0541123 C77.8520401,72.1582641 74.8451861,73.0985939 67.908507,74.8751018 L66.1874621,69.2483645 L66.1874621,11.9864681 Z" id="Path-11" fill="#E0DFE6"></path>
                <path d="M35.636493,65.7750034 C14.5130212,72.0819089 3.31466169,75.1732061 2.04141452,75.048895 C0.768167352,74.9245839 0.131543769,53.8034664 0.131543769,11.6855426 L35.636493,1.19820495 L35.636493,65.7750034 Z" id="Path-8" stroke="#404D5F" stroke-width="2" stroke-linecap="round" stroke-linejoin="round"></path>
                <polygon id="Path-9" stroke="#404D5F" stroke-width="2" stroke-linecap="round" stroke-linejoin="round" points="36.3173789 1.58526455 71.210661 12.1587724 105.620825 1.58526455 105.620825 65.5292064 70.9691019 75.4486682 36.3173789 65.5292064"></polygon>
                <path d="M70.847616,12.6842693 L70.847616,75.396401" id="Path-10" stroke="#404D5F" stroke-width="2" stroke-linecap="round" stroke-linejoin="round"></path>
            </g>
        </g>
    </g>
</svg>