<?xml version="1.0" encoding="UTF-8"?>
<svg width="80px" height="94px" viewBox="0 0 80 94" version="1.1" xmlns="http://www.w3.org/2000/svg" xmlns:xlink="http://www.w3.org/1999/xlink">
    <!-- Generator: Sketch 48.2 (47327) - http://www.bohemiancoding.com/sketch -->
    <title>paypal</title>
    <desc>Created with Sketch.</desc>
    <defs></defs>
    <g id="12_Select_Payment_Method" stroke="none" stroke-width="1" fill="none" fill-rule="evenodd" transform="translate(-422.000000, -285.000000)">
        <g id="card" transform="translate(381.000000, 250.000000)">
            <g id="paypal" transform="translate(42.000000, 35.000000)">
                <path d="M29.2972987,0.661931192 C21.0228156,21.5174445 16.5504008,35.5732371 15.8800542,42.829309 C15.2097076,50.085381 14.8745343,62.808645 14.8745343,80.9991009 L0.534274128,80.9991009 L13.3752784,2.42159095 C15.2540124,1.24848445 16.5507177,0.661931192 17.2653944,0.661931192 C17.9800711,0.661931192 21.9907058,0.661931192 29.2972987,0.661931192 Z" id="Path-4" fill="#E0DFE6"></path>
                <path d="M0.225858578,81.4768522 L18.5718322,81.4768522 C21.7137711,60.0705827 24.5866392,49.4991302 27.1904366,49.7624947 C31.0961327,50.1575415 59.5697895,56.5270128 67.504963,32.8452737 C75.4401365,9.16353461 62.4496808,2.16593888 47.1455675,1.74850609 C31.8414543,1.3310733 14.5370875,0.259179636 13.7298752,2.16593888 C13.1917336,3.43711171 8.69039478,29.8740828 0.225858578,81.4768522 Z" id="Path-2" stroke="#404D5F" stroke-width="2" stroke-linecap="round" stroke-linejoin="round"></path>
                <path d="M25.2402222,92.2129075 C33.8777011,93.6658019 38.4365413,92.4631038 38.9167426,88.6048133 C39.6370446,82.8173777 38.5664678,65.6855146 46.5543142,65.4682388 C54.5421605,65.2509631 80.0635009,62.9912954 77.0914321,33.6314169 C73.80991,36.0267173 71.0788198,51.1965146 55.9537945,55.1720023 C40.8287691,59.14749 29.9610316,57.6133915 29.787211,59.14749 C29.6713306,60.1702222 28.1556677,71.1920281 25.2402222,92.2129075 Z" id="Path-3" stroke="#404D5F" stroke-width="2" stroke-linecap="round" stroke-linejoin="round"></path>
            </g>
        </g>
    </g>
</svg>