<?xml version="1.0" encoding="UTF-8"?>
<svg width="131px" height="99px" viewBox="0 0 131 99" version="1.1" xmlns="http://www.w3.org/2000/svg" xmlns:xlink="http://www.w3.org/1999/xlink">
    <!-- Generator: Sketch 48.2 (47327) - http://www.bohemiancoding.com/sketch -->
    <title>printed</title>
    <desc>Created with Sketch.</desc>
    <defs></defs>
    <g id="02_Lettering_Technique" stroke="none" stroke-width="1" fill="none" fill-rule="evenodd" transform="translate(-828.000000, -282.000000)">
        <g id="card" transform="translate(731.000000, 250.000000)">
            <g id="printed" transform="translate(98.000000, 33.000000)">
                <path d="M31.5943499,29.9063743 C26.9705017,30.8019104 25.160215,31.8151357 26.1634899,32.9460502 C27.6684022,34.6424219 44.2152322,35.0448985 51.0377759,35.8272058 C57.8603195,36.6095132 100.643268,35.8272058 103.226941,35.8272058 C105.810614,35.8272058 103.027247,39.8385897 95.6992913,39.9754935 C90.8139878,40.0667627 94.3383496,40.1123973 106.272377,40.1123973 C109.88231,37.3612831 112.019882,34.9725007 112.685093,32.9460502 C113.68291,29.9063743 106.699137,29.0980794 99.2263587,29.1485361 C94.2445065,29.1821739 74.0162438,29.4347866 38.5415706,29.9063743 L31.5943499,29.9063743 Z" id="Path-17" fill="#E0DFE6"></path>
                <path d="M1.29933367,63.0667947 C4.04453428,75.6148199 7.72992221,81.7849363 12.3554974,81.5771439 C5.41713459,81.5771439 3.40140226,81.1659492 2.76924519,80.5264755 C2.13708812,79.8870017 -0.00595362034,77.6868903 0.12355078,70.3768425 C0.209887046,65.5034773 0.601814675,63.0667947 1.29933367,63.0667947 Z" id="Path-19" fill="#E0DFE6"></path>
                <path d="M116.299334,63.0667947 C119.044534,75.6148199 122.729922,81.7849363 127.355497,81.5771439 C120.417135,81.5771439 118.401402,81.1659492 117.769245,80.5264755 C117.137088,79.8870017 114.994046,77.6868903 115.123551,70.3768425 C115.209887,65.5034773 115.601815,63.0667947 116.299334,63.0667947 Z" id="Path-19" fill="#E0DFE6" transform="translate(121.236711, 72.324508) scale(-1, 1) translate(-121.236711, -72.324508) "></path>
                <path d="M19.3288675,81.4743293 C16.8514627,81.4743293 8.58681378,88.5947953 13.1591236,90.3757409 C17.7314333,92.1566865 45.0016793,93.7795469 50.2527604,93.4545326 C55.5038415,93.1295184 51.8225573,95.4499435 43.8530744,96.2558462 C35.8835915,97.061749 55.9394049,97.8676517 79.5338941,97.061749 C103.128383,96.2558462 123.65403,93.9243662 121.110296,90.3757409 C118.566562,86.8271156 115.899013,81.4743293 111.441674,81.4743293 C108.470115,81.4743293 106.277558,81.4743293 104.864004,81.4743293 L109.672889,88.0553158 L107.219805,89.4349471 L21.4060846,88.0553158 C20.7187968,85.2094385 20.7187968,83.2659335 21.4060846,82.2248007 C22.4370163,80.6631015 21.8062723,81.4743293 19.3288675,81.4743293 Z" id="Path-18" fill="#E0DFE6"></path>
                <path d="M35.9374157,67.1857308 C23.5406888,81.5960637 18.5780973,88.7040668 21.0496411,88.5097399 C24.9882804,88.2000616 110.138095,90.0984675 109.638446,88.5097399 C109.329759,87.5282103 104.295045,80.5553396 94.5343045,67.5911277 L94.5343037,67.5911283 C93.0228762,65.5836509 90.6560513,64.4029778 88.1432085,64.4029778 L42.0021025,64.402972 C39.6717255,64.402972 37.4571836,65.4191062 35.9374157,67.1857308 Z" id="Path-2" stroke="#404D5F" stroke-width="2"></path>
                <path d="M31.574799,64.5246885 L97.7913006,64.5246885" id="Path-3" stroke="#404D5F" stroke-width="2" stroke-linecap="round" stroke-linejoin="round"></path>
                <path d="M31.574799,29.5246885 L97.7913006,29.5246885" id="Path-3" stroke="#404D5F" stroke-width="2" stroke-linecap="round" stroke-linejoin="round"></path>
                <path d="M36.6324437,5.57061147 L36.6324449,27.6549981 C36.6324449,28.7544374 37.5198843,29.6477283 38.6192999,29.6549537 C73.489787,29.8841251 90.9250306,29.6179191 90.9250306,28.8563358 C90.9250306,27.6924663 93.6861117,3.30137235 90.9250306,1.41077347 C88.1639495,-0.479825409 45.8421195,0.345115877 41.2372816,1.41077347 C38.1673897,2.12121186 36.6324437,3.50782453 36.6324437,5.57061147 Z" id="Path-4" stroke="#404D5F" stroke-width="2"></path>
                <path d="M33.2272839,11.6080366 C20.2320731,11.6080366 12.6991708,11.6080366 10.6285768,11.6080366 C7.52268592,11.6080366 0.346737669,9.77729156 0.383170407,15.9955793 C0.419603145,22.213867 0.456035884,63.1941916 0.419603145,67.4646289 C0.383170407,71.7350663 -1.20555721,80.9759701 5.80384138,81.0839672 C10.4767738,81.1559652 15.1995843,81.1559652 19.972273,81.0839672" id="Path-5" stroke="#404D5F" stroke-width="2" stroke-linecap="round" stroke-linejoin="round"></path>
                <path d="M128.227284,11.6080366 C115.232073,11.6080366 107.699171,11.6080366 105.628577,11.6080366 C102.522686,11.6080366 95.3467377,9.77729156 95.3831704,15.9955793 C95.4196031,22.213867 95.4560359,63.1941916 95.4196031,67.4646289 C95.3831704,71.7350663 93.7944428,80.9759701 100.803841,81.0839672 C105.476774,81.1559652 110.199584,81.1559652 114.972273,81.0839672" id="Path-5" stroke="#404D5F" stroke-width="2" stroke-linecap="round" stroke-linejoin="round" transform="translate(111.733808, 46.247277) scale(-1, 1) translate(-111.733808, -46.247277) "></path>
                <path d="M75.9098137,55.3834666 C79.3753306,55.3834666 81.3880854,55.3834666 81.948078,55.3834666" id="Path-6" stroke="#404D5F" stroke-width="2" stroke-linecap="round" stroke-linejoin="round"></path>
                <path d="M85.9098137,55.3834666 C89.3753306,55.3834666 91.3880854,55.3834666 91.948078,55.3834666" id="Path-6" stroke="#404D5F" stroke-width="2" stroke-linecap="round" stroke-linejoin="round"></path>
                <path d="M95.9098137,55.3834666 C99.3753306,55.3834666 101.388085,55.3834666 101.948078,55.3834666" id="Path-6" stroke="#404D5F" stroke-width="2" stroke-linecap="round" stroke-linejoin="round"></path>
                <path d="M16.469771,11.6840055 C14.3462147,30.3972145 16.8736235,39.8296275 24.0519976,39.9812445 C34.8195588,40.2086699 100.344276,40.4360954 104.796301,40.2086699 C109.248327,39.9812445 116.65964,31.74293 115.701696,11.6840055" id="Path-7" stroke="#404D5F" stroke-width="2" stroke-linecap="round" stroke-linejoin="round"></path>
            </g>
        </g>
    </g>
</svg>