<?xml version="1.0" encoding="UTF-8"?>
<svg width="29px" height="37px" viewBox="0 0 29 37" version="1.1" xmlns="http://www.w3.org/2000/svg" xmlns:xlink="http://www.w3.org/1999/xlink">
    <!-- Generator: Sketch 48.2 (47327) - http://www.bohemiancoding.com/sketch -->
    <title>reports</title>
    <desc>Created with Sketch.</desc>
    <defs></defs>
    <g id="01_Orders" stroke="none" stroke-width="1" fill="none" fill-rule="evenodd" transform="translate(-48.000000, -613.000000)">
        <g id="side_bar" transform="translate(0.000000, 170.000000)" fill="#79828F" fill-rule="nonzero">
            <g id="reports" transform="translate(48.000000, 443.000000)">
                <path d="M19.6970663,6.31785714 L2.90369898,6.31785714 C1.32793367,6.31785714 0.0480867347,7.59770408 0.0480867347,9.17346939 L0.0480867347,33.2686224 C0.0480867347,34.8443878 1.32793367,36.1242347 2.90369898,36.1242347 L19.6970663,36.1242347 C21.2728316,36.1242347 22.5526786,34.8443878 22.5526786,33.2686224 L22.5526786,9.17346939 C22.5452806,7.59770408 21.2654337,6.31785714 19.6970663,6.31785714 Z M20.5478316,33.2612245 C20.5478316,33.7346939 20.1631378,34.1193878 19.6896684,34.1193878 L2.89630102,34.1193878 C2.42283163,34.1193878 2.03813776,33.7346939 2.03813776,33.2612245 L2.03813776,9.17346939 C2.03813776,8.7 2.42283163,8.31530612 2.89630102,8.31530612 L19.6896684,8.31530612 C20.1631378,8.31530612 20.5478316,8.7 20.5478316,9.17346939 L20.5478316,33.2612245 Z" id="Shape"></path>
                <path d="M26.1184949,0 L9.32512755,0 C7.74936224,0 6.46951531,1.27984694 6.46951531,2.85561224 C6.46951531,3.41045918 6.91339286,3.85433673 7.4682398,3.85433673 C8.02308673,3.85433673 8.46696429,3.41045918 8.46696429,2.85561224 C8.46696429,2.38214286 8.85165816,1.99744898 9.32512755,1.99744898 L26.1184949,1.99744898 C26.5919643,1.99744898 26.9766582,2.38214286 26.9766582,2.85561224 L26.9766582,26.9507653 C26.9766582,27.4242347 26.5919643,27.8089286 26.1184949,27.8089286 C25.563648,27.8089286 25.1197704,28.2528061 25.1197704,28.8076531 C25.1197704,29.3625 25.563648,29.8063776 26.1184949,29.8063776 C27.6942602,29.8063776 28.9741071,28.5265306 28.9741071,26.9507653 L28.9741071,2.85561224 C28.9741071,1.27984694 27.6942602,0 26.1184949,0 Z" id="Shape"></path>
            </g>
        </g>
    </g>
</svg>