<?xml version="1.0" encoding="UTF-8"?>
<svg width="129px" height="85px" viewBox="0 0 129 85" version="1.1" xmlns="http://www.w3.org/2000/svg" xmlns:xlink="http://www.w3.org/1999/xlink">
    <!-- Generator: Sketch 48.2 (47327) - http://www.bohemiancoding.com/sketch -->
    <title>select_contact</title>
    <desc>Created with Sketch.</desc>
    <defs></defs>
    <g id="d_Gift-Flow-9_V2" stroke="none" stroke-width="1" fill="none" fill-rule="evenodd" transform="translate(-785.000000, -292.000000)">
        <g id="card-copy" transform="translate(733.000000, 250.000000)">
            <g id="select_contact" transform="translate(52.000000, 44.000000)">
                <path d="M15.9331997,0 C10.1727197,4.676257e-16 10.0565317,2.75526553 10.6753858,6.66414416 C11.2942399,10.5730228 13.4064159,29.7105351 10.0565317,33.4124454 C6.70664747,37.1143557 10.0565317,47.3146004 10.0565317,51.7926418 C10.0565317,56.2706833 12.5723082,71.4463989 5.13015943,73.9382502 C-2.3119893,76.4301016 -6.69288935,83.920943 28.9829494,82.9060927 C64.6587881,81.8912425 89.9070573,83.5904993 102.539753,81.8912425 C115.172449,80.1919857 128.449251,84.8287812 128.019967,73.9382502 C127.590683,63.0477193 125.385687,50.9609957 116.353597,59.2855901 C114.600833,60.9010574 111.706743,67.2147572 107.751162,68.4944857 C91.3234109,73.8092703 59.5384761,71.2705827 44.5007773,69.7883006 C25.8422036,67.949105 19.6964686,58.294504 20.3324452,51.7926418 C20.9684217,45.2907796 24.3024065,25.6723012 24.0626923,18.3672609 C23.822978,11.0622206 21.6936796,0 15.9331997,0 Z" id="Path-6" fill="#E0DFE6"></path>
                <path d="M82.7274985,17.8903968 C82.7274985,20.2583662 85.4831178,21.4383442 85.6834536,26.7913175 C85.8837894,32.1442907 85.6513999,40.5614004 82.7274985,42.1180098 C79.8035971,43.6746192 84.6787694,44.3126888 88.956941,48.7170719 C93.2351125,53.121455 94.613423,53.9177899 96.4124387,59.5943055 C98.2114544,65.2708211 103.001484,62.2076863 102.360409,59.5943055 C101.719335,56.9809247 98.5750306,45.8252242 92.1292421,42.1180098 C85.6834536,38.4107953 100.695635,39.7650655 96.4124387,28.8277312 C92.1292421,17.8903968 82.7274985,15.5224273 82.7274985,17.8903968 Z" id="Path-7" fill="#E0DFE6"></path>
                <path d="M80.5,45 C87.9558441,45 94.3737656,37.8716746 94.3737656,30.4158305 C94.3737656,22.9599864 87.9558441,18 80.5,18 C73.0441559,18 67,24.0441559 67,31.5 C67,38.9558441 73.0441559,45 80.5,45 Z" id="Oval" stroke="#404D5F" stroke-width="2.1"></path>
                <path d="M96.6461786,62.6217974 C89.750507,66.5115595 79.1235656,66.2244501 64.7653544,61.7604692 L64.7653556,61.7604651 C62.8344969,61.1601594 61.6552902,59.2132911 62.0176449,57.2239994 C63.351206,49.9028805 66.2293426,45.5774457 70.6520545,44.2476948" id="Path-2" stroke="#404D5F" stroke-width="2.1" stroke-linecap="round"></path>
                <path d="M91.5236502,60.703273 C92.5262628,51.2611604 95.5690642,45.7759677 100.652054,44.2476948" id="Path-2" stroke="#404D5F" stroke-width="2.1" stroke-linecap="round" transform="translate(96.087852, 52.475484) scale(-1, 1) translate(-96.087852, -52.475484) "></path>
                <path d="M27.2785706,21.2367953 C44.7266339,20.5433096 54.351522,20.5433096 56.1532347,21.2367953" id="Path-3" stroke="#404D5F" stroke-width="2.1" stroke-linecap="round" stroke-linejoin="round"></path>
                <path d="M28.9083586,39.4219887 C33.7867697,39.9669393 37.1666477,40.2394146 39.0479923,40.2394146 C44.7755773,40.2394146 48.1873267,39.4219887 49.1876261,39.4219887" id="Path-4" stroke="#404D5F" stroke-width="2.1" stroke-linecap="round" stroke-linejoin="round"></path>
                <path d="M28.9083586,57.4219887 C33.7867697,57.4219887 37.1666477,57.4219887 39.0479923,57.4219887 C44.7755773,57.4219887 45.0501304,57.4219887 46.0504298,57.4219887" id="Path-4" stroke="#404D5F" stroke-width="2.1" stroke-linecap="round" stroke-linejoin="round"></path>
                <path d="M11.2623182,12.4902459 C9.15199792,51.8490524 9.68767355,72.5191329 12.869345,74.5004875 C17.6418523,77.4725194 111.165426,76.5141155 114.236551,75.6951047 C117.307676,74.8760939 116.669325,8.33115394 114.236551,4.09117199 C111.803776,-0.148809959 16.0909243,-1.04264399 13.6766212,1.17508901 C12.0670858,2.65357769 11.2623182,6.42529666 11.2623182,12.4902459 Z" id="Path-5" stroke="#404D5F" stroke-width="2.1"></path>
            </g>
        </g>
    </g>
</svg>