<?xml version="1.0" encoding="UTF-8"?>
<svg width="101px" height="90px" viewBox="0 0 101 90" version="1.1" xmlns="http://www.w3.org/2000/svg" xmlns:xlink="http://www.w3.org/1999/xlink">
    <!-- Generator: Sketch 48.2 (47327) - http://www.bohemiancoding.com/sketch -->
    <title>select_group</title>
    <desc>Created with Sketch.</desc>
    <defs></defs>
    <g id="d_Gift-Flow-9_V2" stroke="none" stroke-width="1" fill="none" fill-rule="evenodd" transform="translate(-1043.000000, -288.000000)">
        <g id="card-copy" transform="translate(983.000000, 250.000000)">
            <g id="select_group" transform="translate(60.000000, 40.000000)">
                <path d="M48.002813,78.4920085 C42.413353,78.4920085 38.7955868,82.3169373 36.2119493,81.041961 C33.6283118,79.7669848 27.1551826,87.0266581 48.002813,87.080554 C68.8504435,87.13445 68.5506472,85.2099152 68.8504435,81.041961 C69.1502397,76.8740069 70.3932153,75.0247018 91.2969874,73.9344315 C112.200759,72.8441612 91.5114484,65.4031504 85.2022527,65.8567747 C78.8930571,66.310399 70.8896881,64.1871228 68.8504435,67.926155 C66.8111989,71.6651871 63.4428823,78.4920085 59.6959904,78.4920085 C55.9490984,78.4920085 53.5922731,78.4920085 48.002813,78.4920085 Z" id="Path-9" fill="#E0DFE6"></path>
                <path d="M12.3885079,63.8031072 C8.04831362,63.8031072 -2.00609507,65.3300461 0.920350282,68.6148011 C3.84679564,71.8995561 15.5465802,78.7306771 25.3003986,76.568076 C35.054217,74.4054748 34.6764177,62.9253235 29.9884081,63.8031072 C25.3003986,64.6808909 16.7287022,63.8031072 12.3885079,63.8031072 Z" id="Path-10" fill="#E0DFE6"></path>
                <path d="M18.0772678,0.196128573 C19.0610281,1.22012448 22.9870163,12.1174326 21.3504335,13.7781568 C19.7138506,15.4388811 26.6238112,9.2938997 26.2224612,5.80849123 C25.8211111,2.32308275 17.0935075,-0.827867337 18.0772678,0.196128573 Z" id="Path-11" fill="#E0DFE6"></path>
                <path d="M51.0772678,15.1961286 C52.0610281,16.2201245 55.9870163,27.1174326 54.3504335,28.7781568 C52.7138506,30.4388811 59.6238112,24.2938997 59.2224612,20.8084912 C58.8211111,17.3230827 50.0935075,14.1721327 51.0772678,15.1961286 Z" id="Path-11-Copy" fill="#E0DFE6"></path>
                <path d="M83.0772678,1.19612857 C84.0610281,2.22012448 87.9870163,13.1174326 86.3504335,14.7781568 C84.7138506,16.4388811 91.6238112,10.2938997 91.2224612,6.80849123 C90.8211111,3.32308275 82.0935075,0.172132663 83.0772678,1.19612857 Z" id="Path-11-Copy-2" fill="#E0DFE6"></path>
                <path d="M50.7710569,37.9453623 C49.6901964,37.9453623 46.8780144,31.9694117 44.5566209,32.0001179 C42.2352274,32.0308242 37.0049272,33.5410606 36.2920301,41.0369713 C35.579133,48.532882 36.0233503,56.9008506 39.2956144,60.2744454 C42.5678786,63.6480402 39.7092857,81.4571613 41.6937736,83.0027099 C43.6782615,84.5482585 60.1134375,85.2079314 60.5412782,83.7862314 C60.9691188,82.3645314 60.6195791,63.7442532 61.6717804,62.0093493 C62.7239817,60.2744454 66.194813,56.6280766 66.4102687,54.1116983 C66.6257243,51.59532 68.4020816,32.0001179 57.6774073,32.0001179 C53.7956238,32.0001179 51.8519173,37.9453623 50.7710569,37.9453623 Z" id="Path-8" stroke="#404D5F" stroke-width="2.1" stroke-linecap="round"></path>
                <path d="M16.7710569,23.9453623 C15.6901964,23.9453623 12.8780144,17.9694117 10.5566209,18.0001179 C8.23522738,18.0308242 3.00492716,19.5410606 2.29203008,27.0369713 C1.57913299,34.532882 2.02335027,42.9008506 5.29561442,46.2744454 C8.56787857,49.6480402 5.70928573,67.4571613 7.6937736,69.0027099 C9.67826148,70.5482585 26.1134375,71.2079314 26.5412782,69.7862314 C26.9691188,68.3645314 26.6195791,49.7442532 27.6717804,48.0093493 C28.7239817,46.2744454 32.194813,42.6280766 32.4102687,40.1116983 C32.6257243,37.59532 34.4020816,18.0001179 23.6774073,18.0001179 C19.7956238,18.0001179 17.8519173,23.9453623 16.7710569,23.9453623 Z" id="Path-8-Copy" stroke="#404D5F" stroke-width="2.1" stroke-linecap="round"></path>
                <path d="M82.7710569,24.9453623 C81.6901964,24.9453623 78.8780144,18.9694117 76.5566209,19.0001179 C74.2352274,19.0308242 69.0049272,20.5410606 68.2920301,28.0369713 C67.579133,35.532882 68.0233503,43.9008506 71.2956144,47.2744454 C74.5678786,50.6480402 71.7092857,68.4571613 73.6937736,70.0027099 C75.6782615,71.5482585 92.1134375,72.2079314 92.5412782,70.7862314 C92.9691188,69.3645314 91.4890769,52.6560757 92.5412782,50.9211719 C93.5934794,49.186268 98.194813,43.6280766 98.4102687,41.1116983 C98.6257243,38.59532 100.402082,19.0001179 89.6774073,19.0001179 C85.7956238,19.0001179 83.8519173,24.9453623 82.7710569,24.9453623 Z" id="Path-8-Copy-2" stroke="#404D5F" stroke-width="2.1" stroke-linecap="round"></path>
                <path d="M51.3975938,29.7951877 C55.4831721,29.7951877 59,25.8890798 59,21.8035016 C59,17.7179233 55.4831721,15 51.3975938,15 C47.3120156,15 44,18.3120156 44,22.3975938 C44,26.4831721 47.3120156,29.7951877 51.3975938,29.7951877 Z" id="Oval" stroke="#404D5F" stroke-width="2.1"></path>
                <path d="M83.3975938,14.7951877 C87.4831721,14.7951877 91,10.8890798 91,6.80350157 C91,2.71792331 87.4831721,0 83.3975938,0 C79.3120156,0 76,3.31201558 76,7.39759384 C76,11.4831721 79.3120156,14.7951877 83.3975938,14.7951877 Z" id="Oval-Copy-2" stroke="#404D5F" stroke-width="2.1"></path>
                <path d="M17.3975938,14.7951877 C21.4831721,14.7951877 25,10.8890798 25,6.80350157 C25,2.71792331 21.4831721,0 17.3975938,0 C13.3120156,0 10,3.31201558 10,7.39759384 C10,11.4831721 13.3120156,14.7951877 17.3975938,14.7951877 Z" id="Oval-Copy" stroke="#404D5F" stroke-width="2.1"></path>
            </g>
        </g>
    </g>
</svg>