<?xml version="1.0" encoding="UTF-8"?>
<svg width="38px" height="38px" viewBox="0 0 38 38" version="1.1" xmlns="http://www.w3.org/2000/svg" xmlns:xlink="http://www.w3.org/1999/xlink">
    <!-- Generator: Sketch 48.2 (47327) - http://www.bohemiancoding.com/sketch -->
    <title>settings</title>
    <desc>Created with Sketch.</desc>
    <defs></defs>
    <g id="01_Orders" stroke="none" stroke-width="1" fill="none" fill-rule="evenodd" transform="translate(-43.000000, -812.000000)">
        <g id="side_bar" transform="translate(0.000000, 170.000000)" fill="#79828F" fill-rule="nonzero">
            <g id="settings" transform="translate(43.000000, 642.000000)">
                <path d="M36.0325678,15.0017495 L33.3670146,14.5495574 C33.0893528,13.6531065 32.7323591,12.7883883 32.2960334,11.9633361 L33.8668058,9.76584134 C34.5331942,8.82972443 34.4300626,7.55248017 33.6129436,6.74329436 L31.2488518,4.37920251 C30.8045929,3.93494363 30.2175365,3.68901461 29.5908142,3.68901461 C29.0989562,3.68901461 28.6308977,3.8397453 28.234238,4.12534029 L26.02881,5.69611273 C25.1720251,5.24392067 24.2755741,4.87106054 23.3473904,4.59339875 L22.9031315,1.95957829 C22.7127349,0.825131524 21.736952,7.93319415e-05 20.5866388,7.93319415e-05 L17.2467641,7.93319415e-05 C16.0964509,7.93319415e-05 15.1206681,0.825131524 14.9302714,1.95957829 L14.4701461,4.6568643 C13.5816284,4.9345261 12.7169102,5.29945303 11.891858,5.7437119 L9.71022965,4.17293946 C9.31356994,3.88734447 8.83757829,3.73661378 8.34572025,3.73661378 C7.71899791,3.73661378 7.12400835,3.9825428 6.68768267,4.42680167 L4.31565762,6.79089353 C3.50647182,7.60007933 3.3954071,8.87732359 4.06179541,9.8134405 L5.64843424,12.0426681 C5.21210856,12.8756534 4.86304802,13.7403716 4.59331942,14.6368225 L1.95949896,15.0810814 C0.825052192,15.2714781 -2.84217094e-14,16.247261 -2.84217094e-14,17.3975741 L-2.84217094e-14,20.7374489 C-2.84217094e-14,21.887762 0.825052192,22.8635449 1.95949896,23.0539415 L4.65678497,23.5140668 C4.93444676,24.4025846 5.2993737,25.2673027 5.74363257,26.0923549 L4.18079332,28.2660501 C3.51440501,29.202167 3.61753653,30.4794113 4.43465553,31.2885971 L6.79874739,33.6526889 C7.24300626,34.0969478 7.83006263,34.3428768 8.45678497,34.3428768 C8.94864301,34.3428768 9.41670146,34.1921461 9.81336117,33.9065511 L12.0425887,32.3199123 C12.8438413,32.7403716 13.6847599,33.081499 14.5494781,33.3512276 L14.993737,36.0167808 C15.1841336,37.1512276 16.1599165,37.9762797 17.3102296,37.9762797 L20.6580376,37.9762797 C21.8083507,37.9762797 22.7841336,37.1512276 22.9745303,36.0167808 L23.4267223,33.3512276 C24.3231733,33.0735658 25.1878914,32.716572 26.0129436,32.2802463 L28.2104384,33.8510188 C28.6070981,34.1366138 29.0830898,34.2873445 29.5749478,34.2873445 C30.2016701,34.2873445 30.7887265,34.0414154 31.2329854,33.5971566 L33.5970772,31.2330647 C34.406263,30.4238789 34.5173278,29.1466347 33.8509395,28.2105177 L32.280167,26.0050898 C32.7164927,25.1721044 33.0814196,24.3073862 33.3511482,23.4188685 L36.0167015,22.9746096 C37.1511482,22.7842129 37.9762004,21.8084301 37.9762004,20.6581169 L37.9762004,17.3182422 C37.9920668,16.167929 37.1670146,15.1921461 36.0325678,15.0017495 Z M35.8501044,20.6581169 C35.8501044,20.7612484 35.7787056,20.8485136 35.6755741,20.86438 L32.3436326,21.4197035 C31.9231733,21.4911023 31.5899791,21.8004969 31.4868476,22.2050898 C31.1853862,23.3712693 30.725261,24.4898497 30.1064718,25.5290981 C29.8922756,25.8940251 29.908142,26.3462171 30.154071,26.6952777 L32.1135699,29.4560292 C32.1691023,29.5353612 32.1611691,29.6543591 32.0897704,29.7257578 L29.7256785,32.0898497 C29.6701461,32.145382 29.6146138,32.1533152 29.5749478,32.1533152 C29.5273486,32.1533152 29.4876827,32.1374489 29.4559499,32.1136493 L26.7031315,30.1541503 C26.3620042,29.9082213 25.9018789,29.8923549 25.536952,30.1065511 C24.4977035,30.7253403 23.3791232,31.1854656 22.2129436,31.4869269 C21.8004175,31.5900585 21.491023,31.9311858 21.4275574,32.3437119 L20.8643006,35.6756534 C20.8484342,35.778785 20.7611691,35.8501837 20.6580376,35.8501837 L17.3181628,35.8501837 C17.2150313,35.8501837 17.1277662,35.778785 17.1118998,35.6756534 L16.5565762,32.3437119 C16.4851775,31.9232526 16.1757829,31.5900585 15.77119,31.4869269 C14.6367432,31.1933987 13.5419624,30.7412067 12.5185804,30.1541503 C12.3519833,30.058952 12.1615866,30.0113528 11.9791232,30.0113528 C11.7649269,30.0113528 11.5427975,30.0748184 11.360334,30.2096827 L8.58371608,32.185048 C8.5440501,32.2088476 8.50438413,32.224714 8.46471816,32.224714 C8.43298539,32.224714 8.36951983,32.2167808 8.31398747,32.1612484 L5.94989562,29.7971566 C5.87849687,29.7257578 5.87056367,29.6146931 5.92609603,29.527428 L7.8776618,26.790476 C8.12359081,26.4414154 8.1394572,25.9812902 7.92526096,25.6163633 C7.30647182,24.585048 6.83048017,23.4664676 6.52901879,22.3002881 C6.41795407,21.8956952 6.08475992,21.5863006 5.67223382,21.5149019 L2.31649269,20.9437119 C2.21336117,20.9278455 2.14196242,20.8405804 2.14196242,20.7374489 L2.14196242,17.3975741 C2.14196242,17.2944426 2.21336117,17.2071775 2.31649269,17.1913111 L5.62463466,16.6359875 C6.04509395,16.5645887 6.38622129,16.2551942 6.48935282,15.8426681 C6.782881,14.6764885 7.23507307,13.5499749 7.84592902,12.5107265 C8.06012526,12.1457996 8.03632568,11.6936075 7.79039666,11.3524802 L5.81503132,8.57586221 C5.75949896,8.49653027 5.76743215,8.37753236 5.8388309,8.30613361 L8.20292276,5.94204175 C8.25845511,5.88650939 8.31398747,5.8785762 8.35365344,5.8785762 C8.40125261,5.8785762 8.44091858,5.89444259 8.47265136,5.91824217 L11.2096033,7.86980793 C11.5586639,8.11573695 12.0187891,8.13160334 12.3837161,7.9174071 C13.4150313,7.29861795 14.5336117,6.8226263 15.6997912,6.52116493 C16.1043841,6.41010021 16.4137787,6.07690605 16.4851775,5.66437996 L17.0563674,2.30863883 C17.0722338,2.20550731 17.159499,2.13410856 17.2626305,2.13410856 L20.6025052,2.13410856 C20.7056367,2.13410856 20.7929019,2.20550731 20.8087683,2.30863883 L21.3640919,5.61678079 C21.4354906,6.03724008 21.7448852,6.37836743 22.1574113,6.48149896 C23.3553236,6.78296033 24.4977035,7.25101879 25.5607516,7.87774113 C25.9256785,8.09193737 26.3778706,8.07607098 26.7269311,7.83014196 L29.4638831,5.86270981 C29.5035491,5.83891023 29.543215,5.82304384 29.582881,5.82304384 C29.6146138,5.82304384 29.6780793,5.83097704 29.7336117,5.88650939 L32.0977035,8.25060125 C32.1691023,8.322 32.1770355,8.43306472 32.1215031,8.52032985 L30.1620042,11.2731482 C29.9160752,11.6142756 29.9002088,12.0744008 30.114405,12.4393278 C30.7331942,13.4785762 31.1933194,14.5971566 31.4947808,15.7633361 C31.5979123,16.1758622 31.9390397,16.4852568 32.3515658,16.5487223 L35.6835073,17.1119791 C35.7866388,17.1278455 35.8580376,17.2151106 35.8580376,17.3182422 L35.8580376,20.6581169 L35.8501044,20.6581169 Z" id="Shape"></path>
                <path d="M18.9920668,10.7892234 C14.4701461,10.7892234 10.7970772,14.4622923 10.7970772,18.9842129 C10.7970772,23.5061336 14.4701461,27.1792025 18.9920668,27.1792025 C23.5139875,27.1792025 27.1870564,23.5061336 27.1870564,18.9842129 C27.1870564,14.4622923 23.5139875,10.7892234 18.9920668,10.7892234 Z M18.9920668,25.0372401 C15.6521921,25.0372401 12.9390397,22.3240877 12.9390397,18.9842129 C12.9390397,15.6443382 15.6521921,12.9311858 18.9920668,12.9311858 C22.3319415,12.9311858 25.0450939,15.6443382 25.0450939,18.9842129 C25.0450939,22.3240877 22.3319415,25.0372401 18.9920668,25.0372401 Z" id="Shape"></path>
            </g>
        </g>
    </g>
</svg>