<?xml version="1.0" encoding="UTF-8"?>
<svg width="30px" height="37px" viewBox="0 0 30 37" version="1.1" xmlns="http://www.w3.org/2000/svg" xmlns:xlink="http://www.w3.org/1999/xlink">
    <!-- Generator: Sketch 48.2 (47327) - http://www.bohemiancoding.com/sketch -->
    <title>shopping-bag (1)</title>
    <desc>Created with Sketch.</desc>
    <defs></defs>
    <g id="01_Orders" stroke="none" stroke-width="1" fill="none" fill-rule="evenodd" transform="translate(-47.000000, -412.000000)">
        <g id="side_bar" transform="translate(0.000000, 170.000000)" fill="#79828F" fill-rule="nonzero">
            <g id="shopping-bag-(1)" transform="translate(47.000000, 242.000000)">
                <path d="M29.9923352,31.9834356 L27.8461932,8.12638037 C27.8002044,7.59672802 27.3479816,7.19570552 26.8191109,7.19570552 L22.4041901,7.19570552 C22.3428717,3.21574642 19.0470107,0 15,0 C10.9529893,0 7.65712826,3.21574642 7.59580991,7.19570552 L3.18088912,7.19570552 C2.6443536,7.19570552 2.19979561,7.59672802 2.15380685,8.12638037 L0.00766479305,31.9834356 C0.00766479305,32.0137014 0,32.0439673 0,32.0742331 C0,34.790593 2.52171691,37 5.6259581,37 L24.3740419,37 C27.4782831,37 30,34.790593 30,32.0742331 C30,32.0439673 30,32.0137014 29.9923352,31.9834356 Z M15,2.04294479 C17.9049566,2.04294479 20.2733776,4.34314928 20.334696,7.19570552 L9.66530404,7.19570552 C9.72662238,4.34314928 12.0950434,2.04294479 15,2.04294479 Z M24.3740419,34.9570552 L5.6259581,34.9570552 C3.67910066,34.9570552 2.1001533,33.6858896 2.06949412,32.1196319 L4.12365866,9.24621677 L7.58814512,9.24621677 L7.58814512,12.3484663 C7.58814512,12.9159509 8.0480327,13.3699387 8.62289218,13.3699387 C9.19775166,13.3699387 9.65763924,12.9159509 9.65763924,12.3484663 L9.65763924,9.24621677 L20.334696,9.24621677 L20.334696,12.3484663 C20.334696,12.9159509 20.7945835,13.3699387 21.369443,13.3699387 C21.9443025,13.3699387 22.4041901,12.9159509 22.4041901,12.3484663 L22.4041901,9.24621677 L25.8686765,9.24621677 L27.9305059,32.1196319 C27.8998467,33.6858896 26.3132345,34.9570552 24.3740419,34.9570552 Z" id="Shape"></path>
            </g>
        </g>
    </g>
</svg>