<?xml version="1.0" encoding="UTF-8"?>
<svg width="154px" height="77px" viewBox="0 0 154 77" version="1.1" xmlns="http://www.w3.org/2000/svg" xmlns:xlink="http://www.w3.org/1999/xlink">
    <!-- Generator: Sketch 48.2 (47327) - http://www.bohemiancoding.com/sketch -->
    <title>team</title>
    <desc>Created with Sketch.</desc>
    <defs></defs>
    <g id="01_Type_of_account" stroke="none" stroke-width="1" fill="none" fill-rule="evenodd" transform="translate(-817.000000, -299.000000)">
        <g id="card" transform="translate(731.000000, 250.000000)">
            <g id="team" transform="translate(87.000000, 50.000000)">
                <g id="Group-2">
                    <path d="M32.3486151,0.157893356 C39.2947663,6.25901569 41.9451794,12.1934388 40.2998544,17.9611626 C37.8318669,26.6127484 28.7923646,26.9471953 30.5704899,29.1992077 C32.3486151,31.4512201 42.7007429,29.0241211 45.3553496,31.4512201 C48.0099564,33.8783191 49.8262825,32.5466526 52.0504695,37.6677306 C54.2746565,42.7888086 50.2587148,40.147134 52.0504695,41.2144285 C53.8422242,42.281723 60.0444777,38.1984383 59.7226118,33.8873233 C59.400746,29.5762083 65.0573128,30.9658003 48.702964,24.4634815 C45.3553496,23.1718245 48.3632749,8.99609841 42.6221111,4.34319758 C38.7946686,1.24126369 35.3701699,-0.15383772 32.3486151,0.157893356 Z" id="Path-3" fill="#E0DFE6"></path>
                    <circle id="Oval" stroke="#404D5F" stroke-width="2" cx="31.5346535" cy="14.8019802" r="14.8019802"></circle>
                    <path d="M17.6807632,27.7415383 C5.37308779,32.0876647 -0.278629079,39.5021382 0.725612623,49.9849586 C14.9064704,55.4291834 28.8873583,54.3784035 36.0731591,54.3784035" id="Path-2" stroke="#404D5F" stroke-width="2" stroke-linecap="round" stroke-linejoin="round"></path>
                </g>
                <g id="Group-2" transform="translate(104.000000, 0.000000)">
                    <path d="M16.3486151,0.157893356 C23.2947663,6.25901569 25.9451794,12.1934388 24.2998544,17.9611626 C21.8318669,26.6127484 12.7923646,26.9471953 14.5704899,29.1992077 C16.3486151,31.4512201 26.7007429,29.0241211 29.3553496,31.4512201 C32.0099564,33.8783191 40.2086235,40.9604158 38.8603517,45.9624415 C37.5120798,50.9644672 30.9112092,52.1282166 32.702964,53.1955111 C34.4947187,54.2628056 49.2009467,54.5846714 48.8790809,50.2735565 C48.5572151,45.9624415 49.0573128,30.9658003 32.702964,24.4634815 C29.3553496,23.1718245 32.3632749,8.99609841 26.6221111,4.34319758 C22.7946686,1.24126369 19.3701699,-0.15383772 16.3486151,0.157893356 Z" id="Path-3" fill="#E0DFE6"></path>
                    <circle id="Oval" stroke="#404D5F" stroke-width="2" cx="15.5346535" cy="14.8019802" r="14.8019802"></circle>
                    <path d="M8.14634618,52.3249928 C27.269143,56.1581891 44.625811,52.6616666 46.017882,49.9849586 C47.409953,47.3082506 45.4775588,30.4171033 30.5073765,27.7415383" id="Path-2" stroke="#404D5F" stroke-width="2" stroke-linecap="round" stroke-linejoin="round"></path>
                </g>
                <g id="Group-2" transform="translate(39.000000, 12.000000)">
                    <path d="M37.3253251,0.182184641 C45.340115,7.22194118 48.3982839,14.0693524 46.499832,20.7244184 C43.6521541,30.7070174 33.2219592,31.0929177 35.2736422,33.6913935 C37.3253251,36.2898694 49.2700879,33.4893705 52.3330957,36.2898694 C55.3961036,39.0903682 64.8561041,47.2620183 63.3004058,53.0335863 C61.7447075,58.8051544 54.1283183,60.1479422 56.1957277,61.3794359 C58.263137,62.6109295 75.2318616,62.9823132 74.860478,58.0079498 C74.4890943,53.0335863 75.0661302,35.7297696 56.1957277,28.227094 C52.3330957,26.7367205 55.8037788,10.3801136 49.179359,5.01138182 C44.7630792,1.43222733 40.8117345,-0.177505062 37.3253251,0.182184641 Z" id="Path-3" fill="#E0DFE6"></path>
                    <circle id="Oval" stroke="#404D5F" stroke-width="2" cx="36.3861386" cy="17.0792079" r="17.0792079"></circle>
                    <path d="M20.4008806,32.0094672 C6.19971668,37.0242285 -0.321495091,45.5793902 0.837245334,57.6749522 C25.4477315,66.9932298 69.9528588,60.7634614 71.5590946,57.6749522 C73.1653304,54.5864431 70.9356447,35.0966577 53.6623575,32.0094672" id="Path-2" stroke="#404D5F" stroke-width="2" stroke-linecap="round" stroke-linejoin="round"></path>
                    <path d="M66.5492828,15.8683953 C60.1599851,19.9807012 56.9653362,22.9542692 56.9653362,24.7890991" id="Path-4" stroke="#404D5F" stroke-width="2" stroke-linecap="round" stroke-linejoin="round"></path>
                </g>
            </g>
        </g>
    </g>
</svg>