<?xml version="1.0" encoding="UTF-8"?>
<svg width="119px" height="78px" viewBox="0 0 119 78" version="1.1" xmlns="http://www.w3.org/2000/svg" xmlns:xlink="http://www.w3.org/1999/xlink">
    <!-- Generator: Sketch 48.2 (47327) - http://www.bohemiancoding.com/sketch -->
    <title>voucher</title>
    <desc>Created with Sketch.</desc>
    <defs></defs>
    <g id="07_Add_Gift_?" stroke="none" stroke-width="1" fill="none" fill-rule="evenodd" transform="translate(-912.000000, -293.000000)">
        <g id="card" transform="translate(855.000000, 250.000000)">
            <g id="voucher" transform="translate(58.000000, 44.000000)">
                <path d="M65.2423292,18.7961666 C63.9246902,20.1510703 64.4951257,29.5933538 56.2902189,30.9559015 C48.0853122,32.3184492 62.422639,38.6075718 69.1761363,34.1023738 C75.9296335,29.5971758 45.9363853,55.0804485 51.8261076,54.0160178 C57.7158298,52.9515872 92.0977047,21.3817585 89.290436,20.0889626 C86.4831673,18.7961666 75.2656425,33.3752358 70.2539859,30.9559015 C65.2423292,28.5365672 67.5823774,26.6406992 67.5070008,24.7544457 C67.4316242,22.8681922 66.5599683,17.441263 65.2423292,18.7961666 Z" id="Path-24" fill="#E0DFE6"></path>
                <path d="M36.541049,1.4034399 C33.606891,4.67822318 33.0969491,7.47028799 32.5000249,12.0146142 C31.9031007,16.5589403 33.4428863,43.1582546 31.9031007,47.9668476 C30.3633151,52.7754405 28.6309734,72.3132543 31.9031007,71.267475 C35.175228,70.2216957 35.6453307,44.808262 35.175228,32.865794 C34.7051253,20.9233261 36.7037258,7.22726879 37.2960021,4.57862514 C37.8882784,1.9299815 39.475207,-1.87134337 36.541049,1.4034399 Z" id="Path-28" fill="#E0DFE6"></path>
                <path d="M85.4409703,42.2329845 C87.8845187,49.503397 85.751018,53.9857635 79.0404681,55.6800842 C68.9746432,58.2215652 95.1661978,63.7387241 96.5799372,55.0047392 C97.5224302,49.1820827 93.8094412,44.9248311 85.4409703,42.2329845 Z" id="Path-27" fill="#E0DFE6"></path>
                <circle id="Oval-3" stroke="#404D5F" stroke-width="2" stroke-linecap="round" stroke-linejoin="round" cx="59.6037736" cy="24.2830189" r="7.72641509"></circle>
                <circle id="Oval-3" stroke="#404D5F" stroke-width="2" stroke-linecap="round" stroke-linejoin="round" cx="82.7830189" cy="49.6698113" r="7.72641509"></circle>
                <path d="M34.2336137,0.904952817 L31.3590967,71.9172163" id="Path-22" stroke="#404D5F" stroke-width="2" stroke-linecap="round" stroke-linejoin="round" stroke-dasharray="5"></path>
                <path d="M51.3603678,54.2483482 L89.113164,19.6310143" id="Path-23" stroke="#404D5F" stroke-width="2" stroke-linecap="round" stroke-linejoin="round"></path>
                <path d="M27.8057124,72.9401709 C9.85475955,72.8445515 0.693690848,72.2030126 0.322506266,71.0155541 C-0.234270607,69.2343663 0.347169587,52.8507162 1.98885173,52.2216953 C3.63053388,51.5926745 15.1083564,50.1490405 15.1083564,39.8455544 C15.1083564,29.5420682 1.98885173,26.0344985 1.98885173,24.7004761 C1.98885173,23.3664536 2.40070494,0.442928429 3.71355242,0.284739027 C4.58878408,0.179279425 13.5783674,0.179279425 30.6823025,0.284739027" id="Path-25" stroke="#404D5F" stroke-width="2" stroke-linecap="round" stroke-linejoin="round"></path>
                <path d="M37.9260272,0.337562638 C89.4097234,2.45911729 115.486219,3.70008937 116.155514,4.06047887 C117.159456,4.60106313 117.159456,29.0438339 116.155514,30.1399495 C115.151571,31.236065 106.331578,28.3326044 105.403617,41.8870696 C104.475655,55.4415347 116.155514,53.3589152 116.155514,55.4415347 C116.155514,57.5241543 117.159456,73.0914862 116.155514,74.5650142 C115.486219,75.5473663 88.4088433,75.0561903 34.9233871,73.0914862" id="Path-26" stroke="#404D5F" stroke-width="2" stroke-linecap="round" stroke-linejoin="round"></path>
            </g>
        </g>
    </g>
</svg>