<?xml version="1.0" encoding="UTF-8"?>
<svg width="115px" height="81px" viewBox="0 0 115 81" version="1.1" xmlns="http://www.w3.org/2000/svg" xmlns:xlink="http://www.w3.org/1999/xlink">
    <!-- Generator: Sketch 48.2 (47327) - http://www.bohemiancoding.com/sketch -->
    <title>voucher</title>
    <desc>Created with Sketch.</desc>
    <defs></defs>
    <g id="d_Gift-Flow-6_V2" stroke="none" stroke-width="1" fill="none" fill-rule="evenodd" transform="translate(-1041.000000, -300.000000)">
        <g id="card" transform="translate(981.000000, 250.000000)">
            <g id="voucher" transform="translate(117.000000, 91.000000) scale(1, -1) translate(-117.000000, -91.000000) translate(60.000000, 51.000000)">
                <g id="Group">
                    <path d="M38.3923275,50.0091846 C32.8067303,50.3122342 27.2457569,50.8389095 21.6498521,51.0507062 C16.9300969,51.2292689 11.5174391,50.4778412 6.93053795,51.699052 C5.15017895,52.1727782 4.57008771,54.0795119 5.32025506,55.5930698 C5.90320953,56.7692176 7.13898139,57.5386705 8.66737579,58.0523902 C8.56315406,58.390927 8.57403435,58.7660776 8.71605077,59.0967283 C9.03444241,59.8391434 9.75884065,60.0903703 10.5290506,59.9720796 C10.9344846,59.9101178 11.3393459,59.8475927 11.7447799,59.7856309 C12.269897,59.7050805 12.6438354,59.3355629 12.8413985,58.8804252 C15.233917,59.1384117 17.6264355,59.1530572 19.1365052,59.2848668 C25.4888765,59.8397067 32.0382383,60.0712185 38.3923275,59.4504739 C44.4251619,58.8601468 44.6456309,49.6695213 38.3923275,50.0091846 Z" id="Shape" fill="#E0DFE6" fill-rule="nonzero"></path>
                    <path d="M4.52499132,7.74206104 C3.00726688,7.74206104 -1.06322031,6.16337882 1.7308855,3.92411324 C4.52499132,1.68484767 10.8757973,3.66784174 19.5653917,1.68484767 C28.2549862,-0.298146393 38.5170427,-0.554417897 55.5951748,1.68484767 C72.6733069,3.92411324 76.1441685,1.68484767 84.0525081,1.68484767 C91.9608476,1.68484767 98.1573931,3.91799255 101.576005,3.9210529 C104.994617,3.92411324 105.10036,7.74206104 104.994617,7.74206104 C104.888874,7.74206104 55.5951748,3.91799255 55.5951748,3.9210529 C55.5951748,3.92411324 40.201468,3.92411324 33.8668345,3.92411324 C27.532201,3.92411324 6.93095777,5.13953684 6.60626427,6.44079894 C6.28157076,7.74206104 6.04271576,7.74206104 4.52499132,7.74206104 Z" id="Path-94" fill="#E0DFE6"></path>
                    <path d="M64.1856726,32.5844012 C65.7986107,30.1614799 68.3559435,30.1614799 71.8576709,32.5844012 C77.1102619,36.2187831 78.2817505,39.4617903 79.6706695,39.3814069 C80.5966155,39.327818 82.6325546,37.8923625 85.7784868,35.0750403 C90.0102531,35.6056097 92.8236706,36.4559799 94.2187391,37.6261507 C95.6138076,38.7963215 98.1851965,40.0723524 101.932906,41.4542433 L85.7784868,48.0245943 C82.1730956,48.18009 79.6645199,47.5295558 78.2527598,46.0729918 C76.1351196,43.8881459 71.8576709,41.188152 71.8576709,39.4071514 C71.8576709,38.2198176 69.3003381,35.9455675 64.1856726,32.5844012 Z" id="Path-95" fill="#E0DFE6"></path>
                    <path d="M70.5646651,17.3410461 C70.5646651,11.5587648 69.2683792,6.6274044 70.5646651,5.81131651 C71.8609511,4.99522861 77.9268727,6.69333833 80.7757161,4.99522861 C83.6245595,3.29711888 86.3440232,1.59900916 89.5797619,3.29711888 C92.8155007,4.99522861 99.6477487,5.81131651 101.89199,5.81131651 C104.136232,5.81131651 106.380474,17.7988515 104.136232,19.6823227 C102.640071,20.9379701 101.89199,23.1938228 101.89199,26.4498809 C99.6742882,25.3785173 98.313727,23.1226646 97.8103069,19.6823227 C97.3068869,16.2419808 96.2784834,13.7199043 94.7250966,12.1160931 C86.9498689,24.0770887 82.9502918,30.5813258 82.7263652,31.6288045 C82.3904754,33.2000225 80.7757161,27.7760237 80.7757161,26.4498809 C80.7757161,25.123738 77.2351884,15.0582393 77.1493499,12.1160931 C77.0635114,9.17394697 70.5646651,23.1233274 70.5646651,17.3410461 Z" id="Path-93" fill="#E0DFE6"></path>
                    <path d="M84.2952915,60.8950452 C81.9774079,62.3328927 79.6964414,62.3328927 77.452392,60.8950452 C74.086318,58.7382739 73.5159163,53.7736668 74.086318,51.5240691 C74.6567196,49.2744715 75.8106129,46.8072122 77.452392,46.690059 C79.0941712,46.5729058 84.2952915,47.427548 84.2952915,48.7347986 C84.2952915,50.0420491 82.8683271,54.2710877 83.2505154,56.6423198 C83.5053076,58.2231412 83.8535663,59.6407163 84.2952915,60.8950452 Z" id="Path-22" stroke="#404D5F" stroke-width="2.1" stroke-linecap="round" stroke-linejoin="round"></path>
                    <path d="M83.9904262,60.8511004 C86.9195171,63.0054967 89.5932839,64.1391913 92.0117266,64.2521841 C95.6393907,64.4216733 101.137978,64.4335673 104.042488,66.1766302 C106.946998,67.919693 108.783429,73.5532769 101.943795,73.7935353 C97.3840394,73.9537075 91.3995831,69.6395626 83.9904262,60.8511004 Z" id="Path-23" stroke="#404D5F" stroke-width="2.1" stroke-linecap="round" stroke-linejoin="round"></path>
                    <path d="M75.6985377,60.0369574 C75.6985377,60.0369574 68.2142505,67.7032226 58.0181357,67.6039078 C47.8220209,67.5045931 48.9953621,57.0807086 59.3901064,58.1065644 C69.7848506,59.1324202 75.6985377,60.0369574 75.6985377,60.0369574 Z" id="Path-24" stroke="#404D5F" stroke-width="2.1" stroke-linecap="round" stroke-linejoin="round"></path>
                    <path d="M50.8209431,63.6521341 C46.2751904,55.1239127 46.5040776,46.4837151 51.507605,37.7315415 C59.0128959,24.603281 74.9837834,39.4030143 77.4879295,46.4876292" id="Path-25" stroke="#404D5F" stroke-width="2.1" stroke-linecap="round" stroke-linejoin="round"></path>
                    <path d="M64.4970014,33.5845121 C63.7216776,29.333505 60.6785828,24.8107261 55.3677168,20.0161754 C65.2684112,20.5624418 67.3901709,21.1087081 68.8890848,20.5624418 C70.3879988,20.0161754 75.7424299,9.49723014 76.0487475,8.23520176 C77.5328561,11.4699153 83.2216839,30.1471185 81.3990943,47.0977117" id="Path-26" stroke="#404D5F" stroke-width="2.1" stroke-linecap="round" stroke-linejoin="round"></path>
                    <path d="M81.7288963,39.8257326 C82.8384466,28.1580964 87.0920063,18.4660384 94.4895756,10.7495585 C96.039032,13.6922492 98.0857439,24.5144489 99.4274148,25.2876455 C100.321862,25.8031099 105.131048,27.3090862 113.854972,29.8055744 C107.528493,30.2820684 102.719308,34.0099532 99.4274148,40.9892288" id="Path-27" stroke="#404D5F" stroke-width="2.1" stroke-linecap="round" stroke-linejoin="round"></path>
                    <path d="M84.7614402,48.7936899 C95.9624526,40.8872931 104.008734,38.9106939 108.900286,42.8638923 C116.237612,48.7936899 111.888996,71.4792892 104.458752,73.6919231" id="Path-28" stroke="#404D5F" stroke-width="2.1" stroke-linecap="round" stroke-linejoin="round"></path>
                    <path d="M66.1666557,54.9444251 C66.1666557,54.9444251 69.9380482,51.4579767 73.6925551,54.3268353" id="Path-29" stroke="#404D5F" stroke-width="2.1" stroke-linecap="round" stroke-linejoin="round"></path>
                    <path d="M84,55.7501069 C84,55.7501069 87.3225887,54.8507102 91.0770956,57.7195689" id="Path-29" stroke="#404D5F" stroke-width="2.1" stroke-linecap="round" stroke-linejoin="round"></path>
                    <path d="M84,51.7501069 C84,51.7501069 88.7591636,50.0543635 93.5183272,51.7501069" id="Path-29" stroke="#404D5F" stroke-width="2.1" stroke-linecap="round" stroke-linejoin="round"></path>
                    <path d="M67.8480366,44.9017313 C67.8480366,44.9017313 70.9228992,45.622323 74.6774061,48.4911817" id="Path-29" stroke="#404D5F" stroke-width="2.1" stroke-linecap="round" stroke-linejoin="round"></path>
                    <path d="M87,4 L87,21" id="Path-105" stroke="#404D5F" stroke-width="2.1" stroke-linecap="round" stroke-linejoin="round"></path>
                    <path d="M102,37 L102,40" id="Path-105" stroke="#404D5F" stroke-width="2.1" stroke-linecap="round" stroke-linejoin="round"></path>
                    <path d="M70,4 L70,19" id="Path-105" stroke="#404D5F" stroke-width="2.1" stroke-linecap="round" stroke-linejoin="round"></path>
                    <path d="M87,65 L87,78" id="Path-105" stroke="#404D5F" stroke-width="2.1" stroke-linecap="round" stroke-linejoin="round"></path>
                    <path d="M70,65 L70,79" id="Path-105" stroke="#404D5F" stroke-width="2.1" stroke-linecap="round" stroke-linejoin="round"></path>
                    <path d="M48,47 L6,47" id="Path-105" stroke="#404D5F" stroke-width="2.1" stroke-linecap="round" stroke-linejoin="round"></path>
                    <path d="M49.4629686,62.5 L5.89072163,62.5" id="Path-105" stroke="#404D5F" stroke-width="2.1" stroke-linecap="round" stroke-linejoin="round"></path>
                    <path d="M103.888188,73.6884771 C103.419035,78.4502157 97.541274,79.0229453 92.6749109,79.0229453 C87.8085478,79.0229453 29.99268,78.9677128 16.8153947,79.0229453 C3.63810928,79.0781778 6.18259516,71.6434489 5.92917542,67.7798807 C5.67575567,63.9163126 5.03044502,51.6456584 5.03044502,41.6630191 C5.03044502,31.6803797 5.03044502,18.3969719 5.03044502,11.5908668 C5.03044502,4.78476171 8.21933648,3.99697085 19.0836379,3.99697085 C29.9479394,3.99697085 88.0921812,3.99697085 92.6749109,3.99697085 C97.2576406,3.99697085 101.69746,2.61773993 102.023564,14.5656395 C102.240968,22.5309058 102.240968,26.3282212 102.023564,25.9575856" id="Path-30" stroke="#404D5F" stroke-width="2.1" stroke-linecap="round" stroke-linejoin="round"></path>
                </g>
            </g>
        </g>
    </g>
</svg>